<mxfile host="Electron" modified="2023-11-27T14:39:22.586Z" agent="Mozilla/5.0 (Macintosh; Intel Mac OS X 10_15_7) AppleWebKit/537.36 (KHTML, like Gecko) draw.io/22.1.2 Chrome/114.0.5735.289 Electron/25.9.4 Safari/537.36" etag="domDcY5sn19fyU4IFZaq" version="22.1.2" type="device">
  <diagram name="Page-1" id="S6fdViDzu7aKdTYHgDLZ">
    <mxGraphModel dx="1755" dy="733" grid="1" gridSize="10" guides="1" tooltips="1" connect="1" arrows="1" fold="1" page="1" pageScale="1" pageWidth="827" pageHeight="1169" math="1" shadow="0">
      <root>
        <mxCell id="0" />
        <mxCell id="1" parent="0" />
        <mxCell id="CXREXDa2TVlpKWCIqBTj-2" value="&lt;font style=&quot;font-size: 25px;&quot;&gt;BERT4Rec&lt;/font&gt;" style="rounded=1;whiteSpace=wrap;html=1;rotation=90;" vertex="1" parent="1">
          <mxGeometry x="137.5" y="464.5" width="195" height="190" as="geometry" />
        </mxCell>
        <mxCell id="CXREXDa2TVlpKWCIqBTj-5" value="" style="endArrow=classic;html=1;rounded=0;entryX=0.5;entryY=1;entryDx=0;entryDy=0;strokeWidth=6;" edge="1" parent="1">
          <mxGeometry width="50" height="50" relative="1" as="geometry">
            <mxPoint x="64.69" y="550.5" as="sourcePoint" />
            <mxPoint x="139.69" y="550.5" as="targetPoint" />
          </mxGeometry>
        </mxCell>
        <mxCell id="CXREXDa2TVlpKWCIqBTj-6" value="" style="shape=table;startSize=0;container=1;collapsible=0;childLayout=tableLayout;" vertex="1" parent="1">
          <mxGeometry x="420" y="466" width="40" height="150" as="geometry" />
        </mxCell>
        <mxCell id="CXREXDa2TVlpKWCIqBTj-7" value="" style="shape=tableRow;horizontal=0;startSize=0;swimlaneHead=0;swimlaneBody=0;strokeColor=inherit;top=0;left=0;bottom=0;right=0;collapsible=0;dropTarget=0;fillColor=none;points=[[0,0.5],[1,0.5]];portConstraint=eastwest;" vertex="1" parent="CXREXDa2TVlpKWCIqBTj-6">
          <mxGeometry width="40" height="30" as="geometry" />
        </mxCell>
        <mxCell id="CXREXDa2TVlpKWCIqBTj-8" value="0.4" style="shape=partialRectangle;html=1;whiteSpace=wrap;connectable=0;strokeColor=inherit;overflow=hidden;fillColor=none;top=0;left=0;bottom=0;right=0;pointerEvents=1;" vertex="1" parent="CXREXDa2TVlpKWCIqBTj-7">
          <mxGeometry width="40" height="30" as="geometry">
            <mxRectangle width="40" height="30" as="alternateBounds" />
          </mxGeometry>
        </mxCell>
        <mxCell id="CXREXDa2TVlpKWCIqBTj-9" value="" style="shape=tableRow;horizontal=0;startSize=0;swimlaneHead=0;swimlaneBody=0;strokeColor=inherit;top=0;left=0;bottom=0;right=0;collapsible=0;dropTarget=0;fillColor=none;points=[[0,0.5],[1,0.5]];portConstraint=eastwest;" vertex="1" parent="CXREXDa2TVlpKWCIqBTj-6">
          <mxGeometry y="30" width="40" height="30" as="geometry" />
        </mxCell>
        <mxCell id="CXREXDa2TVlpKWCIqBTj-10" value="0.3" style="shape=partialRectangle;html=1;whiteSpace=wrap;connectable=0;strokeColor=inherit;overflow=hidden;fillColor=none;top=0;left=0;bottom=0;right=0;pointerEvents=1;" vertex="1" parent="CXREXDa2TVlpKWCIqBTj-9">
          <mxGeometry width="40" height="30" as="geometry">
            <mxRectangle width="40" height="30" as="alternateBounds" />
          </mxGeometry>
        </mxCell>
        <mxCell id="CXREXDa2TVlpKWCIqBTj-11" value="" style="shape=tableRow;horizontal=0;startSize=0;swimlaneHead=0;swimlaneBody=0;strokeColor=inherit;top=0;left=0;bottom=0;right=0;collapsible=0;dropTarget=0;fillColor=none;points=[[0,0.5],[1,0.5]];portConstraint=eastwest;" vertex="1" parent="CXREXDa2TVlpKWCIqBTj-6">
          <mxGeometry y="60" width="40" height="30" as="geometry" />
        </mxCell>
        <mxCell id="CXREXDa2TVlpKWCIqBTj-12" value="0.96" style="shape=partialRectangle;html=1;whiteSpace=wrap;connectable=0;strokeColor=inherit;overflow=hidden;fillColor=none;top=0;left=0;bottom=0;right=0;pointerEvents=1;" vertex="1" parent="CXREXDa2TVlpKWCIqBTj-11">
          <mxGeometry width="40" height="30" as="geometry">
            <mxRectangle width="40" height="30" as="alternateBounds" />
          </mxGeometry>
        </mxCell>
        <mxCell id="CXREXDa2TVlpKWCIqBTj-13" value="" style="shape=tableRow;horizontal=0;startSize=0;swimlaneHead=0;swimlaneBody=0;strokeColor=inherit;top=0;left=0;bottom=0;right=0;collapsible=0;dropTarget=0;fillColor=none;points=[[0,0.5],[1,0.5]];portConstraint=eastwest;" vertex="1" parent="CXREXDa2TVlpKWCIqBTj-6">
          <mxGeometry y="90" width="40" height="30" as="geometry" />
        </mxCell>
        <mxCell id="CXREXDa2TVlpKWCIqBTj-14" value="0.78" style="shape=partialRectangle;html=1;whiteSpace=wrap;connectable=0;strokeColor=inherit;overflow=hidden;fillColor=none;top=0;left=0;bottom=0;right=0;pointerEvents=1;" vertex="1" parent="CXREXDa2TVlpKWCIqBTj-13">
          <mxGeometry width="40" height="30" as="geometry">
            <mxRectangle width="40" height="30" as="alternateBounds" />
          </mxGeometry>
        </mxCell>
        <mxCell id="CXREXDa2TVlpKWCIqBTj-15" value="" style="shape=tableRow;horizontal=0;startSize=0;swimlaneHead=0;swimlaneBody=0;strokeColor=inherit;top=0;left=0;bottom=0;right=0;collapsible=0;dropTarget=0;fillColor=none;points=[[0,0.5],[1,0.5]];portConstraint=eastwest;" vertex="1" parent="CXREXDa2TVlpKWCIqBTj-6">
          <mxGeometry y="120" width="40" height="30" as="geometry" />
        </mxCell>
        <mxCell id="CXREXDa2TVlpKWCIqBTj-16" value="0.65" style="shape=partialRectangle;html=1;whiteSpace=wrap;connectable=0;strokeColor=inherit;overflow=hidden;fillColor=none;top=0;left=0;bottom=0;right=0;pointerEvents=1;" vertex="1" parent="CXREXDa2TVlpKWCIqBTj-15">
          <mxGeometry width="40" height="30" as="geometry">
            <mxRectangle width="40" height="30" as="alternateBounds" />
          </mxGeometry>
        </mxCell>
        <mxCell id="CXREXDa2TVlpKWCIqBTj-17" value="" style="endArrow=classic;html=1;rounded=0;entryX=0.5;entryY=1;entryDx=0;entryDy=0;strokeWidth=6;" edge="1" parent="1">
          <mxGeometry width="50" height="50" relative="1" as="geometry">
            <mxPoint x="339" y="550.38" as="sourcePoint" />
            <mxPoint x="414" y="550.38" as="targetPoint" />
          </mxGeometry>
        </mxCell>
        <mxCell id="CXREXDa2TVlpKWCIqBTj-18" value="" style="shape=image;verticalLabelPosition=bottom;labelBackgroundColor=default;verticalAlign=top;aspect=fixed;imageAspect=0;image=data:image/png,iVBORw0KGgoAAAANSUhEUgAAAscAAADlCAYAAAC/DVo6AAABY2lDQ1BJQ0MgcHJvZmlsZQAAKJFtkM9LAlEQx7+b1kJKCHWyDt4i0ApXOnQzKwmkFi36cQjWp2mwro/djejUpf8giv6CTnXwJN3s0j9gFEREh6BrEGyHkm2eVmo1wzAfvszMmzdAT0DjXPcCKBm2mU7OhNbWN0LyM3wYxgAi8GjM4nFVTVEJvnO3OTeQRK5HxCz5/GWzqk9IVw99F0fe4OHf+i7rz+UtRvmDYopx0wakGLG6a3PBB8RDJi1FfCK40OIzwdkW15o1y+kE8TVxgBW1HPETcTjboRc6uKTvsK8dxPb+vLGSoRykGMEs5pAiDyEDBVHySdKSmKc7/d8Xa/YlUAbHHkxso4AibJoQJ4VDR554AQYYxhEmFjOjUMS9f9+xre17gOlHesrf1pbugUqFvrDY1kbfgMEycFnnmqn9XFdyvNaWEm2xrwr0Hrvu6yogjwGNW9d9r7pu4xTw3AE15xP9SmPyYZv1cQAAAAZiS0dEAP8A/wD/oL2nkwAAAAlwSFlzAAAuIwAALiMBeKU/dgAAAAd0SU1FB+cLGw4lCjXldOYAAAAZdEVYdENvbW1lbnQAQ3JlYXRlZCB3aXRoIEdJTVBXgQ4XAAAgAElEQVR42uy9aXRd1XnH/dv7nDtrli1bkm3JeGAwFEMZgimlBBISJ6GroXnb1dUhpW3a0mattll9mw9kleZbmrTNh2Zok7cpTeiiSSgEipkCNlOMTTzjGcu2JEuy5umO5+y93w/nnKsr2QyOJw37zzK2dKR7z97nuc/+72c/z/8RX/ib/9dkMimy2TwXCo6UACitF9xrAtj5tPNp59POp51PO592Pu182vmcm/MpjDEGCwsLCwsLCwsLCwvkpXsrM8uv2zHbMc9WzNYx22dhP9N2zAvHj1nffenn1PruyzVmeekmUczy6+Z9xmR+gTkRF+n6bBmzeZ97NgtkzOdrJ1zCMZ/vdXOW932/67PR6f6icyI+4PXL5ccuxnOf7777Qvqp+ezHrO++8H7M+u5L59vPzXfbtAoLCwsLCwsLCwuLEPLi7FBm+w5iPo/5cs/Z5bov7LNYEJ/Z+Wrf1g7smOerD7Xr6MKw7/k1Zhs5trCwsLCwsLCwsAjh2imwsLCYbYj27EIICoUC+/btY2RkpPw9Iabyw3Qo2WOMQUpJdXU11157LVVVVbNqTFprpJQYY9Bal8dRORYLCwsLC0uOLSwsLN6VIAshGBoa4utf/zodHR2sWrWKmpoaOjs76ezsxBjD8uXLWblyJaOjo+zdu5dVq1bxta99jdWrV8+asfi+j5QSrTXZbJZTp07R1tZGMpmcthGwsLCwsLj8kHYKLCwsZiMisuh5HtlslltvvZU///M/54//+I9ZsWIFHR0dvP3226xYsYIHHniABx98kBtvvJHTp09TKpWYTRljUYS4WCyydetWvv/975PL5cpjtNltFhYWFrMHlzBybHhv2ZLLfd2O2Y75cmGujvnS3dctt9zCZz7zGdra2igWizQ0NCDDTki1tbVcccUV1NTU0NbWxre//e1ZF4U1xqCU4uDBg3z5y1+mqqoKrXWZFEdjsfZr/Zgd83zCfPXd899PXUJyPNu1Mu2Y7ZgvF+bqmC/efQkhysSxpqaGO+64gyVLluC6LsVi8Yyfl1IihKCpqYlPfOITVFVVkc1mGR0dZXx8HICGhgbq6upIJBIYY8jn8+VrQgjq6upQSjEwMABAS0sLsViMUqnExMQEw8PDeJ5HVVUVmUwGKSVSStLpNLFYDK01uVyOoaEh8vk8VVVVNDY2kkgkEELQ19fHD37wA/bs2cOtt97KwMAAUkpqamqIxWLT5iybzTI5OVnOTa6trUUIwdjYGEophBBUV1eTyWQAKJVKDA8PMzo6SiaTIZ1OI6Wkrq6uPJf5fJ6RkRHGx8dJp9M0NjaSTqcRQpDNZslms2itcRyH2tpaSqUS/f39JBIJli5dWnGP1o/ZMVvffbl95MJccy7dmG3OsYXFgsTs3/lH0d+6ujpuvvlm4vH4WQvYoq+FELiuy7p169i1axe7du2iqamJYrHI9u3bMcZw++23c99995HJZBgaGuLxxx/nwIED1NXVcffdd3P06FG2bdtGPB7nC1/4Aq2trbz00kts3bq1HJnu7u5mZGSEeDzOsmXLuOeee2hvb+edd95h06ZNKKVYvHgxBw8e5IorruCTn/wk6XSa5557jmeffZbJyUkGBgZ47rnnWLlyJXfeeSf19fXTUixGR0d58skn2b17N5lMhvvvv581a9awadMm3nrrLbTWfOITn+Dee++lVCqxadMmduzYwcqVK6mrq6Ojo4Nly5bx6U9/mlQqRWdnJ88//zxjY2M0NTXR1dVFbW0tGzdupK2tjZ6eHp588kneeecd6uvr+fCHP8y+fft46623aGxs5POf/zxXX321zYu2sLC+fUHA6hzPuzFf7jmdrc9yPs71+VwXzBWtTCklyWSyIvXg3Yk0wODgIN/61rf4zne+QyaT4e6770ZKyWOPPca3v/1tOjo6EEJQX1/P2NgYjz76KI8//jjf/e532Lx5Mzt27OC1115jfHyc3bt384//+I/84Ac/oKWlhY985CPE43Eee+wxfvrTn1JfX09NTQ0jIyN873vf4zvf+Q6LFi3iox/9KBMTE/zTP/0TmzdvRkpJe3s7qVQKCKLhH/rQh1i/fj2pVGpazrEQgoaGBkZGRnj00Ud5+umnOXnyJFVVVeRyOZ5++ml+8IMfcPDgQbTWHD9+nL//+7/n+eef56qrrmLDhg3kcjkOHz6M7/vkcjkef/xxvva1r+F5Hvfeey/V1dU88sgjPPfcc5RKJWpqajh27Bg/+tGPePzxx/nP//xPtmzZwquvvsobb7zB8PCw9d3Wd8/SZ7nQfPeF8O3z8TN7Yccsp08o7zPh53P9ssSeLvP1+Yj5d4Q/d+d64RztGmPK6hVni15WXh8eHubEiRMcOHCAQ4cOkclkqK6uplgsMjAwwODgIEIIHMchlUpRKpXo6upiYmKShx56iH/4h3/g85//PG1tbezcuZPt27cTj8dpbW2lsbGRpUuXYoyht7eXuro6Fi1axP79+/n+979PIpFgxYoV1NfXs2bNGo4dO8bLL78MwKpVq8rkOJPJsHbtWtra2s6aruC6Lslkknw+j+/75U1CLBbD8zxyuRwASik6Ozs5fPgwp06dYvPmzZRKJe677z7a29uRUvLOO+/w2GOPkc/naW9vp6Ghgba2NoaHh3n55ZcZGRkhFovhOA7FYpGOjg4KhQJf/OIX+fKXv8wDDzzAlVdeaX239d2z9Fla3z2bffdcHbNNq7CwsJj9S02YNxv9eS9yfMUVV/Dggw+yceNGbrjhBt544w327t2L7/v4vk8+n0cpheM4CCFQShGLxfjIRz7Ctddeyy/90i+hlEIpRalUwnEcYrEYruuitcZ1XaSUnD59msHBQbLZLLt27WJgYICqqio2b95MR0cHR44cYdGiRRQKBSYmJsokd+Z9CyHOGhWPxqm1nqaLHCH63rJly7jhhhvYs2cP//7v/8727dv57d/+bX7t134Nx3HYuXMnO3fupKGhgTfffJNCocDRo0dJp9OMj48zOjpKOp3GcZzyfXzqU5/i5ptv5kMf+hDGGGKxmE2psLCwWDCw5NjCwmLOEOTKv2eSyOjfdXV1/Pqv/zpvv/02P/nJTxgZGSkXmkVFdJHmsFIKgPr6epYsWTLtZ1zXZc2aNbS2tjI2Nsbo6CilUqn899q1a1m5ciVCCHp7ezHG4Ps+nuchpeTmm29m/fr1NDc3U1tby+DgYPleIzIfNQWJSPK7jfdsEfPotVauXMlnP/tZvvKVr9DT08Pzzz9PV1cXDz/8MI2NjfT19ZXJtOd5CCFYu3Ytf/VXf1UuGqzcfCSTSVpaWnBdF9e1S4SFhYUlxxYWFhZzkjhHUc/x8XFeeuklHnnkEYrFIn/5l3/Ja6+9xquvvnpG1DkinMlkkqqqqmnXpZRs2LCBP/uzP+NHP/oRr7zyCvl8nv3793Pbbbdx9913c9111wHgOE7572uuuYZPf/rT5QgzQCKRYHh4uPz12TrlneGc34eYRoTWdV0+/vGPY4zhySefZNu2bRw6dIj/+Z//Ye3ateV7E0KwcuVK7r///nLzkej3Jycny/fR0NBQTv+wsLCwWIiwTUAsLCzmPDGuJJdHjx7lK1/5Ck899RQf//jHuf3223Ec54wIc+XXjuOUyWxlOkN9fT133XUXv/qrv8qSJUuYnJzknnvu4Zvf/CYPPvgg1dXVxONxVqxYgRCC06dPs2vXLnK5HMlkEt/3OXnyJBMTE9PuMyLFUfrG2Uh7PB4nk8mUSXSU5lGpjSyl5Pjx42zfvp0/+qM/4l/+5V/YuHEjxhhOnDjB2NgYK1eupKamhlwux65duxgeHiYej2OMobOzsyzhFs1LNFc2jcLCwmKhwkaOLSws5gSi3NuJiQkmJibKhG5ycpJsNksqlcJxHPr7+xkaGgJgy5Yt1NbWsnfvXjzPw/d9+vv7yWazOI5TLmwrlUpMTk7ieR6u65ZTHk6dOsW3v/1tAH7v936PmpqacuFaT08PixYtIhaLceONN7JixQq6u7t59tlnufLKK7njjjs4efIkuVyurBNcVVWFlJLx8XGOHDlCKpUqt8SeSY5ra2vJZDKUSiVOnjzJvn372LdvH4VCAQi0kKPugY8++ijNzc1ceeWV3HvvvWzZsoXGxkbq6upYunQpt956K6+//jpbt27lscceY+PGjZw+fZquri42btyIEILJyUmUUoyPj1MsFsspGO+lEmJhYWExH+E8/PDDD9tpsJjbsLqO5z4nc6tDktYa3/fp7Oxk8+bNbN++Hc/zaGhoIJFIkEqlqKuro7a2tqy4kM/nMcbQ1tbGypUryxHT5cuXc9VVVzEwMMD//d//USgUqK2tLXfaq6urKxPC3bt388gjj9DZ2cnBgwd55ZVXeOmll3jppZd44403ylrHjY2NrF69mqGhIU6fPs2xY8c4fvw4iUSC2267jebmZuLxOL7v09vbi+d5KKVob2+ntbX1rAVvsViM/v7+cuFf1G56YmKCmpoampqaWLt2LbFYjKeeeore3l6OHz/OgQMHcF2XP/iDP+CWW26hoaGBlpYWJiYm6Ovr4/jx4xw7dgytNRs2bGD58uUcOXKEzZs343kemUyG1tZWli9fTnV1NUIItNaWJFvMQj9l58TO6cXhCMKUz/Pm44RbI5s/RNS2u1wY9n3291RKobWmv7+fkydPUigUymRNa006nWbFihUsWrSorP177NgxGhsbueqqqxBC8Pbbb5PNZrnyyitpbm5mYGCAQ4cOlbvrxWIxVq5cyZIlS4AgbeHgwYN86Utf4sUXX6RUKk13nkJw/fXX82//9m9cc801eJ7HO++8w549exgfH6etrY1bbrmlXPAWEdsDBw7Q39/P8uXLufrqq3FdB8dxp5FPYwzFYpHjx4+zbds2SqUSN910E3V1dXR1daGUIh6P09bWRjKZZO/evcRiMY4fP04+n2f9+vWsW7duWge9rq4udu3aRV9fHy0tLfzyL/8yy5YtwxhDd3d3+XWllKRSKdrb26mvr5+WT219t/Xd1ndb370QxlxBji0sLCxmJ7TW5XzY94LneWViG/1slH5RSaYjAhr9TJRja4wp5wALITh06BDf+ta3OHbsGFVVVeXob6lU4sSJEwwNDfHd736XD3/4w2iticfjZeIcvVcUeY1k4GZej5Q0KiPH0X1EqhqVOdMzSXR0feZYo5+PNhaVBX7R60b3F20Qpi014T1UqmXYPGQLC4uFAJtzbGFhMesREbNKreOIJFZ+XUkAI+I3k0hW/m5EJitfO3ov3/fZvHkzr7/+On/3d3/Hxz72sXI+8tjYGN/4xjfYsmULTU1N5YK+meQyev9K+biZEm1nI6bAtMK4ytea2U0vet1K0j1TdaNyvI7jlO8jeo/o52fOQ+XmwcLCwsKSYwsLC4tZRI7P9u+zff1ev/N+keeZ5LC1tZW6ujq2b9/O4sWLaWxspFQqcfjwYXp7e3nggQdob28/a1T13Qjv2Uj/u937B4nUVm4c3uu1IqL8Qebzg86xhYWFxbxcc2xahYWFhcV0RI08JicnOXbsGPl8nmQyWU6diJqHRDJplzYf18LCwsLCkmMLCwuLSwjf96dFbytzh6Poq+M4+L5fTouw0VULCwsLS44tLCws5i0q83Bhqijw/VIhLCwsLCwsObawuNw0BisVNNuuWzuxsLCY7X7M+m5rR5YcW1hYWFhYWFhYWLwnbMsjCwsLi0sAG4ewsLCwmBuwUm4WFhYLkqhWagKXSiWKxSLJZJJYLAZMzyHWWpPL5Ugmk2VlipnXi8UipVKprKOcyWSQUqKUYnR0lHw+T2NjI8lk8oIU8BUKBTzPK99zpSbyzPuzsLCwsLDk2MLCwuI9yXFEagcGBtixYwfxeJybbrqJ2traaT+rteb06dM888wz3HHHHaxevfqMxh2+79Pd3c0LL7zA8PAwtbW1fOYzn2HJkiUcOXKExx57jM7OTn7jN36De+65h3Q6fV73r7VmcHCQffv2kUgkuPXWW0mn0+Wud+/WWMTCwsLCwpJjCwsLizMghEApRaFQ4Cc/+Qnbt2/nT//0T6muri5fj7rO+b7Pvn37eOihh3jooYdYsWIFqVRq2uvFYjEaGxt54YUXeOGFF2htbeXOO+9k0aJF7Nq1i+9+97sMDQ3hOA4f+tCHyGQy533/9fX1FAoFHnnkEcbHx/nYxz5GPB6f1hHPwsLCwuLcYT2ohYXFgkOUBvHSSy/xxBNPcOONN3LttdeWSaVSqkyOx8fHee211xgbG+OFF17g1KlTZ7yeMYaqqiqSySSFQmFaR7729nbWrVvH4sWLWbduHalU6oz848oWzu+GmddTqRS33norzc3NfO1rX2Pr1q0Ui8Xy/VtYWFhY/GKwkWMLC4sFB2MMO3fu5Mtf/jLV1dXcddddJJNJIIjKSinL5Pjw4cM8//zz+L7PwYMHeeWVV2htbS2nRpytbXOkiex5Hm1tbXzhC19gcHCQm2++udxpL2oiMjIywsjICFJKFi9eTFVVVTktwhhDoVBgcHCQQqFAbW0t9fX1uK6LEIKmpibuu+8+/vu//5tvfOMbNDQ0cPXVV9vIsYWFhYUlxxYWFhYfHJOTk2zatIm9e/fyF3/xF7S0tJQJZRShlVJSKBTYuXMn+XweIQQDAwNs3bqVe++9l0QiUS6sq+ymFyH6+WeeeYaOjg6UUiQSCVpbW0mlUhQKBXbv3s3zzz9PX18f4+PjbNiwgU996lPl+xkdHeWVV17hlVdewRhDfX09H/vYx7jxxhuJxWK4rsuaNWu45ZZbeO2119i2bRtr1qwpE30LCwsLi3OHDS9YWFgsKBhj6Orq4tVXX8VxHFauXEkikZhGaqOc4+7ubnp7e/nEJz5BPB5nYmKCt956i8OHD09Th4gI9cy/q6urGR4e5rvf/S7/+q//yk9/+lMKhQLGGHbv3s2XvvQltm3bxm233UZPTw9f+cpXeOKJJ8jn8+RyOZ599ln++Z//GSEEGzZsYOvWrXz1q18tvz9AVVUV69atY3x8nDfffJORkRFbjGdhYWFhybGFhYXFB4PWmiNHjtDT04OUkvr6+jPSEKKUiDfeeIOamhp+93d/l40bN2KMYd++fWzatIlcLjctD7iSkBpj0FpTVVXF6tWrcV0X3/fLxHtoaIhvfetb7Ny5k40bN/KZz3yGD3/4w4yMjLB9+3ZGR0c5ePAg3/zmNxkeHua3fuu32LhxI7fccgsvvvgiP/zhD8lmsxhjiMfjLFu2jEKhwJ49e86aE21hYWFhYcmxhYWFxVnheR4DAwNks1mAcnrETHI8ODjIwYMHueGGG1i+fDkbNmygpqYGgJ///OccP378XYvoorxl4Kz5v0ePHmXbtm3EYjFqamqIxWJ89KMf5U/+5E/41Kc+RU1NDbt372b//v3E43GUUgwNDeG6Lul0miNHjjAxMVF+/Xg8DsDExAT9/f224YiFhYXFecDmHJ8VC6W3eeV9nO2eLvb1yzEnC33MF/v67Ld9pRTj4+MUi8VpJLYSvu/zxhtvcPLkSQqFAvv376empoaWlhbGx8c5cOAAzzzzDGvXriUej59BrqN0i+j1ZzYM6ezsZHR0FKVUuXHI+vXraW9vJ5PJ4DgO3d3djI2Nkc/nOXToEJOTkyxdupTPfvazLFu2DNd1y0WDUeOSYrHI5ORkOKbZ4mcu92fa+u6F58fmy5gvt2+fjWO25PgyQlzm65djnOIyXL8cc7LQx3yxr88N23cch0Qiged5ZYJZifHxcZ5++mm6u7v5/ve/X1aXSKVSxONxhoaGeOaZZ7j//vtZvXp1sHR8gGhtlJ+cz+fLXfd6enoolUqkUikWL16MEIJsNkuhUCiT6ZaWFjZs2MCGDRvKShWO40zLj45IeSUxX3j+2vpu68fm05iZRfa8sOoYLDm2sLBYUIgadiQSCSYnJ8uR2wilUolt27bR0NDAX//1X1NfX1/OFz58+DAPPfQQe/fu5ciRI2zZsoXm5uZy85BpS0lFe+rK15dS0traSlVVFQMDA7z55pt0dHRw1VVXobUmm80Si8Vobm4u3+Pbb7/NbbfdRlVVFYVCgYGBAZYsWVKOHkdEOp1On9Hhz8LCwsLi3GBzji0sLBZWRMB1WbFiBdXV1RhjyOVy07rhdXd388wzz3Drrbeyfv16rrjiCtauXcvq1au5/fbby5rIg4OD/PCHP6Szs7P8+xEJVkqhlDqDGEc/d91113HzzTcDsGPHDv7jP/6DPXv28NZbb/Hyyy+TzWa5/vrrufLKKxkeHuZ73/sezz77LB0dHWzZsoXXX3+dfD6PUgrf9xkfH8d1XZqbm2ltbbUP2cLCwuJ81gk7BRYWFgsqIiAl7e3trF69mmPHjtHX14fv++V0h61bt7Jv3z5uv/128vk8qVSqnJccdbxrbm5mYmKCEydOsHXrVlpbW8nn83iex6JFi4jH44yNjVEsFhkZGSlHln3fJ5fL0dzczG/+5m+yZ88ehoaGePLJJzl27Bi1tbXceeedpNNprrrqKu655x5GRkbo6enh61//eln54g//8A+prq5GCEGxWKS3t5dEIsG6detoampaYGkVFhYWFpYcW1hYWJwXmpubuf/++9m0aRO7d+9mbGyMTCZDsVikurqa3/md36Guro6xsTHi8ThSSpRS5HI51q1bx9/+7d/ieV5ZCi6bzZLP57nvvvu46667cByHdDpNoVCgvb2dv/mbv0FrzeLFi9FaI6Xk3nvvxXVdduzYwalTp2hqauLGG2/kjjvuoLq6mkwmw+c+9znWrVvH7t27y6910003ceuttxKLxTDGMDIyws6dO2lqauKee+6htrbWEmMLCwuL84AwVvPHwsJigUFrTX9/P1/84hfZs2cPX/3qV7nzzjsxxuA4DjCVK1zZAU8pVb4efS9KlYhaTle2fp75+8aYM14jl8uRz+dJJBJkMpnyPUa/G+Uha61JpVLTGpYUi0WeeuopHnjgAR588EG+8IUvsHjx4vL9WFhYWFicO5yHH3744UvzVnNFGmU2Yb7IDllYzLJPljGk02mWLl3KqVOnmJycZOXKldTU1JSJa6UaROWfiARHBHimnnH098zW0pVEuTKyG4vFyGQy5UhwOXJR0ZI6mUySTCZxXXcayT569CjPPPMMra2tfO5zn2PlypVlcn7hosfWD9k5s7BYWPgAkWOrlTl/HZ/VObb6oOd6fX7og0bktlQqcejQIZ566ilSqRS///u/T0NDA1JKpJTvmrs78/sfJMf3QuYBG2Po6Ojgxz/+Mel0mk9+8pMsW7asrHe8sAjYpbRP68fsmOeq777YvGe+bFwDfICcY6uVee5zYrUyL/yc2jFfmDGf7/X5og8aIBaLsW7dOhYvXsyrr77K5OQkDQ0N06K2Zx3FWZp+vO9TuIB5wEIICoUC119/PTfffDONjY1z2A9d7s/0XPTt1ndb330pfPt89xfv8VM259jCwmKhoTIfOHKBkZZxZYON2Xz/vu9PS6GwRXgWFhYWF4hCzztyXI6Ym3ARERWbBY2IrpjpOwgR/V9EL2EwM/cZ5iw7D7sezUfqVH6wxhiMMIjwe+KMBy4APe33DGCinywfpYsKAwpfLfroWVJzyVGZM3y2FImZLZ8/iMVMdwembDGYKXcjOMuhXvgNM8NKpl54xv2F/zNmemc/W4A3T1xPsDKH/xTTL4SGJM5clMIvp9a7M1cwM33Fs2nN83bjX/YXM/xbtJJVPn4RrkVmOjOc4kTRD4derbwGznPbmV/k2IQi/EIACqMNBhk6EhM4C1FhBMGXFbMhMGK6M5LIwDaMLhMdYcomhZDWu8wrZ0JEOgw6XF6M0QgEEgFagBTTN1ZCRcYHgC8EUshpjkmEtCewTxm8mgltUAq7SM2SZ/+LvoZCY4RAGoFjQONhMEjhghFoQEgZ2JUBBxBGoI1BCoERYITBmHC7ZUBKAVojjAIhMUJOY9Izb9tGjuf6js1gdGgARmMALWTwZRjckSbyJeE2SurpxFjL8J8aIyJfExElDTokN0KAEQjH+p755s+0MVPd3YwKeY8ob42UkdN24ZUmYACNRojgNQRgjBP+bsidNEgRcB8TXpmPvmeeRY5V+CcGWmCMj5A+IIMHHDoOJGXCjFBEkT9jQgciZGgEDsI45T6CRigMMopJgzG40rW+ZR44lEpyoX2FlgYtg49+TAVkVkuDLi9QzIgKRwscICsixAL80IE4SgSsxwkcS/mAQ9gIzpy3Ie2hlY8UQcRZGT+Ivsg4WguUBk2gMGG0DkjQ1H4KGa5EQkqkE2zFXMdBohFaI6RBIDEislMn8FMVHfhs5HiOc2MUyvhIZLDuYAi3VQhj0EZhTNCsBq0hJDGBCwpPQbQA6YAUCCMRuMGmTEQ0RqKFKa95Di5CWLuZP/srg2+8KJQTBmMcpJGI0F6MCTbmQoQbe0dNO2NwFGAkCCc4eZcq3KAF1uiZwM85UuJEm7V5uH7NqyYgUzQ/WJg0Pkb7wW7Z+KBLoPMY44PwiY6ZjImOC6IXkGCc4G9HgohjZBwjYgjjIp0YRsjwgMGxzGau7xCn7XoN2ngIpZCej9EarRTG8zBeEaMVBlWOwujgbCLccQWRPSmDEwst44h4EuEENoNwMDgI3IDcSIEOFz9pbWhOb658ZSiWFEqXUFpT9AyFfImxXJ7xbI7xiRy5XI7sZJZcLkux5JWJshAC6TjEXIdkKkUqlaIqk6G2upraqhTVmTSZVJxUwkVKkNIhnkgQc1ybbzyPNuda+xhdDOJzRmNUCaOzGH8M44+i/TGMP4FWBbRXAl/hKo0w4amDFCjHQcTiSDeOcFLg1uI4NYhYHcKpRjhphHDRQoBwMeGuzNrPPFnL0Ajlg9FoXwca7Aa0UUhVxPgldMkD5WP8Esb3g5PSigJk4zgIN4ETT0E8hnRchHTRwsFIJ/BBjoPQLo6QQfYAACAASURBVMKJz9u5vITk+AJJjkxLg6i4FB4IGK0wahJf9aOLPVDoQ5fG0P44Qo0jvHGU9tDaA61wDGH6hQmOrqQIdtJGhlEcFyEDJ2PcKrSbwU0sIZZoQcaWYGJLQLrBbl3IgCQhQqKtA5I9lf4z4yh0oUjGXT47mpm/KaAilyaM3iHA9zFeCeMV8IeOYcaHMaPD6Ow4ujCOyU1gslmk72GMFyxeOvgT5YQKIQIbcB20cMFN4iTTiHQNIl2NrKnGZKoRdW3EapbipKowbgzhSHBEmPhTkbIzw8wtLmUUjzPm35joYDI4XvSVIVcoMDw6RlfvMF3dfQwMD5LN58jnPCYmc4xlc2QLBQqFEl5J4fsenu+jw4iv1jo8lpRICY7jEnNdYjGXZDxOKhGnqipNXU2a6lSCeCJGdU0Ny5ubWNG8mKbFi6ipriIec3DCyLExYlp+M+dtR9ZPnfeYTKUDMlO5wfgYfxJVHEPlejG5E3j+BKo0DiqHUTm0nwd/EqNKoP0g+KODU1Kv8vlGyaRSYkQchINwXISTQrgZcNNIJ42MZZBuDTLeiKm6AifZiIzVgEwgomPSaepeYpbM6QLdPL3nVIWrhlboUhGVHUeP9OMN91IcPIWaGEH7CvwSeHl0qYguFDHKC76n/OAUKwoSSYGWDjKeQMbTiEQcE0siYwlkPIWIpxA1S4g3LiGxaCnx2gZEIo1wYxgxFV6Mbk9GqathDqG5rBuxc/vMXgCd44ts0Gb6imXCnGEtDEKo4MjRGLSexC90Q6ELlT+Byh/FFLrQuQFKxTzCaJyQoRoztcCJme8hRWXFXugYwkIrIdCOg0zVEUs34ySXE4uvgXQLTmYlxJowwkXgIISDwARHW0JgCI4ogvXL6kZeqjEHriM4QhQ6fLYyyEdH+RilMLlJ1EAXuvc4/uAp6H8Hf7QPPTqEyE8Ea5k25QK6cvaVmWmkU8dLJsrrI+DL2o1h0ilkTS2yfgWysR2xZCWxxSuQi5biVtVALAaOE+SfInGME+QFCnGe69PF1jGei1qZ734fBvCjVAVjkNoEtQhCgNGUvBKD45Oc7O7j4NET7D90lI6uAUbGJinkcxhR4VfKv3dmjGdaXk2lGxZTXweE3GDCHFQpJU7MpSadYmlTHVeuaue6q9ewekULLU2LyGTSSCGDPHkRnGtoIZACHOQ8Ja2zyX6nX9dRErnxwmcSQ2BQuogpDGGyJ/EmjuCNH8bkezHeBBiFNqrCUsTUXr7iBFuEJRDlpeoMdzTdrsolfkIghIuQcUSyEZm5gljtVTiZNkRqOU6sChE2ujFCI4khhMSYINfUrleXbszahKl8QoGR6HK+sECgUV4Bf3IUPXCSQk8HhZNHUKc6UBOjqOwY+F6wFlVwmorz8QrXIyroji4Xg5aLy0WwgRcS3EQKXVWP27SM9LLVxFtXk1jajmxoQidrcJzgvgUSRwmEASE0oAJ+JOVF3m9dmGc3R3KOg0fk46PQSC3AeAh/HF3oQRVOoArH0LnjMNFJabIf4ZVwXIHvBBEeJ3IK5zFazZQuAWgc4RCLp5HpZmTVVch0G066CRlbg4gvQ7sJkAaJixROmD82rzJZ5sTCqbVP4GIERgOlIowM4Pd34PefQPSfhMEu1OmTmLEhjAoWgiBnVLzb3v3cbEcHhFdIB4GPciWmfhGxJS3IxpXEF6/EXboK2diGqK5GxF2E64SbssB+LC6dzRjjo31VPgPylabgKbr7Rzn4znF27TvIkXeO03t6iILnT+UORzno8vx8zdm3eVOnCdoIlPaJOYLGumqWtSzh+muu5IbrrmLV8qXUpJO4cYnryqAS3YB04jYyd6ktyfgY4aO0RmuFo4pQPE1+7G28kQOIiS680ghGT+JKQFzKY+ogh1mZGK6sRaaaEA1rSNZdS6xqNcqtAeEipYMjBBgXIa0furT2ozCmiBYaoR20lmilIJ9DD/WS7zpKrmMvXk8HZqgLClmKIoExCheDDMtcLhQEBscEJ19CODixOLqmHndJG4kV15C+Yh3JlnZEuhbtxJGxOFoKEAYHGXI3gkLQWY45Qo59DB5KlTB+Fgrd6Nwh1OQx/IkudLEP6Y/hqyLaKLTSQXJDmHCuxdT++7xLDyKFAWNAg3IFUjpIGUM4CUy6BpFsIVZ9NW76SkR8BW58CSJWS8Bv3AtxFxdx1zQXo0nvEQU04GkPcmPo4V5Kg6eQvR14fSfw+08ixgcR+QmErxDaoLXBd7ygYEEHyiRSCM6H6QSbdlEuLFeORhM4F+m44DqQrMbULsFpasdpvoJY83LcpuWIuiZkshohY2fkRl/e5zyfj8INRvn42jCWK9DReYoj75ygq6ePkz2DdPf0MzI+QbHghdHcqHgqjMTo6QWeFwVSBoueDouygOqqJC1LFrGiZTFLmxazsm0FV61po3VRDYmYi3QS8/BZzV77DNKuCpjSCKVsJyrbCYVeTL4Lne9FlbIoFEiDCgs0XSEu2V1rDEoYpJCBbzICVyaRyVpkZjkisQyRaSGWXomTXgpOJqiduKB3aNer97putEErha+KqInTFLuP4vUcxxvswx/ooTTYBxNjGKXCE67odD04cQo40AVsPgThaXhgP0HISYDjYuJJEnUNxJuX4zS04i5qI71iDe7iJnS6BiMSxDQ4MlJ8mk3+Yq6Q4/COdDk/ywM1jJ48gj+2k8L4DvTESYSXo6Q8tDG40VFDePQUiQY44TmUCtMxnPO9LxWkEVfKJ5uwIEKYMM7kCkQsiUwswq26gnjmBmK1t0CmHSnToSRTBd9615xkiw8aUysfCxkTPn+BNBrj5SkNnEAd3Yk69HO8nuOY8QEoFTHhJiqKyYmQ4qhQD1tMZeBdEHIc7awioR0RnUOED943BhFzkYk0sm4xcsU6YmvWE191I05DKzqWQIrgnsxZ9G8tfpHnYqZOn0NiYoxhIleko7uPrT/fy9Ydu+js6SebKwRhmPJmW4RH5WLq6FKAuFRHzJHOsZiSpDME8nBuLM7i+lquu+oK7rztRn7p6lU01dXiOrIiV1GesfBZ/IKLVYUvNwiE0RhvnOLkYYrDP0eN7kXn+zDaQ2iQJlAe0cIEx85RvoS4lMtxsF7qKOKDwDEikLCUQYGfdKuR1VcQa7iJRO11xNLLMSIR+B2jp04zhLWg8/ooE639OizQdAJRAc9Hjw8zcWwPuQNv4B1/G294AOV7yHD9KK8HEa/Quvw8zMX4ZMsKmzfBezgi8IVG+yAF0klCuppESxupK28mffWtOEtXIONpnKhxUTkXOdKCnyJAs8GSZhU5VgDaIJXBOB6e8cEfh0Inauwt1NAb6NwJlF/A91WZwFTuCcSldYkzJdqnv78AXBfp1OHWXUes8VeIVV8N8aUYpxap3SAXRwbOSRuNIy92ZHm++RWFZ1QgWWQMRvsYYdC5HIyeRncfpXj4TdSRncixfnylcUJCNHtjZYGT8Jwkbn0j8StvwV13G6Z5DU5VPU48jXFcBOFYHAds2sW5+RptEMKgfYV0Au1P3xiy2Rx9pwfZ8fYRXntzB0eOdZIv6TmluFfOLAy1SpcuWcot16/jV2++jivammisryLuxoKi0bCIRgqQCEtvzmWedbRqhRETrTDSoP0sJt+NN7yH4vDP8fKduKoYyIvKd4lgXaYA53smjYX7QN9REKsjWX01yUW3I2vWImONINyKInQT5qTatetcbUgbjRF++J1A5tF4Gn98gHzvCXL736K0/2eY0X6U1nNrIysEMllFvP1K0tf/ColV1xGrbSaWTiOlRCGDYuSgjQS+E6SmzYbk01lFjrVRAUGmhFPqx5vcS2n4DbyRPajSIKbkISurNM3sp5F+6GWE4+DEMsSq20g03gTVtyHSV2LcKtAujtC4QnHx0y7mmXMxPtovAkmM0JSKE8juk3gHXqHUsQO//xRiIgcqi3QkSkvcabJ9s3JQIATKCLSQSMdBVlVjmtpJXHUb7lXrcZa0IVO1oAWOdAKCbPHBybFSQQ2B0QghKRaLHHrnOC//bAdvH3qHU9295IolFBKDOwelqHWZ6mqjcV2XhoZarlnVzu03Xs8tN66jqTGNDHrVBDUR0tZDnOscB/UMoQasyqJHD+MPbsefOECpMITReRxRwtExjArJsZgjrQWMBC0xjo+PAZHEjaVJZFbg1K3HXXQLIrWEoFWWCdYxx7UB5HMkx8r4aFFEChC+wR8eYnLvG0we2Irf20lpYghpikgRQyuJQM2p8JUWHiCJJWuJNTSTWn09mV+6HWfl1ZCoQsgwH1lV9KGYBc3VZhU5NrqIUjl0/iSloRfxRt5ET5xAlorBsTMCHR59istxCvWLulBhEBqEr8GVyKpaqF1HsvHDyJoPIWUjwkkipEYK18ZvzpFIKi/IyRIjp/GO7cbb+zK6Yz96cgCDxjFOkPYiJMZMdUyczWMSCIyUwRGn9hHKxzgSsagVp20diXW/hrz6Fkymnrjr4jgxawvn4LCVVmgDJV8xMDLOjj37eXHz6+w7fIJcQSGlwJUCXT7ynGNK1CYqjgjiTAqDMhAT0LJ4EXfcdiN33n49q5e3UJ1K4AoHHKvZfm7BHA9tfITvoQsjlMa2URrYip44hvEVWghcVyGMwGgZNlQws9v3TLMhgdEO0lFBaqI2GC2R0oN4A/GG9cQX34mbWYl002hX4IqUDe6cE+cxKK1R+JjJMUrdR8jufo3Cnp+hR0+jQqUZnCD9xuggYDJXEAUVAtUNg6s0Mp0i0X4t6fV3kbjmJpzaOpx4AiHioCVSSmbDEC8hOZ7Ka5oSwwqkzoLLJfxCB4XRN1HDb6HG96MLY0Eei4x8ShAqNjo8Cpztrjxcm7yogD08OnCkASeBW7UUWbOeeM0NuLU3o5JLkCIWxKnC3Flhi6ZmXDXT5taoEv7IKYon9qIO7kB37EUN9yDyPkIYlGOQKphFLYLizLlAAYw2ZQehjAHj4CDRjsYkkshFrcTWrsddcxPxFetw65eCjE+l9xgVkjobUZ6a0yg/2OApxcDwODv27mfX3gPsPniCntNDKGPK+Z/l1t8XRrDkMn2WQt8jJFqHbc4lpJJx1q5q55b113Lr9dewakUrmWSMqVzkSvnAhVj8eeZ7GlRQhWAiub8SKncKNXoAb3QXavwI2htFCIWjJcYPqvIjtYCg3a6eO8YUFtRobXCEE7QNxqDj4GuDlElkqpVY7TrchuuRtWuIOw1hnwADImqRNNdkHi/FpzLwM77x8QvjFDoOUjiwHe/YPop9JzCFfFBYJ4I8cEcIlNGoaZo1c2QTGQYyIxVb34B0BW5dPYkr1pNYtZ6qtdfjNC0HGcMNu4wGa/yF7L4363SOK697GCMwwgl23AYkDhgPPb6D/MCT5AfewC9MEgvJjw4NRJrp73LWHN/ZvUSV71iEfWMNAiMMbvUSkks/hVz8cWSiHRcJKJR0cS5q77S5oxsZNWDQJjjik0hkqYDf20Fh54sU925G9neBH3b7kbK8BYvE8U3o7Gd/DZuoaDhRsVKFLE0ZcFD40oHmVpI33EP6po/hNK7GOE6gTaoURmiETJTn4vLZwWVeAKOGG0ohpIPCcLx3kCc3bebpZ18mX/QCiT0hpypsmS4XOzfJ8dR2UlS0LxEAUqKUIiZh/bVr+Y1PfoQN119FVVxiZAyNxJFijhQIXwr7NWhTCrTSw8uq0MVk90/wB36G8LMo7eAIgxYmVKYJoiLlOZ+jhmRm6ihHhYRahhsvH5NpI7n810k1/mrQmc+ooFhVugjhzpHnfPH9mNGaYIsaFG16o6cZ3/sKE5v/F/q6QrWJqdku20654M7MSR9U4VaDscvQM2kNqTSZ9b9G3V3/D7HWVYEOMmHRqhE4zrk2Drkwz855+OGHH37/7eOFui6IqjGldhBGoVQf3vhblE59n+LQdnyvgCPBMQZEuTHvGe8yl3IAxYw/0YobVMlLlJfDL3QRU6M4TgKcDNpJA0EP84u3UxTv8xwv9vUPbkeiogmD9DUql6P0zs/J/+wJSntex4z0ItBox8Epl2lWFFFHu9c5YjRCnM1wAqKjRKgxqUBlc+iRPnRhAh1PI5IpdDyOceMYqRHoUHtXXkY7OBd/cXEmU2DwjWAkm+Pg0ZM89fwWXn7lZ2QLhaAhwlmc79zLMz77fFf6D1ExKoHAaJ/BwUF6+wZx4mmqqzKkkzEcGUnUzRUPe7HtV4By0NLD12P44wconn4OdXonopALCtGiVD/ktM+tmOOGJMQMfxTZTtgRNK4EOp/HeAMY6aGdBLhxhEkixYXMQZ4769V7xFERvoF8keLpDvJvvsDEa8/iDXQGpwwz0rfENCOauz6oPIaKhlaCoBux65XwBrpR4yO48RQiVY3jJPGFxJfgCHmO6/aFeXYVkeOLH9HRxoS6nBpj8vi5QxSHnscbeAsme9HGCxovGEOgRiLmvbSZLyAWtjCWiTSiqp34onuINdyFk2pBinMV7p/fupF+qYgeOEXh7c3kd7+E6OtAlgpIX4VRGjmjRfT8QtiUHBnqFQoAx6GYSkLrajLr7yZx3a8gG1pRrsAVBheXM0UMF5bOsa98uvuHefHV7by2bSddp/rI5vII6QZ+ySysTP9IWTDqvhdzXBYtamT9tWv55N0f4ppVy8mkM3Om1eulsF+tFV6+k+LQFvz+txCTfaBKCATK9cPTnoWUxmQwUuHqGCgZFBvGatB1q0gtvYdY7XrcWM05nFrNv/XqbDbkjw2R3bOVsT0vUeo6jMxPUsRDGImj5ewuFr8IcMPnpOJJ3MXLqLr6ZtI33YlovZKYk8QR79aZ8UL6kzNRETm+yC2gRZhlbARC5ynld5Dvehx9+lV07jTa6CAdLpTvNAKkXAD5R4JA9xKBp0ro/ACy0IU0eUi2IJ26in73H+QBX+7rF8zthjqyUxFg38vjde6ntPXHFLY9jew5jlPywxxAEdTni/mtFR3EgAM70ITGYwzCL+CM9GIGTmG8Ek66mlhVA0LEw0jWVBt0MYfs4PwdT1BI1N3XzxPPvMhPnt/CiZ4hSiqIwhsTdkE0LLBCWDMVDgw3CBOTE5zsPk1P/wD1DfUsbqwnFnPK+t/iklv6LPBj5b4wCp09jt/zHH7PS6jsaZTUkaBD0ORHLLRCNIE0Et8ItDRoodGqgMj1QeE0jhvHSTQhnERQ3CfOZkXzY706w2zMlAZ9uW230aixHsZ+/jxjW36E7joMhTxCCxzj4BhmCNMuFDMyGDRC+fgTw3inO9GFLInGxbiZOqR0w47ZU8lh5z5H5z6nHyCt4nzcbyhobQwYH1CYYj9qbDP5U4/iD+0BLxeSmSliI0RlV7L5bSjl/ubhkVzMCFRxAlXswvinEG4dgjoMEiNU+IGbv3NiQq1ijUKgMUoF2o65Sbwjr1HY/H3MvjcQE5PB/EWC4uFxzcJwKyL8jIQt0YkalgjIT6D6TuCN9SEytchMPUbG0SKqGA4y3ubzQh4US4EwPp5X4u0jHfzPM6/y/JZtTGQLYXqNDBMOpv5bWLRGVGjDm/KJudKa/sERjnf3IR3JksZaUq6LX7FJLW9Y5/WxnsE3KgjU+HmKE/spdj2GN7gD5ecwMirsjdST5rdffnfCEfndcOMdpgWY0ig62xGkgMUbkSIVthxmQTQuij4j2uhAotb4FLuPMvHq44z97Bm8ob5AIcZM1cJEfYQWmh0ZRKDkIsIE2mKJ0sApcoNd6HgCWdWIE4uhhMAYFXb+u/jr10UlxyLIAkUJhRYa449QHHiC4qnH0GPH0cqvyH47m0mIBedqPCdowqV1Ab9wEqW6iKUWQaIGLRM4Yn5LdmmjwGgcEUfjoAyY/Bjega0UtzyBOrYHiqXQ+YSbqAXpUqYbTuXarIsF9EAPangIU1+PrGkkJhJIPyTUzvwmgwIQyqfoKXYfPsl/PvY0P3tzJ8WSX5G+JxBY4bKZTYtMGOcaGR3n2IlOEvEYzU2LSCfj0442ow3pfJ4ZYxQeOdT4LvInf4w3egCUF9qQFdw823ovRcTwDMbP4028gzAFSC8GNx1IlS4Achx9PrRS6JKH6jnB2AuPMfbzV/Amx3CcYB40Z6l2XJDGI6b9U/ol/L5eSr2nSGZSuA1LMG4CJR0QEucSzNPFjRwbhUKA8RH5U6ihlyn0PQ1jPQhlytFSi6mIlw6PO6URSE/jFQbRegwnXoV0FyFlal7nDQihg4pd7YBfwJ/oxXv7VQo/+zF+135E0SM6VpG2dfLZ7UiAa0ro7CD++CgiGcOpziCSVUFrz3mee2KMIZvPs/vQCf7rf59l1/6jqEhPy5R7PFtqfNZdFqG6B2TzJU71nMZ1YzQtaiSdTJRPaiICMF/tx2AwKoca2UOpaxNi9DAmbMsrZSQpMKdlTC4qMUQEKXGuKkHudKA3n1yEdKun2hzPQ/uZlk5hDKqYJX9yH2Ov/ZDc/tfRxTyudALFjzmhnHSZbEiCIzU6N0JppBfjxHHrluImkkghL8naf4HJsZmemyZKga5j4TB+739TPPUsKteHLzS+E6ziVi58ehQnZoJKZy3DrBKjEfl+/PxJpHRxU8sCqRwgKM16r/jXbExLeR8JHaNRJowg9x+h+OZP8F97EtXXifE8kBJXVBBjYyzHmRm/0RKBg9A+ZnQQ3XsSoX1k83JMogoZqjfMJ4IYWFDw/1zB49Xte/nB45t4+1AHvl8K6hmi1rbCxozf3XeHKUphFv94tsg7x08xPpFlefNiaqszGKFnbE7nS1GVKc+E8bP4g29S7PoJ/uRRNB5C6LBzl0Br5ogs5KUkhlFzz+hUIegG6JkiOteLKGVxqpYj3Op3OXmY+2mUkT4vAlQxx/iBbYy89D/4h3dgCoUpSUVNWTrJmtB0DhSogRuM66K1Rk+M4fd1InxNYlErTipT7qB3brUQ5+ZnLig59lHRiQpCKJRRUOin2P9j8qefhsJEQPikKRNjaxhnD94IYRBIHCHQ2sMrDiFLJzGpxThOC0I6GFECYu9hHmKWmv9Mg1TlFjHGGLRw8SYH8HY8S3HbM8j+XoQxuEhcMUeGORucNAajPfT4EPSfgtoGaGjFicURRgEqNLi5vUU1gI9GaoWvYc/Bk/zXjzex/8gxlNZBpEFKIlHIaAG3OPNDFO0bAg1SAEmuUKCnr5/qTBXtba0kki7KGJxIrH++FAFrhdEKZYr4YzsodD2GP9ER1s4Evnj6bVlyPN3nTN9kRP9UGIQpovPdQBGRbsG4qYDaTJMqnfuTqU0YMTaKwsm3mfjpY/hH9+D4PhoZfKSiDYSJNljWiGZ+2o0BtMBBgjbo/Ci6pxeRrkE2tyBj8SmBhw/sz8/Nz1zYyLEOtkTagBESCqfw+h+n2LMJlZ8MZbaCzjCWGL/PYzKiQrcrSNpX/gR4pxBOBhFvQTspJHLOf7imicxrgxk7jb/zeQpvPAsDp8PCM95fmtKiYpEyobKFQEvQ+RwM9yNiEtHQgklUIZQTFEPIua3UIIJmXBQ9j+37DvHoE5t4+/AxfKVxpBPqY8/cOFi850fJTLEdIQQl36dvcBCtfVqXLKEmlQ7E+ufTVBqD0hP4g3sp9Pwf3sQJorLNmcJJ810V53x8j5ghF+xEhVYYSoXTUCwhk4sR8ap5WEOjUIUi2eMHGHnlxxQP78T4XkCKiTq+CeuL3scTiQo9ZCkFvtAIL0dpfADhKmK1TZhkbbCJl1yUVmkV5PgCHH0pAUIhhET6QxROP06h9znk5FDYVcd2XT/X1SpMc0MKg1YGWRzD8/txEk3IeAvCcZienDK3jjgjCTaURuCjx4co7XiZwutPIE6fQGobnTlvMwqbBqqJEdToIE6qBqepGdxkMP+SsxQ4zNYjzrOn5XhFj31HO/nOo//LvoNH8T2FFDJoPx+Eiu0+6jx90WQuT2f3KVLxBO0rWkkmYhdxcb8MfkwbvPG9FDqfwIy/A6ZkycuFfqp+EXKD4CpimTaEU/0+/n1u6Rwb36fYsZ/BF/6L4qG3EMWSDeBcgOBHcEqj0ZOjFAdPIVLVJJqvwHGdcjORi0iOf/GjLWOijjmBMoXwsvhDL1Ho/REqP4BCl1sCWjs5R8OQgU6rE+X4aQPeCEYP4qRacOJLQTgIE+gAvn8McPYdcRoV7KB1bpzCgdcovf4E9BzDCIWCM48zz7ifMzcHZXnSqCtP+Zqc5fxv6k4rZ3uqjizKyhLB6cIHWLwNMpCe0gKZncBMDiPqqzANS5AyiQxl4aZXDMzWT6qY7ngIPh8d3T388KkX2b7rEMqfyi/WJkirEPLSbssDf26mvprR8tCYqX8LMSWmVtbQMOVEo6mQ3KWc5SldzXLkXRhJLu/R09/H4sV1NDc1kYi7F8leLkWqhpnS4DcKP3uc0qmnUMNvI/GiBFq7CF1QuzKgS5jSMI6bxkm1gkyUbe5Mlzz7U3JMaEfCaIq9xxl/9QmKB14HLz9LJf4qBCxNZZ1BuKbMELiMJFLFZSpT0UIjkUjcIBc5l6M0OkKirol43WJkLB7ajr6gGkQXJq2ivAZojJnAH3iZfOf/h8r1Bd3uQkoibGHvL7Rtqjxi0EIgfYNX7EGq05BchYnXgDKhzMkcK3IMiziULuIdeoPCS/+N6D6KMKrcvOI9x2Oi6kWCECkGY2S47hm0kGAkEh9hgrbLYobZzrb1zxBpEgfpSRpZTj0BgQodlINAiw8gGy9E+XgY7aMmhigNnsRtXI6obUa4LloEkbO5IlGlDfz/7L35cxxHluf5ee4RkUicBMBTJEWKpM6SqlRXV01V9UxPd8+12zs7s71ma2Nrtn/V/rS7tj/M9G73zPRRXV3d03VLpZJKt0RKIsX7JgDiTuQVEe7+9gePTIAUJV5AArKtlMEoEiAzMsL9+Tu+B94DgVu3V/mPf/szXnnjXYrCxcS4L9dm+iYfg32IUpUlASOhev8qMb4r7+wf4hp/Y1CQEsSta71v9npzxQAAIABJREFUwyF7Rzrfw7CjNJptrs/Os3t6koN7p0hUwXy54F1KxIWKUzwlrnWdzpU/xy1/iHoXn5H53ZxzS/aFidrRrnMNkhoyfBBC0ic4fpnWkVelxCOlUC7fYvGXf0Hrg1+heReVnbgnehbOhoj55s7CfcP/9lga0Q1dEQXba8LJYOMQuqGJEBTfXKCcu4bZtY9k6gkkUTx5POuD3RSIwqYkx4IiBoI4dO00xa3/B792Icqa/A5fvAlV3p0dHSMSkye3hEkMduhJTDbZ7wB+2QbITjx64wzla39NuPAR4st+t9c8wM7RitQHhiCGIIonWpDHNaiIWlQEb8L6/ZGdmRwTwKiJCW0liaQEQtVQFK9YIEgEpZj7VPOyodBCBK8e02igItgDR0hGJjFi+4Fyp6+evrOdCO3c8w+/fJ2//8VrrDXbG3NM2Fb7+WqCIQmBDIxixAEOwSO4qH4gHhEf/7z3/6IEyQgmA91gJ7vNC1U3rKjmWpMi73Lk8CF2T01EYtWXKKmJ2E8FcYRyCT/3C4r511HXZZ3k8LvX1mQ61a+ug3FL2PphZGh3TMKM/VKdXwqIF3zRZu29n7D25k/Q5moVR3cmLE3xqER3R5VqOlW1hdWs/74Xd3zVhPEGvPlsTjKYhH5jM8tgjCdvLqGlJzvwJDI2RSIpoqZK/h//CpPHus09u0PxqJb4ziXy2b+lXDkL4f+XRohbvhM1KN5U842yQ7nwComZxBz4H5F03war4C/LZyrh9hXK3/4Yf+49pMwfatEogrcKIdD2ylKZcLu0LJUFXRUyY5m2yt5UmawpNQM11aqIeNAFeree6Rfpmz6+9qmKEBS6QVl2nrnCsFhAOwQyEnZZw55M2Z0FhhNPRpRue7D3VQyg3uHPvYeb3EvynTp2+knExqIL82VIkJVWt+C1d07x97/6Daurzb6hkOoOqHgEFI9owATFhA5Gc1CHUR+x9OGuZ24NgQSVBLF11GRVor/zkjXnAqdOX+RHP3+DsX//rzi8b+rLR+pUhw8dyqW3KW+/Cq79pVdu+VLlyQqhcZ189mek6SjJyBFQC2K/XJ+h6ND+5HXar/8EVhd3fG1iEFQMpU3w1lKK3pF8qq5P+o1C4sBqwFTxbPv3bQAVEg34Cx/QfG8/E8N1ksknwUQr880wCUke90b3KhHn1yiXXqGc/zWli1ibRKXvK/671+asbAuUvYfnBNecp8NPGBk7DJP/pm/f+aU4mxS0tUr3g1/gTr6CNlfvRgXfN2EVFbw33Mzhw6ZwajXhatsw7wLdIAxJymTiOTgCXx9XvjqiPDUcGIINJjR3AS36Vd3GRPduXWX5TJfwngmyyjqeqDda/wy+KP58L+x4UeZy4WTD8H7LcrUjLOSeZhAyUiZSYf+Q4+XRwNcnEo7WYSzRagJ//+RcUEIwsLRA9/2fEKYOMjKyB1Ovx06C2h1dXwkQQuD8lWv85d/9A5ev367EFYQQAsYmA4BRfF6xVEVFE1360qJJUrZJihYmFJhQYkKES+iGm2wUVIVgUoJJcUkdl47g0xFCOkwwti/9pPfU1x3sA1OE5WaXX/7mXZ7YM8Wf/pt/xtjIl8WgqHLUVINrXaE79xraXfgdYXzAryDgUOzSSUJ9N0ltN6T1z8bcHbyMgjq6ty7RfvXvcDOX+rbR25Wo673CgVYWzQLBGvIso0gTCptSJgnOStVBZh2GX039LUrqHDVXUisK0tKRhN734/E2yKfVY9w4MaQhxbfbNN9/BbNniuQ7/xNWRpCgMVF6zNdjwSrUg5OADx1Yfof81n8mtGboNeTt7/rGW7M62KAFqIq6JtgSGX0ekgmQOGpX3aBdulPiSYSJ4ghQtCgvvsPKr/8CnbtBoqBi18fI9/jwQRUfxbLxQVgIyvtN+JsZ4YcLKW+uwrU2LLuUZpGwkluu5QnnW3CpBTNdIU0cYxZIAhaDqFToUEWMj7+XpLrXLr6XQugpa2jEAPtKCjaoRvlCDAGpiG2hwkrFfzegGDURD30X1jSIEMTTMYG2N5xrwd/NCX89l/HaSsKlJiyXKWsuY8VZrncNn7YDF9uO63lCIcqEBOpWMBYkhLui1md1qGwlq0inERnk+w7DrinEBDzJfUiQ21VMKQSHCCytrvLDn73BK299TPBl5dw2QOct1bvT4diTl2g7bEKHrNug3lmgli9hfRdRj1GPsGGkWX1JRcAT9YiWpNomLdvgPIpFjUWNATH0JqG6IUcfxGfuGzf0Sa6GPG+zurzIsWNPsXdyVzSYMUoIfkeRkVQrNSUCqMdrQPNlunN/h1v4IP6x6F3J8e8aO1t9lgUjSFngWSarH0TTg9FkJih9QKbsrBik6uP5FUrylRmar/+c8uRr5KG95VmP9HsxugEbHNHBQQzBGsrEUCYWlxqctQQS8jSlOVSjOVRnbaROu5aRZzE5VmPAGLT6QkyMN9bgraXILEWSUCYpeVYDNSQBbNUYjVKzVbMK6dMktjAQrbd5VLGdFqFokz7xFOnoJGKl4gs83kU8XnIsHmUN33yL/MafERoX46LuPbff5cZbWD1VxC2JVZwvlrB0sdkhxI5Dlf7sNLKsqoINEAL+8mnar/0V4eInJL6srvc+vZsKi5ujnFoz/Jc5yw9nLe+upCzmaaxoq4Q3/rhixaMEGg6udAznO5aV0jCZWKYTSPA9NVMcCsZWuN+KQa2B4IVWEG7mgYsdz+VO4GwLzrSU0y3hQgeudZUb3cBMKXRDlUzYGOJtRdBSCXcRsXp4Yst81/CzWcNfziT8esFyM083EBLXu9sJSoLQ9pbrHeFC03CzY8EEJjKhLgZj5E5yndwVYEURE9nJobGMbzXJ9hzFjE9hrdkSaZzH6jKFKMmmIuRlySu/fY+/+cdXaTQLjIYNdcCADCPuQODGxEqNkLgOtc4c9c4ctXyV1HWi4UpFFo2YaOl3enpfd2xsFEuI8Aufk/oOmWsizuFNRrC2SqjX9S10gPjq9aUbMKI0m00Kpxw+uJ9dE2NAiAMWY3YM1KJPKFRi0lU2KWZ/RTH7ayhaqJHKeOl3r8EeZAETDJRdKAuS4UPYdIpe60/MTnR4DXhJKLsd2idfpf32z3Brt/GiA2kIxnUq/aZOniY0h1JWR2usjtVp1odp1es060O06zU69YxOPSMfqlFmGcGaDZweZV0r595ffQKfsQRjyWuGbhqbPLUgmED8qhpDgwhEfU0nqSzEmg184bBPHCEdm+6fX/oYJivJnQ/9IfUCBaQ7j5t7hWLxNNa5dTLM76LMADYJfVap5g3C3E/Q2mEk3YVmk1WBae+l7v9wz/mhvn/f3DYCCFrLuE9/CxdPkRWuAtJvLI0/ryAzqBjOtUr+yzz8Zj5hzXmCGiKXwKyPiGJaFbGfxhAkoavK+TVhsQOLZYf/8ITjxLCtcMgCJiOIx0p0WytVaBSGq2043YEzbcN8bmk7oeWg44RCDYlRhq1SNzBqhT01z4lRx0tjjsOZMJ4KdStYvfseRivaWzn8aC7hR/PCXB4oPRHLH3pgC7vhHsa/L5pReuFGx3M7h+ulJwTH96csI4lgVeKI6XP2o1b6cFJ0CGdfpzj6LMnuvSRjExjsNh4+co9gGGEnPsDFG7f56Wvvcnt+CVVzBzxhu65YUZJiiXpzjqxsk/guiCdIyiMN69VUE4iCrMxRl2Btk8Q36Qzvxidjd9ynQd+BPpBELLn3vP3haY49dYT9e6eYGMnwYjfiljZtHTzeeSUEHOICfu08buEVbD6PiomdQP0dS2bgG6d6Lon3hJVPKIZ+jU0nYWh6XUJwRz0SiY2noOS3LtF579e425cJWmCriZvXrQWTxqaY4K2lmyWsDQ9R9LrEYjHBbkhsldIGDIoNYFXx8HAxM2hFZu8VmSlFYummKe3MM9bOqZeRS4GJijaig5SzEFzRofz4t3QPPcPQ5H6kPv7YyicJDxxe74G5dAV+9UPc8nsYvyEx3qkh5m74KJ9Pn9rI8O/DE3ZigqxR2ksRys4KfuXXjIw9j2QvAlmsnD6Dh32gvtAjfv/z+2yxN6uUAcrrH1Gcfw3fXkGMRzXqGauGu95C7jjsRALXW4H/Nmt4a9HQKIRgBSirw9pw50K0keThAmIcGAhBmC8sv1ixYAz/bl/gK2PCUCjjzwZh1cGVLlwshMsN4ZNm4HzH0Mhr1WhNqxwmVJrDpk92iEHdMrWScmzY80zdcXQEnh1Vjg4FJhKJHYYKlnE9F348K/zNbctMDhLMOgq5wgB/9pYGxCvGCEEcXQ+nGjVGU8v4kONl66lbGxP+LwzVGnXR2g3c6ddIDp6A577bjwyDTxfkc/5UMcaw3Ojwym/e4fT56zhs7Moas/UT8Lsgxr0QqIDxjjRfIcvnSYsGQohWsSYWcsbrQ93I6BQJaiTKM1b1kYQOae4geLp1IaTD6HaRl3T9OAgYVppdXn/vFF999jBff/ZERPXYx1k7mxynKjJzMB7jl8hX3qLTvRFhSCgSerrhOxBKcffauYNwqncWK71vV5MqdjR3QDAhQUVxVgjaplx5i3TiWWztm6jJon3wDrvmQEA7y7iTr+Cuf0Kc9KSoVHDBLbzpoooKdGsJrVpGN8vwaUYQ01cGU+PXp1IhQhWVgK8yhYcr1rXfSFGpZPhUMGrxScJqAs5YtNOlXhSRsNdrurDufruV69BgCKp0u0vIyV9TP/ws9RMvIUnC+pU8/OvhYBUaxdKVEi+W0L5Ce/YvCKufoqrrcrOyw721NuT5QdbxuxHCeydmRsTs+KS/x/MKKqhbQ7Ix0tHjiIwAdlsJ2HGs4fG9DaOBsLRA59U/x515Ey3iuPkzRMLqQakaBF/JmCktp/z1XOC/zmUslYagpkomzQbZ8o0Peb2wiYlrTFhA6TrD5aalE+DYSGAqCTiEa03hlwvCn920/HBmmPdWLdfalq6zSHB4MeuDKI0YZDEmEqqqYsWjtILhetfyUcPwwUrK2Qa0fGDIwmgiJMBMafnLWcMPZy23iqSS+TIR89xL9u+WxVeJGNX+t2zVsbDcLiwQ+MqwZyQlHvpyn/ZLlX+75hLGZGSHXyDUR9Dg+4CT7e7eqCpelbdPnuU//de/Y2m11dff1ccKgY96SHqCVYzm1Jvz1FuzWN/ZUHj3hpUbchR5yF293v5BzHo2moQuieugooQ0BUkq1aABOoFV+uu94ltVWVpeIkkMLz/3LGlq+9CendLwCxoImhMWT9Gd/SlarCDYPrlop+Fbq6YdQdfjlwk9gUvTd2bouaMHouwWWul7935mB7963c2+BoJbw2iKHT2KpiNYsTtKIlCB0hd0z75H41d/TrG6EE24qoRzsyNRH4JXEeQwhk6WsjY6RGuoTjDpHdj+mL9GqU+JmSO68ah6aJkzWeca3HVdptovQSxlEvH89dxhqrPJaIQT6pZDO7U6M8GvraBpSvrkCWytTlBFfI8r8cid4wfaqlWCkyC+Qdl4g2LtAsb7jd5OO3onhl5SHALOQenA+xh9UiukBoyNn8KKkHklGKHUqJ2b7DAMVBzybMj8yzZF40OGpr8F9T07QBUnXpipSGrazXGn3yRc+gCcJ5UUxK/3PeTujnNvaB1peuc7CW+uwZIziDisUJHgPm/1aT9H7gmIb+wCdIG3VpVn5xXZkzDXDfxkwfL+quFWF0rfRW1SEa0CZJCYSAozcic8QhWCB4KNaypS/AhWWVXPhy3lprecy4V/sbvk+SF4uwWvLsN8DtjeZ/DrJfc9xlP9Dnn/N5U3kARyDydX4dPJwL66RBWE+yS3sfI22KJAr32Cu/Q+yfgfAMMVwQ/Y5nXkFRaWVnn19TeZX1y9o5jaDlxrNOPJydpL1PJFDHnllLUupi8b9uXD9iM34pJ7GN7+J1UlKRvUJKDWUmZTqKQMkkAm/cNY+mdDWQbePXmGj795iW+9/NyO45wYMZi8QXv1XTRfjKTTdetJdiIBTzAYqZTcBUKiFdYbNtg0gChGhSRU2Grj+0Xjzs6OY+S22mtSKWXzU+zaJ2S1vUiys64/oISVWTofvkqxtIQhraYnujWxqNr/AfDWktdSmiM12kMZQSzWS3xvuXO0FTacpbJJ13Y3YjZU7+mtoWtTBE/qA/WixGjk1zijVbG29XmGCQJFTvfiSdz1b5GNTqImIVh9JIJ58nBv70ES8A5tfESx8HNCZyG28omVws7eiEIRlIWG5/otz+wCrHSU0nmMEYZSw+QoTI7Cnglh72RCyCCRqgvCzn+p94S18+QLv6a+/xgi+8FuY+tYTDXmi+zecuYi3Q9+Dku3In5Y/RcfopUyhQDtoLzXMJxpRcmuyCvwoMkjbPHeP68s5ZYf3RY+agqLbcO5QmiWISYcEkgSRz1NGasLe6dh31SN8VHD8LBjZFjQAO220upYGmuBudWS20uGRsvSKXOC71kJW+Y6Cb9ywtWO8GwauFDAxa7ikngI4viCRP+LP5NWboPXO4Y3G5aXx2G30T5l64v2hQkRohBmr1Ge/DnJ4RPI9Imqs2O3/ZAtXeCDTy7w3odntt/VVxQJBVl7mXp7CaPte66tTe6vfaZznZYttL2IqsXVJmJs3s4iWOHW7BJ//+pvOfLkAQ7sm95ZSjk4wsrHFKunwOWRtLODg3qcZlb25wJeAyEoGoSiUMrC4zQW4UkqpIkhM4JNIiF3o/v4l+GlChoMoZinXHqHbPQr6NjRHfWIQtGhc/Y9inPvgqu8fyVs4ZqNSjZqLN1aytrIEJ16RjCC8ewIGFAw8Zzv1lKWgF1tw3C3RIISTDVD22oM8gaCe5i7SfOD18j2H8PufgKRwKPwPh4umkpC5Akt0ln6JX7lNGnpEGtwPlTGQjs32niv3Jxz/Ppkybtn4ea8pZsnqCZAZO+P1GH3hOPAdMHRA4Ej+w3HngzsG7fUYvthR6swGgXprpEv/IZ017dJ02mEbFuvVgOoVyg6FJfeh5un0VIR20vazOdGcVMlZz54GoXnfDPQyFNSVYLPqnHc4wQIi2K43HJc7qSVJJtD1GKtZ3QUjh9KeOm5lKePCIf3ZOyeFMZGLWkKY/UUgtJsO7peWG0WLK5mzNyGM5cDpz4uuDEHq03Fh4REhG4hnHEpFzTgsQSJRInoXFSx6fXRw2kZEj5pwNW2Z2zCU7sf9NB4xIE3AkWbcOEU6dVLZBNP4ZMIRUm2c/0oLK40+O27p1hqdDDWboOe6IYuXPCknSWGuvOkoRMnFwO+Pd4mWK9k3agNrtbg04l79HcGGHuM4L3lrVOf8k8/Pc+e6QmyNN0hibHiynnKpd9g28t9uNLO1eGX2PHT2AUsCsdq2zG75Lg202VmoWS1GegWHpHA0JAwOpyxbzLj4L4hDu9N2TVqqdkvmho9vmHRpq8hDOIDYeU83ckPGB49iMjOWEOoEpZmyD96i7CyAkbj2H4LQ430IIc2JR8aopsNYXzFY5Be3NHt3FiYSrZRxdLJIvTHlIFh70l9hNsOct+Esk3nzDt0n32Z0bG9SJo90uTzoZJjjyDe4TsXcCvvIGVREaA2enRvb+UZBKyJkj0mxFG3ESidcnne8w9v5vzmQ8PMahJ5PF43AMeVTi4srlrOXhNGzsD+3Z7njpY8d8hwaDph77QwOWYYSqWP8+1BP3dCqFEr4BTfvkl36Q3s0AuI3RsHLZoRzGD1p0VBNeDVw+oN/NUPkE4Tg0FDDx1wH7c5VQKG2SLhVlcqgxxhU8KCiQvEOwPiQCCxyvSk4YVjwtefT3jheI3jR1P2Tws1G0l4Rgw+jwVVYmB42GIywWuG8ULphFu3PedeSvn0iuP9czkfXQisrgDOERA6WkPEYzXKlEV5rsfFPcaVeKNtuF4GXnyAbalK1OLpAWNXlyjOvoU99iJaO3Bfe+ot3dAo3nlOn7vEybMXKH10amKATpARVxsQm0Aosd0Vat0lEt8hmHXC7kCPgEo/W1RJiybaWaRLQrDDcVPJtjwqVB1LSyu89cFZXn7hOfbsHq0kBZNtuKYAJYTEE7TArZyhvXKFpJri6A4j3/WuR9QiAUqv3F4quH674NrtnDNXmpy7VjC32KXR8pSh0k2PYEFSaxkfTtmzC44/mXH80DBH9mc8sTfj4O4hRmqGxMQUNMZQg5pAwEWojlp0Wycy0d3MqBCKBmHpE+qT38IN7cP6CkKShLiWBriGNETonric7uWPyW9ewgeJHeOo47iZi6AqiwI9WF6RRIxxeyhDJUqnRZjgDli/siH3UQFjKTKhWS/JfBGvVQc5dY/garc2R/fMewwd+QbZnv2P9C8lDxeQPYQV3Oqb+PatSESqPrXZCR3jKst1vupHVmD0tFRW88CvTgV+8a5luZ1AMJgQCH3i3fpBqJWhw2pbWL1huXzL83pd2b0Ljh0M/OBF5bnDhvFRQ82sc6Z2QqgNVEQZp3RX36U29k+w2XTUkqTygxwggFRxBKPgHMWljymvnSUJDiPyAPdL+9VzABYKw1IZn1XYrFJEFQ0eTNSFHh0OfPM54Z//0zq/99WEA5OG4cySWENCJIV5F0XTxXoQH70FgFBUnQ+FmoUj+w0H9lp+75sJfzif8vpJx6tvFnx8ztFoKkZyDBrlyDZCKfRx14Cn6ZSlEtRphNV8YSIgffdFENR7ivO/JXnx25iJ3aRJsi3Jce+KV9ZavPH2h9xemI+am4E7Jjhbf2YLhDRqUIQ1ap0F0rIdz8TtyiZCTy1FEPVk3UVUDN36IUKSIbgBVzRx/YooVg2nzlzg9IUrfG/XV8iSqkoe6PUoXj2WBFVD6C5RLL5DKNdQs0HJYQflx1rxFozzLDU9b51d45X3Vzh/KWepFeiUHu96B42pcMehf/89nuWOY6WlXLrZ5bVai+Fhw5N7hvjui8N866URnpgaoj6UkCaBxFYEP58gpueStn1YDKm019UrKopvnKVcOY3dM03QGiKxUztIGHIk6RegCcXaEo1P36ezski6QWd8cwuk6JBqNYIJnbF0shrtLMPZqEgRzA5TIZE7p+llYugMpeRlwlDXbVA4G0QUimZbrlSa5z8k+8rHmKlpUvvwOc9DJcdGBd+ZxS9/DGVUENhxLuhVlmsrhwwxihFlfkn56Jyw0gKREotFgq1+8N6h3qgizuMVVkrLaitwfd5z8XrGt094vvuS46knM4ZqkPQKSdlmbHLv4wTBrc3iWu+RTH4dmN6Ga1PAUapgWqvohY+xy0tRN/GBs8C48YIqq4WyWj6+880da1oUxFE4GB+BH3wH/sMfjfC154cYq3sSQCUQ1OMlYFKB3KLOR1k4Hzu+1gjGhWh8YBNCUFBPzVqSMeWFkZQnp0Y5sa/LX/50iV++5ejmUetq0xECCiWGRuHIA9StPlR4QQyyeht/6T2SIy+ju54YPOmtUqcIKly7tcDp81dwpSNJMnwYtM1v7Ijg2tjuEmm5itWoWrJTXonrQr5MkU0SbErou73JgMKu9FnzEpTF1WVOnrvASy8+zfRofeA4ce0HcQHnCWuXcWunSUxBCIJ6hzV2RyUZJhicVy7MdviH3zZ45YMVbs07vAdrDN5VUAuznpRthBdJT1saQAx5GeiuKYurbc7ONHn10zpP7a1zZF/KC08OcfxwnfExQ00EK5ai6kBv1y2JwzON9DMx4OYolj5gePyrSG0/arTfMR1UPIp1iGKcJ9y+hL91EesLvPZo4JtbpAdRgihJADXR4KNdy6Kko8qOp1j2iKNlmtEc8mRli8QNrsfdK+2EBBrzlJdOEZ75BmRDW5scey3xjY8oWzd60+gdVHjH8aaYqDLR6XhWG4HltpI7y8lzCbcWfHShCIFgPGIVwuen92oEDRbEI9YTNNDtWs7PCEsN5eKM5+kTXV48kfDcwYSpmvSrP9mmldlrZokqNVfiVj7GT18lHZli8JpuUTA800Bx4zTltdNoUTwciUArzQpR2ljaMV3dpBChhCCIZBzcr/zJH6T8z380zPHDNbI0Lm4vgtdAO4dmW2h1lNXVgmYr0OwI7W5ADIwMG0YyZXQ0YXzUMzIsjNSFEbuukDEx7vjB1yyTI2Psnmrzs9dhdj72fPrM8k3oZolAiaVdCu5RAD9ioAiUl86QPnsOJvYC2YAPSo+IpdUp+O27HzIzv1J9wwNJdYQPMORql6xYodZZQ8VHfPa2H0OyoeOUIt6R5fNRHzmbGOw4s4JP9aT12p2cj86e4+bMN5k+/tQ2dFEEJEGtg3IF1ziJ7S7jgyUYhzXSC5Tbf3JpnHI2Wo63zzT5ydsN3vyoRV7mqDeYkEYNW3Hr8JV7rn3tdWhATIwqWiIYmmuWjz8p+ORMzkimHH9iiGeOjXHieI0fPDfBE1PlIBt8n98IcUCiBIXUp4TWaVznCll9kiAJQsJgh/QGLzXELdM5+z66OIcJDmciUV+UihS5SQWSKolWDqiJsFaLzna+Z8/8SOtVNxRNW3/iJwqYhNZQRj3vMhru0j7e6v0k8f18qZRXLhDmrsLYVGxwbFZyrJSIJtEmWoVQ3sCvvoHPl6DS0tverdSrVGJFKR7ybmCuEfj4XMm5K8qtFUNXRsiLUZr5ChocSEbchQ8y2K+IGxV+WarEc37NMtdIeP9C4P2nlB98pcsPnkt5Yo8hyQxiosTKQBU8ZIOtIoJRxa3doFg+hdRPkCSj1bcGyGoPBvI1Omffxi3ejKTNB94i0u8AqYNKEnkTkgoD+MrgxTI9lfBv/zjhf/nXNY7vEwoEr0LhlKWGMDvv+fRyzplzcPGq4/ZqQScH5yzdIn6WWiYkSclwTdgzZTh2KOGFpw1fOTHEod0JY8NKVnMkdeGl51LGJ4dJ0i4/+lnBYqPCAWla6dU+Jo5VDKKOIiiOOC6Vh/vraKn42ZsUlz7CHvsGkmTQF9TbWtFGVcUBFs/c3BxvvPcxeVEiJhImMQMJsX3r0Wj00SHrNqi5TkWi1Kjnue0Jcm+bJQiBoXw2hXJ+AAAgAElEQVQVtTW6yUhUWwlUHTfZ2lhU4dWDBoxNCCFw5eosn3x6gWefPEhmssFSUhQIgZIC7dzEN85C8AS1GBWMMfHebPcBFoQQlLXC85N3Gvy//zjPlZkcK2DUxFBlo30DEjXOP2/ZST9mBpQSFKymUaoRRcUjQKuE96+0efdCh11jKRd+kPO//fEu9uzN+kYSxhhCCI+gz/14D01MtK6PAhAG7S7hG2fw4yfQZAyrdqBjo0CIpjszl2l8+g6u3ewn5yFUZlCbuLAN0WehNNBJMzq1Gs5skHV82L5QFSqtxlXhRTBb/EB79HqVhGZ9mMS1qBcFagJeLWaL29+hZysdoDt7hc7590gOP42tTVQFxoPp9if3O6Q2NMuhdY2idQVRX403tvfVE0cnRNbm7HLgo0s5H54PfHIxYWHFEjRw7PAYX336KOIucL67GDuRFbZY7lPS9yo1rW54z/3XEEfyZbCcuQIrq4Gbc55vv6i8eBSmxwzGbFfMlb6ms4Q1XPMkQ+6PIBnbDkVY/PJN/NxV6HYf2qyglwbFQ0E3zEsf5xCvlJdVGBsx/LPfE/7k91OO7onKFWVZcOO2cPFWyfunHafOeW7MdFhuCO2O4Erp60/e6VMVx7RXbimfXCz4zfuBQwfha88mfO3ZhGcPBfbtTqmlwtF9hj/9o2FWGsJPX+vS6VZYMr8Jg02NguxGtE80ffB7VjGwBUzexc1dJ6wtwfB43AWyYY1t2QIWFENeFJw9f4Ubc/OVpJHZWDJtedIZTS5A1JEUbYzLY3eUHSDrePcFSIinAYotO5iyhU/H+xa8A8P8ielbnrdaOR9+dIY/+N632J9lg72OKtHwBMq1i2i+jCJYE7X6VXcAbrOSp11e8fz0wwV++Ms1bt0uSYWIvd0QQ6W/r+8fPntqN3GKGL3R4l/qWZJDKgKJ0u44fvr6IuNZ4N//4V72TaUQwrqz6oA762oCooKV2AH0QTBrV0m6K8joBIMGFogC3RadCx/jF25VeUBPP55Nxwr1/s1oz5yhNokyoI/Yj+jpo+sGOstW30EvUbrVAmVSo5sWDLlynXegbGlzoxedrUDIm3Sun2VodR6zZ2zD/rn/HUge5NsSLKqrFGunKLvzGKkcurYZAKPV4k2AW0vKP77h+dUpmF1M6PohEOXgdJ3//ve/zldOHKRuHDdnl2nlJZvijqEg1Qa+sSgsrMLpa8qffK/kD7+RMjW6/TqaGhxl+wKhdQWbHkITO1hajOviLp+G2WtICI/kVLMxaWITEkepCocE5cUT8Kd/PM5zhyARYSVXPvioyy9/A++cdlydV7pdJXhbqXwo5h7SXRt/G8pAqxTWGsK12ZwPzwQO7nZ853nPv/ie8OILNaZHhOePKP/uj4e5cavkg9NCEF8dXvbxmMgaE7tEDDb2nB6h6jRoKAkzF9C5S7D7iapzG6ciW53YJMBCo8UHn5yl1eogZrBzKiEQqgmL8R2SYgUTulXvXIEdhv0L62eOdS3SInaQNcni9CYM/oKd93xy9hLXb91m39SuwV6AKCKBpGjTaZ7Fl80KE71zgIACtArHq++v8R//dpHbzYCtJEX7x+sm3LIQKvOuz8RegxVhre35+7eWOTA9zH/3/UmyzIDuDNKXKrjWDULzKunIYbCVUs2AXkaFYm2ZzoWTaKu95cD5Xvc/T2t0aulj832jRoHBVTK7RjV6Dmzlx6i2WKgUSfNaSlkmpGUxkOKm19QVEbzzdG5cZXTuKrXpIw91jnzxKqtk2vCg3WV86xQmdCuXOd12gffeGb3S9vzqVMGvTnpu3E5xPsUGZTRNeenYUb797FMc2DXBs8dPsGdqHNGwSTaP0d7YaImoUpQp12YMP3vX8cGVkrzYAYE4CKa7RFj7kODXCIMMbChlp4m7dh67shCTqse45WbDM3+gqCCf/f8ewVukZHLK8/3vGF58WqmlKYtN5Re/7fB//FXO376ac/ZqQbeVYzRKtwW1KMlnN7fc9UWKaoLBYAK0m23OXy344a9K/s8ftvjluwXzazFJf/4YfPubhtHRCPEQ8esSQXdc/8OxyK0I1phKPeMR7EKDEtTBygzFrYuEbrsa1w4m09NQMjO/zKeXrm40NRxstilxEmB8h9SvYbXsE892GilGpNJDFbA+JykbmFDh+0UGD62tICnLjQ5nzl6mKMvBJ1sK2p6D9g0kFDsCX3z39V1dKPjphysstCExoUqMleD9pj0HVLA2IU2TO3wIVMDhUTzzK443TjeYX+li7Q6y/TYBU64g7SuIy/Eqgy1v1FPcnoG5yxj8lsMkrSpBhHZWw5ukMth4xAS18hRXEUYndzEyMb7+XPXORHaT69IqggrOGrpZRmmTCNnRR8VNP0wslEplJBLltbFIefUCIe/iqTwXHjs5rjA1Ho9vniWsfQo+RMcWZPs1fRXWOoFXTub8/VuBGwsWDQFDIJGcJ/fV+f1vHWdycoisFjhxeIJvv3ScsdGRfmX+eA+hV0haLBlJ1fG7eCvh529artyKto9aKRLIoINzNbbTootvvI+Ws1s/kI4mb6hXvPe429fwN86gvny0vViNhY1RMuklx5+fKEplU23QSmIvAK4iI0aNXAWS1PLC8ZTf/9oQw1ngzLU2//ePVvnf/7zFW6cCq53YORGpyF+iYBzBlBHw/5kuVRUVRAnGEUwRmccoqI1rtSu8dark//rPDf7sxw0uzQbqNcN3XxriqSOmZzJWJcOC4KOjNKFKmvXBzC8EvBpGjSN96GiufViOUcF2O4SLJ8lXZ3DO4INH1W/50s0Lz+mzl7k1t4Sxg2Y3SDQGUgfqSYo2iSv6+EvZqcYRlcSToGRlm6TsQkjWA8FAk/UYHEvnOPXJGRaWVwZ611Rj59o1LqDFYk+Ta0d0QrWq9tqF492P25y/3kGkwIR1J0qx5rHlUfuQL2N56uAevvPVpxmpD0X9534WExDJcKVw9nqbSzMFhIrcsQOWuVUIIce3LuC6SyiDnXz6vE1++TTd1ciz2sqaIcJghHaW0M0SxJiHPjF7+06CwwSPMSkTu/ez/9iL7DnyPCNjuzAasIQKG7wFz/muWOOt0MlSFBN5GludHG/8EhDXpXv1DHljjvAQE5EvTI57rntKC986g+Zr/Tc3O6Cw9CgXb5b88h3P9ZmU4CyK4FWxScLRg/t46uA+kATBsGd8hO++9AxHn9iNlcfXc1S0UuAVApH8EYCiNFy8rpy7WdJ1vYeh2xabNQR85yahfQlCOYADQOMB4AuYvwqLM5U7/KN1jkUEIzBsoWa+gBBW7YbeodLDPlosqThspSGJOIaylBdODHHskGVxRfhvr3f5q38sOHepIJRKJLyaKMUeAhpi0ijB3Klt29fH9pUVoCJBEE2iMooawFZ5s1AWhk8vBv7qHwt+8sYarXbg2P6M545ZUhvQkKG++ijGkFlPKo7gBQn2/siSKkm3wEjiSey6YcpDVVVGkF7XefYqrM7GzzeQjpLQ7nguX7tFUZbIwNVfJB7C6jGuQ1p2KiMa2ZSieovq4L59eDyEPEnZAe+3ZUSuVQGrAtduznBzbhFfYVkH4W4Ypx9NXOsKoexEXfId0e+vyOMirLYC56+06bQFUdt3EutNJx5XAEs1nlDWwAsnDvHPv/Mih/ZNbXDaFURNpTICa2ueG7dzQlCChh1RTIjG+1C0ZwmdW5gB7L6N61M7Dcrbl/Cl2/LboYAzhjxLcNb0uTYP88ZBFR9CtA8Xy9D4BHsPHaU+sZeRyX1MHzxMbWSMYCq34y2J57KeJ2pst+SJxRlb8Ulky+9jr0gIGs/v7vx1/MJNrPoHFu0yX/QGgUp3sLxN3vwU9VvLUn/47hJ8ek25dLMGwVQe2kJQYWJ0mOePHWJydDh2uoPB2oQjT+zhey8/w8E941VXbgsOBRVWW54LNxztZs+uYnvuXajeNhSruPYZJHS2fIdbXCxdOi383BV8u4mG+9Zi9+5iVhIwKsJwotSte6DP3AvuAhzMAk8OBxJrKqy5kmWOQ/sMpRF+/naHn/8G5ubrZJL0O6fCRv3WGDTN3UxX7TeMsdbev9sjgkjCrQXDj3/p+c07bRB4+ghYCWDSqsvtERIO1w3PjAXqJgHM/XNTjUVB3SpjmWIfYw7Y/9ytVXT2KuLaWMyWSwKqCvMra1y/OUPwYRs6tRWyWMGWDYzvbrv750N3oBCMb5G4ZrXmBj21UtCAiGV5tcWlqzPkeXnHftriyIeWs7jOpcpUwuyYp2Oqa5lfLrl6u4sLodLL1S1YCcL0+BAvHHuCpw/t4fe+cowstXcpBcc4WZaB+cWcsi8Vt/1rXk0kGIa8gWufRzQfSGFVdVfwqwuUS7MYDQTZ+kjkraVIM3oq5T0hgAd/4hIdBrGY4VEm9j3B8MQurBFsYpnYc4DJw8dJxqbApoN5wiIEm+CSJParBxyKgoJfXsTdvEwouw+cnJsv3FY2LhDXncV3r+84yFar7bk8J6zmFqS7fojajAN7pnjm8AFGs9jKVzV4p0yO1fij777E97/xFYaHMjbzSUnPZzcIhU+5Nid02mH9wBp0JS7rpEVfdCg6FxHf3PLEwqiDRPHNJdzsZaTsrBcH+rD/mvbNBYYTZdj4L3xmKvT95sVYdg8L//KA5+nRdbc9YzLGdynTo8LpM47/9OM1zpzPUS0JZoNYWdWFTpLeiOvzG9ZpljE0VI8SUZ9fTFf2oEoIno/OKn/244JL15WD04bhTHDaRUwFXfBwKHP8qz2eI6Meb0MkU+j9A+RIIoyngn0EvarYgVyXMfN5m+LKp7jWMqKK160nVNyau83c/Pz2TVsqDEXi1pCQb3k8l038ud61WtfButb6Qx3gqdTjvqkInSJw8fI1Wq324J5f8LjWTXx+vT8+Djug5y+VDKHznpn5grmVEBOgUEk4buI1RiNJ4eXnj/PS00eYHkn57lePcfTg/lgs6J3wMK/CypqjnYdHHfJt+qYIBFQFEwqK9gW0HNwaCiGQL9yAlXmsxkneVttZOGspkpgcP4qppACJSVCTMDa9l/G9Bwm2Fqeoqmg2yq4Dxzl07FlGJyaRPmRt60ZiqtHpr0ySqkgd8MoyBpt3KK+epWyuouExk+N4pxWvOdK5ivHtnTdOFMEkArYaeUcRYgyeJ/dPMjVWqzAmUdpKJJBIYGKszndffoYXjh8iSxKMukiCeFwWrIIRE20uReiUllKVPg9tG7pPwfQOKiF05uKXOjR4NOjmb3aFgCUoaGsNVudBlSiSFh5+tKmxQLMExgyMJhY1ldalqfDEd3yGgFTt8kQ83xgpOD5U0Oj6aqzrUQ2M1oV2XvDK2x0uX08rbHPZp/z3BPyyVKkPpYiaeMjeK79XyJKE6bEhavcYR4hAmsBwPcUYj2oJIWCN58INyxsnc8rSMzGexnvkwYglmIL5UjmUKd+ayKnZbgWRkPskdspkGhjryXjpI0e1eP0hkM/PEhrzoH7LOrmqSggBFzy3ZmdpdbrxQNJNEbh+yEUXMHRJSh8LkkeqMCAxETsqn9vXi/+liSUVU8nVSR9KcucIvPrpB2omCaIBCRE3rQOO3r14LApePTMLyyytrhG8A3XruNdNXj/qFcWjoYtvz+BCgdr157Hd51UvgAQJLDQCne66/smjSgSua3AYolxblXBj2L1rjG9/5SlGMsEFZXpigq89+xTDaQ8etuFLwXkihAtT2UlvZ9sYjEZSrLcBigW0OxPTfg2o97DJFHOtTD1CCGiRUy7coMjbqDFVY2Nzz3CjPeOwgBfIU0uwgpjQL9AfJpkU9WhwJPVxRif3kdbqiEh/RaBgEsvY1B72PvkMQ5P7sWlGj0kRt+X6ufG4n7eH+/VWcImNk+wBb0SjgrFKsXKbsLYcDTEeOznWgIYO2r6Az/MdlxyP1IV9U5AZQ9AUTxQ5r1k4enAP46NDERxtFEwkaAWNMIenD+/jX37vqzx39ADG2NglfGyMF+CrjpsGxIT+AbFdyfHGtR26twndK6jmFSa4h5l+0ITh/t8XgaAp+EBYnEEbq3HU0yesPUqMjBJHuxJhPJFIGNH+7r3zQ/b+WITxWuA748KwTZgrk+gyVLXSy9zw6VXH2x+X5F2qTolF1CDVPVFguGYZG0mrsbT2uSp3d7dTK+yZqDE5Xo/uW3e9hmsp+3ePU8tM1V2O5I52J/DWhwUXrrno3CUpSoKKoFoyVxi63vLticDhYVsF6XDfbvt06thl+dzE7H5nuMh6iSAaoLGILs6gvtj0A6mX2PR+bXcLrt2YodPNo+byNhzKEBCfY8vwSGSunqLFyPAwaZJ8Tmt6/eCbGB9ldKRe6W+zThypSKhZlmKtJYSoSnE/k5gI71IklJjgN6AAB3QLqxGOlUhAW1haZX5phbIsUB/YElpjD8+sjuCahM5NfAg4QjwGtltWkw36yxpYbXnKIqxjwvUhoXc9t7wq8e/juatf67WMb331GZ49eoDECmpSarUaLz/3FAemxiu4jdyx3wOKVTCYHeFlYBGEgNNA6Dbw+Q00uOqz3h2M9fHPsOrfDSEQOk384ixlGblEW9Nc7ZH8FG8NeZJUZU2cJDx09BZBjDA+tYfh8cl17Lr0OFKRGxNUGJnay/6nnmff0aepT0yRpClGQsXVkRhnHjOX7TWZgghlYvGGwRfqQXAoRWuFsDoPwT3Q3/tiQp4EjGvgujchFDutb0wtE47sDuwZLcHYWOmKMD0+zMG9k9Rq6WeS16AC3jGUwLdfOMK//YNv8OQTe7ESMLjHX+oiGEkwKLXEY630TRW242V8RSISIRRNfH4RQhusecjjUh74+9YolDnh9mUoOo93Jkt0vBERxjNhVxIqje1QaRYn91jSURLpQBZ4fthSBsOq94gXej62y6uWdz9OuHGjcsrSe3eE67UhxodrGBPiVGJdouSubFKZGqtzYGqU5B67ylrLE5MZU2P1vgsUlQ7j9Vvw7seGlUboC/drUAiGjhdWnHC0Ds/VJXaW5YuT00Qse9LARFqhCR9XK1OEpLuKzt+EMsfI1ggCigjWWhprLW7MLlC4yulxWyrKOMq1odsndzzUvqsOpeHhYRKb3Pf4mBgfYdeuYSBUudK6E5oRw66JEYbqCT1B4/tDz02kFYZYzAzez1T791JVWW2sMbe4Sum3rkkg9CSdhZAv49tzVCIvoFtPBLrfK4QqLRCDc9BuF/ig1QqvjEkeyuadfge+l2BFGJolAY4emOD7X3+WXWMjcT1IPNOfemKSo4d2Y+5KVMTAUM1ibEWm3AGY4x4a2wSDFh3K9gwaHEEqvfVgHumM+tzvS+WJayA0FymWbmNKhwTdknWrrPOUnE0r6IE81v0y9WEm9uwhqw/1ibEbY6yxBkyEDNbHxpg4eJzpQycYnpgGm1ZKSes502Z4dlgFbwRvB7+moqGOoK0V/NIM4h5MlMDc78n58iaaL0YBlR3GSRGEo3sNTx/Ko54dGapwcN8EuydGuPsM71UxSSKkNjA2ZPjuS8f4k++/yJF901iTPmCF+UUXZUENqYGJUUuaRutpdJsme6IRWmEM1gd8+zq+bK4Hik1HVWj0pfJddOkmpsgf+1+sbh9DBMaTQC3pJUzy2a4xBpXoznMshbE0Z6H0eG9iw9VEuaTl1YJz13LW8h7hS+9YV5FSDkNDNcbrQ9FtTiqXNr3HSlRl93iNJ3aP0odxbYBZW4EnJhL2T432K/I4elbWOgWnL3k6nQSlRI3rQ3Q8CWtOGDVwolYyIuG+BjaJCHszZWxTApEQRLBFC5Zm0bLAbJladnTnazSbLK40UUmqkXEY8J6pcOdaYkJZKYQ8XO9VURJrGB6uY8wX2JVWdV69nrFn9657asyKESYnx5iYGI6umw/UYBTQgAl55AAMmpBWwX+C94hAnufMzi/j1fTVezY/ywggEbIRimW8W6YmNpJIt+AtH7pRseEyjSYEf7fj3UMTMsiyDGss3vm+pKQ6GB2q8c0XjnF83wTqPb6aRgiOsSHh6MHdDNWzO6/PCCMjKWkmyA64X73kDFESsVh1cfrpKq8FNl+FJVQa8yLgmwvo6jIJPZ3wzX+/XvIqGEpjKa19dF1jIvF0dHI36fAontiYu7tA88736X4iBmMTsuFxxvY+yfD0YWr1YTDRCt6KYB9TLqjHeypN/Br8Iornflp0ccu3CWXxwPv1C4O2b90kdJdwqjuOkCcKe6cTXjqWMFELoBaD8uS+KXZP7frMHE16FpqVFIdgGB3J+MN/8iL/6//w+3ztmYNkie1jZnuVeG/ka3pVrFQagSbpyyf147MqPnhMqhzZYxitxwUa0G2JNtJ/yLEr6Tu30WIlbhq7+cVwHMUZKLrka/P48nGl46I6gqBYEXZngcxqvyOq94A4qBpShYPDMJTAcilRPN5UOsgquFxpNh3OuT5kIlZTPg4XKwjO2JAwNZphbYIJHsVVJh3VFwHROLbeVbcc3jvG0FBKEF917OLPiwgHdo3x5O51lZRevO2WsLjqcGURO8omqap3waMs+5ggHaorE+n9M6NhE9hXU2xSYfMeN3wraFniGkv4oojTl03vnkSVDQ2BhaUGi8sN0ChDVvVyBhpNBY8p47PTOHLCSFQaiNjfO678M18alNpQyq7JYWyysSvYW2val90TUYZqGQcP7KaWJX1r854LqSCM1YfYMzlOYkwcjYre6Tsj9PHootFMIOqd+jj12w5mYx9iKxSlY+b2PN0iBzVRTWbTm/3xqQQNhGIFE/J4BkiP7LbN55VIpEloWY3LTTXiDn05tQeJh9GIyDI2PMTTRw8xMjKMsUl/2mAT+NZLJ/j9bz7HyEgWCy7Tw7EnGGM4fmQf02OjEEKfLJ5aYXoioZ5GTX4D2y5/F09O6et3a76Kuibg/z/m3uvJsiNJ8/t5xBFX5E0tSmRJAAUU0ABaAI1Gq+npmR61s7PD3TXSbJbLNb6QZvyrxoxPfCCND6TRdjm0Hbnb040ZNBoaKABVKF1ZqTOvOifC+RBxRRaqsjIr1U0zyJuVeUSEh/vnn3/fE4CKg+cUxKSyXFumaG5GNB6O4gg3/RkCwSX22WQ3Y2wxgM1yajOnySrVqKy087wwIhgTJUr78SMocZBVmTp9nrnzLzGxcI6kWsdJqOZEezKMz1YUIoIag4rFHOea6hWFXil9SbG+hO809/Qik92DDVBsoK6NF8WqQUfJflMgrwhXLucszntWbkCeGGYnx6n2lSj0mwEbglOKgvFKrVLh9SuLlJ0mruxw7dYqWx3pJ5Q9qqp3oV0/NVlFO571TkkpgxfQ+0YxjrFqweKspZINjtGTEHMbHuhRwJdbiNsIaKmYQ9/t2jsRW1touzXwhT8IEu1DImBFmMmUivVsSChudgggSTRaUUtFPONpQJC7JfRMcQweFSHNErLMkiYWM0z7Q+NAZYb6gvnJMeamGkw16nRTT2mymBz1hmhCATVWr1JLM6YaDc5OT4JbQ72PJpNCo5rTGGuwmDRYmHzAZqsTfleUTTIYnBdaRUnXu3CoO8H7kqYLv2M6M4wl7Cr6JAITqWMuh5BmHdwq1EQupHaa0G0dOtFBYkli8XgvrK5v0e50hlip9vhji3qM93gTGOgiIaR715vkf3KI1wh55WlGPa8GHrvaHfR4ja1+YmKSiGV2coJaNWO7tY1ToqKAYLxQyXIqWYM0uUO3041UKbMDYhO0D25JTEqD5r6L+/AEWprxdzrvWd/cpNsJKLYeCTXHYvDB2bHYBO92KATJCHCO6a0la0grMenbc4zUoYTD89y5BV54/hJLK+v9VrgVz4Wzc/z4zW9xemYiwjkExSZAxeK9ZXKixsL0OLfvLfcLlTwVZqcsYPHeY+TYezaPWT991mp4RmUT3Fak1aWH/lJ7nH/1jmJzFV8c7ayVRJddNXF4fp8nsiCBhhf1hKvVOtX6JEZsXPs7T4tHR/CH0XeJa1OrDeppikkSNlaWKNpbaOkwxvQTZNmHkUavY65iAv2VY7Rxl15REONhexu6bfaiVJjs3mMocG4Fr0VE6UYLOtY4ZHH+bJ0Xn7dcu7/FWKXC9FSD1BA29y6XHGR1DCIl1dTw2gtnqCbKOx/f5N0v7nNnZTsgixAWBoIXw+nZGS5MT/DBl19xZ2kbtULpJaA94jDWszjnWJxPMWanC/CJf7kW6tcRuqBVVI6gjtMSXV3GNpsH57vGbeRFSMQzlwpj1nNPLFYJ6K0O2qYigholz5SJRLDwCGonjI01+M5z83zrwjSzk42B/JoMOr5OggTg/FSVsWrOlcU51BeUYnuOvP39XXQ7iCrPzeaM1Wr8xe+8zHazHYNIGAbI04SXzoxRYpmqv0a7W/ZbalYLBMv6Nnx08z6f3LzPg40OPqKH4j0JwmwujCfKbiFUCEoVs5nBiO6axO09UVRKEUx7E20+BH3+0Bdzr0zresfK+gZFt8swPnsiQ3k6WIESOaFeS9LEBuktjbzgodchPTdMhHqlSqNeI7UWG9Eogf7h0ivGAuqjTI+PMzFWYXllDRsF8xFFLFhrODM3x1i1Rrtb4sTv1C72QdHFx06Leg1NlxGJ1d57Njc2aTaDZrQ5CiZ5f7071G2GzsOofRmHF4sks4yNd0nsCkVZ9rtguycdMdHRgkuLs/zp772NGss//Pq9uFc8Z2Ya/PFP3+DqpTOx6zM4fSR2KfCG8WqdxVPTvP/5DdqdUIw3xsaYnDxNU5RUWyRi4cTT40e2pdtGXTPyguUIaA6xnCgLivU1pCiONI3T4Q7LI/5Se/0JRsGJ4MRSHZugWqv2z7wgDvD0RMpEZL6HNEuS0ZiaJa9U2NzYYHNtBddtYXGRcri/aSUPeCNhIE+O2bCzlweq4Jvb+HZzT6fKrsmxlB1cuYr35YFI4kdZFIimjGdn+fZLC/z644/IU8vs1ERAzPQpDyByC9PYydY84dUrFzh3apbT81c1f/4AACAASURBVF/z1+9+wfX7a7Q73VAxGRvcZ3zBj79zhTMLY/zVrz/j9v2VWLkboCTL4MVzGWdmDRYJC15HQ1bd+wLcWmi1SuXQr8gIeN/Grd7HbG+HRSkHCx+qiheDBWZToWGDJmeiUYlk+LsjZyZLHBMGEqPYNOkXN4mFH109zb//xWt86+wktUqF/iy/DHDKMERpKF2BIrz1wqkwHOgHFBuNg5bN7S267RalC1PUi9PziNgg5ZUY1Dl8lJDzKFcWTn1jIRufUPiUz+7N8x/fbfD/vPMV6xtdxDiyxGLxTNqSugEhfXwFEf91MoG53BLS8qhacEDOmFNF2lvo1sPQAj5kNLfXziyd5+HKCt2yILFprPhHAe8La2tyos6LL15iYmwsJKDD61sH2bGqZ3p6nAvnT2FNyXazE9fgzi5HWQZqz4Uzc0xO1Pnu6y8yvzAb7M/jjzZWuHhukrOnpnjrjassb6xHi/RB6aAKK2tb3Ly9xFa7GBrEORk61zeeonq2trdpNptB5xs95JZ9nMQnwXiPFpt4X47YmExA+bw0EPsSExMN8soNOhsF1pqnJhzB8c4zPzfFn//RT/npm1d554PPoxSpp17L+eH3XuVH377C2FDHcvgdeBUSTalnGWcXJkmThE5RItYwN3WKierLbBfLTHArqBaY0Xl6qoovm6hrho6b6KGrsPjY7fBFl+76KlJ2j7Y8NwPwR5/hXrRn2CIWm+bU6o2YEIeY7/cYfPvUUO09gwSxlrSeM14ZxyY5m8t3oL0Vh+T3GUIj7csZwQf13eMEjiMwYfDbW7jm5p5cQ3dNjr3bRDqroY2snHhy1+P0GiSgI7YOsojlKhfPTPDi+VWarRaTjUp8GE+vLJ13qPd4HzQe1StTYzV+8MoF6tUK//TJTb66s8TKVoettkc8bG5u0W1v872XLpBmNX7128/48u4K601HtxSmGhmXzwj13PXRyF5xcdLP0PsC11kjdQ4yB5oc/gUpFM111HU4cDdXBKOD4bV6Koxbh5UM1AZt4uGnqsH6OBeoWI81MJYEpp61wsXTE/zJG6d5cbGBSWCrKINRxnDBFRNfVaJ0GriyGwPZgGDeQwG7ztMufRiyKR2aKJ4C9Q7jLMaHb/YmQdUhzg8skUVwHvBdrFHOzY7x9ivnuPFgi3c+/RpjPDXrsRocIHOj3xTB0hhtfIkVy1QKNRtUPXqi6wcSzop8AO120fY2Xv3hnplRekoFyrJkdX1rCDM+mdNZUIxGR7fIxZocr/PWWy/zo7e+y9TEeJTUk0GCOvT3YEIT1tyFc6dDKii2/7mPWq1Ft0ur2SZBSZOE77z6It962UeNYt9Hj60Niic/ePMqpXcY9TvQFy+G1fUtfv1PH/LuR9fZ2OrQM0w2zkcf15OMPIai62i2u4Nu3lE4lKoPtvWuFagEI5QdCx5HDcdF0EVmJluM16tsbGzz2H6QDva6V8hSw+LCDH/ws7f5yZuvU0kE40qcQpZavnf1Ej/6zos0KklAzWWYk6v956PisCJMN+qM1TK2223SJOP8qSmq2QRlq0437SLZ/YAmjkiJIRB0u8uN0J3ExnmUQ81VQ9xvtdDWRqTjHd39e6UfY7zsX0y2p3uuCklaCTxhHSDAe+r271x02HgdrifpllQYm5zBaMnWiuI6rcFw6V72pAxHyOOeHol/16gg5Ap8txWKBw6QHKtuod3NvqsXI8DZUnqYfBX0KiRXKMpppseVN15Z5O7SBlPjlQjgGHarcTQinRgT6ewG1QIxlol6hTdePMOlU1N8cXeVD7+8x4df3WVpfYvVZskX91Z47twsP7x6lnOzk/zzZzd556MvufVwjYunZrh0NiNJH0CUhxuVGK1aUnZWw0izKNI735+atu/xcwU0oSxaqO8eSmpjB73qoAKShpEUFYn+2I9CkIbcQMUomTVMJCGI1CoZv/j+C3z7+QukNsd5jcFQ+MZAe49oHpToh+g5A4JW/4z3IBqme9UyUKIwYXt5M7AjDQWbHQSWXvFggxtUZpUXT9d4++pZPrt1m62Op5E4UmvwxlJLDVY8pZodAVJFEfGkxjJulVRctECWWJgdJDmO09pFgXY7GN3v2tjDqWcC89qVJVtbrXjoyQntHYmvvQjUCRO6Cd9+/SV+/tPvMzFeJzH26dEqPqe0+gRupCqlMZgyFOiIkiVClthQ+D1uL6RDcNNwkY9yen6St757ldXNDu9/doNgZKIYDQOmctxeKjuWkFCUnmanAwwZIx3yCaHqUe2iZQeOk9u4p8sTVMbwMoMhZW6qxuxkgzv3V2Ms8I+sk6g1rB4V5dzpOf7tH/6EH77xGpP1HFVHqQZjLK88v8i/+Ol3WJxr9IdYHwXHejMaXhxYw/REg+mJMR6sbDDZGOPFC3PkqeBdhY6ZJNVlEhkhaooEjXvvthF1wQRqh3LPwc8wo2EIWosOdLaDy+CRnsf9+heVAQi5d8tMiXPhSpqkwdBDZCARtx94daiIk14XTMLwniQZY1NziFg2Ht6mjPt4T/hF3IZhLvb4hR1UhjJ0V+C7nad6BTw1OUab+KKJkdCwGoXKUQFnDMgC+JfBz6AYMut4+fI5zs21mKzVMBIW+X4WRtCBDNWWNZZ6rtTn6ixMj3Hp1BRXzk7xzmc3+ereBjcfrLO13eLMVI0XFyeYGa9wdjrn/S/u8tziLBPVHOdbiF0dqdae8R5froF2QuVtesjAIWhEEpx+VD2mCC58HPLgTS7KVCpkxtFx0pM13oFweg91C/VESBAaomQGarWM716YYHysGitJGwY9dA+3LHt4NIdwFgswlnien6sxPzVB+8EqM1ZJxOPUM24MqVE6fmdQl8iBzcQznYbhNhULngPrEov6qPLh0LL7GBRaDr6zNUzUO+9obrdOOKd5RHdRlcnxOt959UVmpsfR0u1f/eGR79c+Yt77aI86j/r452cIwzSz05Ncee4cn3xxg7IcWKkzAvMiZVnQ7nSOtOAxYii1xGt3tBJjepK8NVTqOOMYbzQ4uzDNx1/cpOsUP8RFh/44OKKeswuT/Ks/+V1+8uYrjNWyMFisoZV+eXGen7/9Gi+dnwuarrGl/iji28t3TFQUatRrjNfreIXnzk5x/swcJlEcDuerOM2wdEbq/FIcTruoDBDO/Z5Ru34ugZbnywLttjF6tKCgPukc2VfyFwr4JE+xaXKgY+hxfzY6B2CSnNrkNN32NhvFMuoKUiJwNIK022HwKKjVhK6SL9p7YVU8BTl2TXzZmxo3Jx5seiZrXlNITiPZZLAmtg51yvzEGHONCilC6UHN3qoUGX6IROUJdUH2BCE3wuLcOHOTdS4sznP9zkOKTpvSg7cpeJiZqPL9Vy7x/OIZsiwjMyXdYokkWWOUNPCMerTYQGmjnse6uR0Quwn6qkUZLDgPeQUkeKbyoEbRwT/m2Qb6f80qNWuwKsznwpmsS3esSrUxHrsgElyQvAt8v5EBlwQVy0Q94dTUONvLy5xOFWs9rvSMGyUxuiOKKYHuo2KoGM9EqtjImVZxiB6GEQjgHN4Ve2pJ7f+ICMm965a02u2dNN4TexnaTzRmZyZZmJmCsoRYlKnZ+1H8OLBdBjvmEMoLg6iSJ4aF2QaNsSor69t8Q2vyRJPjkm6nE3Wr7aHHHY0IdUiOy5FLjsMZWsFIjVJgrJZz+dxp6rVP6G62eVRO1oinlmV868pFfvHj7/A733+FasVSFh3UBkWJS2em+dd/8CMWT01jjO+73A1k2HTneuy1270nTRPGG2NU8pxXXzjPdKOOj0mE1xrqsyDQPkLPUXE4Fzj1RzEH1UPqXdlFu12MBne3IwX8hjg1+gyRUwxghDTPsEn6DCDNzoW344+r9uOLQ9CkSm18ilazSdHywYp5j4X3Sa2iHhrvRVEX3uterjl55DF/E+1QdwLjhU8r7sZQmQ0jKc5jjEdsSBoMFu/8vlQYdoaPwdJwPgyCYYJqQCVPuXJunovzDdrdksRmOLWICe2Cap5wfr5KEVuyKhP0vO7DJPVJ8/4IJKeyiENVcgTpR9SRdh3UHX6/IQFqRqMSg9+5xmMFaxCq1pGbMPpzqmI4VzfcSRRv8oCYRx/oJEm+4SJ0sPL/4HmiU4u1GbXUcy5zzFcM1oRCppEqNrYSRXyghPSdsoTMCBNJUFcJdCjhoLlxKI0lxILSHdm+BsWpp1N2+4f4iYUZX4T1JeHea/UKWcXE3qDpI79Pryh47PcOxDDkUBZNENoPvctavUKtnrO6vg1eA09zBJBjr57ClQOg5VARp55iq4vazuXImVapAiZFJWhVV/KUS+dPMzM1wepGO3AiNcitqXomqilvvX6FP/+j3+GVywskEobMkzTB+xADzy5MMTc1ztZWM9r+MkRG0m8mShqlv4AkDZJuV86f4ltXzlPNM5SCUtNgRiQjRkvpAQEuShMeCekhDG4ZV6JlN/oTHOFCkoEcqPH6DLG6R/kzmMQGiqju/56f9F89akbQyY4lV32crLqK6zSDot4uTyiyliN1RLHen8CaIVIDo/NsWbCXkcLk8TjHYDfLiEm5AFhySq2gPkjT9LV1e7dseeYhbRkSI93hVBUDhbqCNElIk4ThYZweB9VHUwgNDFJUDWJ8f9uNQry23uMVEjn8yRjxUZ2DkqPg/BkJWg19GZ9HCVoq5BZmUk9uLCowlTqeq6csuQ6ddht0vC9x05d5G5GDVKLRb7NwdLslz9eVmSweCmKYSgO1RDUMfPXgSzUe8ZbUQNUGNQnjfd9d8GDJcZAhM+oQ9UdzXvZ4zZE/jcgJduoUq67P1cVD6cqoZR5ta/eA8uw2DCM9Hv0hPUvVAdfdOU9ZFpE3rRgth2YLTjA5RqPai/aLukO7JBVEDZ5g9SvqR+7kCghWgdBGJMeiLJ6a4fmLZ/ny67uhXhdDllgWpid467Xn+YOf/YDL505hTFQC73Eno42bjyYNQcavB0/ILoX7YDgptZaLp2aYb9RZmJ2IuusW4xPEbqIUI/YAw/o2fjg/Odx13dMfN74Mpk9ytGe2SACsRBWrz6BJr73nIBgzsJ5+BkW4J2MW/QAT47LNqdbqdDZX4nrUPbw6wXiP9T4WNscYzUWj2YrB697lCc3uCyW6e42Ey/rwW/QhaZddXIXkuK5l8M8ww6WP4M+yI/E5+afXt0A5HNP0J26yo5E3cSKURgL68lhhSE/des7nkApYMVSN8EKlRLpdHixvUpYOYy1iArXi0K7xkB6lEWV1q8XGWpsX6sp4GhDyVAzzFWE89aAlAfvfKbIr/aRSDu+ydGB4cjxLWE58rwyjvYqwsd5kc6sN2CD1NHKIGpFvCmtrTTa3Ov2orf2dLyf/TPEH79Q86acPXDZOYC5+L4mQAluobmI0cINnpxq8/e2XmRqrBs6xgZcvL/C//MUf8x/+7R9y5eIZEqtxlO6b9xPkBJ/tblNr+PbLl/nRmy+TmqGkQTzWbmLNiCXHQ3uyf8gftkPe4UbOPdyODkARF/56trU1iP37T4z3AUSoIkbIag0kDS581pinx6ZoQJv4k4xCOiTh9vTn/JSeROAX+lEKMr3RzsMM9dpfI4ewtXgkGfY7ELhROEQ1jq37vSyBZ3k9cTMc7u3GzoBX2qWncL0XZnZENInOeBerQhLpBlaVc7lnWru8f+02G9vNMAG+I9jKYV3igd/PdrfkxoMVJjqbXKmXpDbw4I33TCXKdOYDFVBsQFl1qJ06TEcYstQ96EuViFSJeaSjcqjJaPzZIxFudIdF8+rKJrduLQWXzEPdyYdzAFsjqIdWq+Dmrfu0W92BwtAomDdJQCt7evBy6IicHF21eqjJ8SaiWyRqMBrs7V994RxvfPtbVCsJb7/+PP/h3/w+b3/vKtMTdYwvoCgjUCyPD7jPumZEaGSGeuowKph+SeGwdoOUYrTKC33M65bD/xXKMbIfe6Fao/jGPveqDMV46Xst7Pca9mEL3Uu/kgomq+G99uk8T3uyEm2cjxs5/kYY2GNtvuuTDOR8HREZ+cEFizZxuhEwCFE8bsC6fmYqxQH2WUTW8BG6N+ApsLJ5svpJj3un0ay458p12JfmJSSoWBusIg8cZXoScYHv1PaepTZ0nQTR/x41RBTBkQLnc8epXLBmMAE+mxter7f54osbvHftAZ12B+tBrcGT4MU+m1ugHuAsjgNfseEMCEUBX97Z4Kub93ljrMW53CBYrIQiYNw6nq8qxqbYXhGiBqtBurDwsO0MHo+LmmvmoAoaElYOYiHJj+aM0IHjZWbtkFCEHr9lvSrGu6AzrAZF2W53eO+DT7l7bxn14Tp7f4kcP87t49rx6kEdgqP0JbfuL/PV13fx0YtWBawvMd6fLBqvQUkiTdNBPneIRZZEdMNqkOQUsYzaV1BsbGN1Cfw2TiwOmJms8ee/eIv/6b/7I/6H/+b3eO2li4gVChdMfGxiojnD4b8/L4pYEwezDaJClqySJRtB5UZHjLgtpq/CE9CdwyXPSM/8zaR4mx45rbTX5FMF66I2/b4KvAEd7TBAC93LN0T5W5tl9Edhd6FliA9QXFo6Esch5ATPVjY7FGMEscmeYs9TyowkmgiMRh3eg+eVbdTfRrQATSLv+BlRUD34NfV5PmIRjWmOaZHZhxjxUd/v5GcaexWxSBJbj8MsaD1g5jdAYI0okmZ4mxwSGh/0S1FlzSk32yEJlL5EmY9dVUtm4FsNCXJmJtyhx9KwwvfHC6bba/zf73zOR/fW6PjooEeJ8QWW3e3GnwpYyT7eQ2/a2hiQBKOKNXB7bZv//P4NWL7L25MFdWvAK5YgdTaRCC/VPEniUF/2B8R6UbblYKWrOC3w6iKd2hxCaPGoSdCkcsBNpLt8olgjVLN8J19Xjz/2iC+jhF0Y6izU8cEnn/NffvUeq+vbcTjFhECvx98T0r59noRpemNY3mjyzx9+zq37y0MH7xBX/KSBDTHkaX5ELzMGWI12pyYdtXm80NH1JcbdRfVLRLZBPMbAixdP82c//z4vXj5LYoM9uRCSEN/jFh/BeeBJcZqChAIrMRtUspukdpNRs44WQIxFk4x+5fdMZ9Ru51202E4rSJZHlPPooo+JybBXSJ0jcQWiPppQ7QXR7bmf9k+VA1/tXpaaMYEbv5eEPFAqPJWyJDlMGuO+CueYlyUGSfIYvw+QHIukGDH9JPuki8jhKVyjt7HlTYx2sGJwZTT92G/1dADa0nBb3nsPOJCSRNtkci8gxyMWXIK1QjAZ6HGkn7wl9pP5SVxQikiCqdSRJD14S1clMKTF0UL5tGO50QrT3iI9ZFoQtajkzFXgW1NQS0Lw9KqoNyRqOJcZfjpRcPPm1/xv//Ah//XaXe4tb9EtClItgsKISfbfNH+GfaGqJMYiQLfj2Ngu+ej2Kv/Xb77iwy9v8Wq2zdmKQuLxsSuiKKk1nK8JL4x1+iooKlHRWxwtB7c7QtMLFj2UpEgUjAqSpkiSPub5yAEf1sBXLk1S6mP1IRr1yQQdfUQbWBA6Xcev//kD/vaXv+H6nRVW19uUJX2awPHtYyExBu8F54SttufG3Q1+9e6nfPLZdbrdIsg79V3RdCSYFWmSkueVo3lWPYgKMDZBbM5IeR/3UhcPRrexfE5SfkXS3cC4kiTxZHmknhxt6BmuABHpYtWTUpDbDSrZLbJ0CSMlIoevU39wVNNgbA6S8E0nmf3oHD/pvAunZJKmJJVqUKs6BqFjMZB6R6UoSVxMcqWnErR7wdWHiKICkxxwGz190DisU9PrtOpTbk+UtHTkXReR8ZMJRgaBJMfklT3licnuPyzDRJeekWAGROjYoRi/ibEfhAly9xytpiOveDJjn2lBPMsthkHTwOvrdLq4xJCmjszcIkuuI6bD6H0Fh7beuSGPf8hPewm7fuw8SN4Idl6HQD5WlI7C59uGv3kI9zqmL+NmNAH1qC2pWccbEwUvVEtSAfUGrCIuyBJVLfxgAj7YbPOf/ukzvvhyiefOzvDW1Yv89OWzzDQEY+TZxCb3v5Bx6mm2u/zq09u8d2OFa3fXWVpe542xDj+YsOQ2uh8RzUp8sAW9UIUfjsOX6xlNVwQtTmsQ52k64bfrKR9Nw5vjnmrEEmRf4e+Ra40FiGYp5PkRVMlKr49h04Sx+tjOtSbHr/KiDJlzEJMWDyvrLf7qb37Fbz++xsVzZ3jpuQu8dvU50op59v34DPtBNEgr3b67xDvvfcyXN++ztrZNp9MNa3joCFLVKF14sl9JmlKpZPvaI3v9XCPFLqjYJEiS9xUxRiexC9djAco2Kl+CrIE+D/4UaoJGuxxl6Nnxhw1GEywt0vQ2WXIfIx0sDuuDpJmOnLdDEpPj8Ky8RpfbQ1pHvRu2WYapVlEjR9rx7c9Oi5L6kkq3oJXmeGujZ2+QVd/L9XsXiq/9MooeadLtLf6IIMbuiZOqoiRlSV6U4aw+5m3ZUyI2WLA5kh1CcowkYG1fJsiMSJgJR7VD9C7iEpyvs7VVhyQltZW+1NL+2tzPRntQC6ZUWu2SNOlSzTdIs6+xdi24GI1YaDFIaDmKwevjBmMO6jIUEjVqDTDpvq/PRWkb3x/A8zSB603lrx54frWc0PFgjcc7G1e+wRjPmazgB1OeGauYuFotIEZjgWeYyw2/mBM+aTveu73Oh7fWuLPc5Nxsg6nGNGjn2WkI+4DnRMCrYX275K8/vsfffnyXTtvz3bGCn096FvOQ/EgvqYnOjQhMJcL3x4W/qXo+2ex1AwyYMKj4ySb89bIymyqXK0KCYnt9eNNXrox3qXuodwQnYJMcyapHE9lUEFGSxDI+lkfnQnsUk51PTTFEPUbLKMfr+gmmj5JJW802G9dvc/P2Pb768joLsxMsnpvfWX8iu0q5HfiKnaNTwrXrd/nN+9fYbnX6p6IRUO/jcKNg4v34Y47Tw9tCNbzbSiXbo7r6fuOQ0FNuF5OBzUbKfEniPhLx4A0Gg2ULLwXKNKqn9p0YH/yiotY7BWmyhE3WA33LB6/xnkaGjsoppoCxSFKPgIHEIcfDXEca5MnSHK3UhvRejubN+D4yHDpVeenIXcF2eBPwlHnxfl6mii+LPdkiP+4sGp7h1r1ubXnSPfXiaOBBW1eSFy5wqk/C1mmoCylJiskqe6JV7I4c2xSxaf8BnniskZ5Ed29vdzHyNR3TZHnrLJJfoZ5VMGLCoIqP7jFHVIWrKmpK1Bs22i3q+edUK8sYu4VQciREsQMnxwZJ64ikDFwP5XA3uwUzPoPJq5QReNzrbyi9cL3puNE2FGrYKhz3u5bPthPe37Q8LDLUg5PAtVLrEUoWEs8fznperzsqve6BATuMPEb93Jfqyr+Z7+A8vL+WceP+Bp/dWeKVi5NUNfLsn6WdKHvXfFTAuDbXlza5sdSk7Ja81HD8q1NdvtOAzBACXeSGQ0TFCNzkF+vCz2ZKljrCqkuCUREJIoZtlP+8InSc53uTymLNccoqmTgQoW6Eio3V/17evwTXrTSvI/UpSMyhb+zg8FaSJgkLs5OkPb561NY88vi5g0LhML5ERbDeBbMhidravasVQ7dQlla2uHHrLqdOz2AjB0/3dUA9W1C1iWFjdZNbd5bodj2JDcNd/aNctF9cWMIeOU6/wUe3gYhSH8up16pH4inVG9oPCVMOth4GbHV0aAG94a4wKNubRSkQtoP9uz183fm9wEJG2hjTCnsQYgEtjBrnGFEkqWKSBkZtnIc63IXkIwghaQb1aYxN0LI8UlSz9y+OMDxb67ZppglFlkfN990jp2iIOb4sEOeeBnk+NQw9LUEOwI6i3g1mloZCS2ABSt+YKCtKKkUZ5Xfj4OBx5pIaEANVkLyKVGsHR47FVknSCZzcIt7XSH15VTxd1NxlY3uLLJtnbmImLBkxqLp9BZr93p4IWPE0C8/q1kPGGtdJM4e6uGBH0G5crcVmU4ipRkm3wxdUEklIxucxtQYDSfq97Ya2Fz7aSvhf7wgft2oRJfPh8FCDGEWsR00KzuCdUk0NP5nu8i9PeRZy+9Q7qqee353p4gSWWnBrW/n4+hI/eWmRM7Pz4cCSgwWY3eHxsHZTmnx05yHX72+ykDj+9WLJn8wIY4ahMUl9TAB3TGcpfzqr3G4p/+9D6JQGayw+CSYI95s5/0cH/uNai8tjBa9nKTWbUM89P27Ac1WHGrs3IzpRxIHJGqSNmWBHfdjr0gQDGSvC9MQkaZZRFOUJbZJHcfNvMkkMSumh3ery6Rc3ePXVFxhv1IOdvbG44YPjUKNOTLPUcu/BGrfuLYV2vP/m9wwGmPXEdaNFhMn6GPVqJV6LHv4r014RY7HZOGIScCWj+aV91y7j1zFmnZLx/dtEHaQ7oYJIiUlWw1Ayo/4lSFLDJmNB0/sIEhITHUVJMrLpGdpZjh6VK+jj7tBBfbukYzsspwnOJLsWeL31oqp0i4KyLEnzZ1kH+zzGVHHOhfNp6AwxCuIEb8GJx5QllW6X1A3ZuevxosdBhcojotjaOKYytqffv/t+sFVMMt2XWBq58KKKUcF2PGW3w9LyGp1OB+9cv6X41MCizy76LV4RZ9luK6ubD9GyxJSCGfbYGLVnZmx8pxUM5aEv0dBhEKTaQGuNYGO8jycxZhw/HPf82aznpUqTXMuAgkmJ2BKjBal3WHVkpsN03uF7k11+Pus5nYIRu+t770mDVWzCD6aEXyy0OZN2uXl7g5v3VrFmCzHPGgz3xtgSq2hqub1lubO0wYzt8HuzXX7ScIxZ6dttPnHTqkFcybm84I/nPK9PtKhU2mhaIlIAXZQOWrRotoVPVur8n/dr/O8Pcz7fDkofxlh2FSp5ZJ+YxCDVcTSvH3pHRAGngZsmWBr1BpU8H1KBOImdpEM80W9WEOo9VgTFcPPuQx4sLUfXTPD+KA5TGRxCAp2i5Oad+6xvblN6/0QCl+44kE4uIlljmJmcoJanQNnXMdSWZAAAIABJREFUWj/EtCmmNh6MxaQxOR7hr16KYHULZP3ZSgZ5tuIqYo4YcVi7ihEXYQwZ4ScmmGQMTaoD/e5DLtS1l7glGUljOvBTj/keQal0O9TbXczTZgWG6BBFUVLGRH5/a0n3V65rKG+d832q2Q7wxoA3QqKeeqdLtdPB+kFyfGIrTDy2VsdU63u6iN2jhxlDs7Ge5wYne2fffJ9GIm3CQbvb5OH9FZ4/32WsWolWnI8ObUTTiDjFLz3x69i68BKr0Tj1iQhGiPJeQcNY8RgT/okJbM+llSXuP3zI1cWgC9mjcoxMcjycqJsUyWcQyWJ7/3BNrTVuHmwK9fGgd1w4dvp8PvnJWIS5CvzZKeGlMcev15v8ai3lVidjywvihVSERtri5YbnzXHDq+PKxaqQWRAtdz0wRMCqYMiYTzz/7rThuWrJXzcf8qvPb3Hl0hyztSwk5KZnySp7jCt7YWwFd7WtZpt//OQ+yfJt/ufzbX4woSxmvcbmHnh0AqlV3hxXagb+brXk7zctd5uWljM4sWANCY6a6bJYb/OzGeGH48rlqmBNpCftYZF6CQoAjE2gNgtq9YeIM0n/pxlsIszNTjDRqLG5uR0Lc3+k2pg90yQVExXBAq3CQBySetwBEt+TKA8frvHbDz/n7JnT1CsZog63Z3BE9/iEeqvLgVpu3n7Ip1/cpHThMPSqAxWI3qXFja+i4LthGAbpc6KPHi2OvoqqZGnG/PwMlTyLYOdRTOWEuK7eQDqNJBUoNnt8i+MGrPYC2CFeEG1h9D6i8yCVuB4NHDrCLlHRqeyv4cRuYNKtqCM/gnBOVKrUuJ4lm0RMPVKXNKQwcri/T72iRrDjs5jKGJ7l/v46au9OjbK0eeEYb7XxRmjn+YB//Kg8hGoUm7R0Wx3am5vUG1M4s4/B6yE24F4H8tSXOF/sXKL9BpbgVcicMtbpUCnLAEqJDOVhxwx0KEHPuzGJSSt7CgRPoVXUIa9Hu1SPERmd7RMRSq+KsUKSOG7eX+Hu8iZn5uto0dOQHeYS9qynFTE9If2wGZwqXsKnRgQr4NVTeo9gkTheJwIu6scCuKLgi/sPWN/eopL5IC82SnXEI8W1mBRJpxCTIFh8fyDvcSeHPpLQPv1zJTx20hQ7OYfLMrTo7muuyiLMZML3JoXLNc93xkt+uwU32kqpnqkErtTh5YZwriKMD4GgA5RPd0e38RiUMxX4/TnP2GqT3969xfUHi0xcrJJaGzoTonjdRc5H9pkbAx7P2uoGndu3+Hm9zdsTymRiBnqVspcTIxygYyl8Z1JZrClXN7r8clX4vGlYLUtEYCqBF6uGNybhzSmYTQ12GEXcwzvxCkmawNQU1qYRWU/2sU6etGaG3rkEiwQFJifGmZ0e59bdpRBQdaBmcVRYDUNlouCwWkaNU/PYV6vRyU/xtLuejz+/wbdfW+Hy4gKpCa1Zf6jBXfASzGKKrvLhp9e5t7w64NqqeWTPh2Pc+DBMKb6IGYb2ZzeOdAo/FsMSH1yWJcxMTZKmSUCexBxigq7xd2kYFfAJkkyhtoHyIHSykJjgjBYS6sVgtIvRh4jfQE2lHyWOhiPugRLUYowjMauIlCg2/P8RQsAGlvXB/REDZDMYqYYkVVyYszjAefXNuBohI4FkfA47NkEpBlHHcViwh4IJMqfQ7dBJoEwsXWPDEKePjbv+bfgody502k1W799jauYU1HICjV33bVL0dM6xoFriXGfQmZJh3EZJS6XWLqh0C8Rr3y/jJPLHKPwKSYqZnEPSvXUDdk+OxWKTCXySIa7NKH6phj1zatKyun6fdz+7znOXxpmoTuCLBKTovxKLR3xJoQZvLFutkrX1JqtrG7Ra27S7XSp5xsx4nfFaTp6awfif9NqogncOYyxGPV8vbfCbr+5yerLDdM0yql+9tWttFewYnoi892PEs+gcf/PzMCkPklRJFs5QVGrQ3Ir8uqdvDh/9+3parnMVZSqHq+NKq/C01ZFay7wIue0N5MkzoHGxxWMME0b5UcMz65fZvPkJ3bPjmGwa5wx5nCDXvTxc3SOtortNdf0uP7QPeH4yUCkGt7D/8JEaOJsLs1PCa3W4VxSslyGITaTC6TRhxggVU6IaTAX2g/uKKFQa2JnTQcrtG1Ou+9fD3u3TibEapxemef+TLyhdFMM/SvmfHtLaG37U/VE5VeH2nSV+/c4HzE9PMzWeo/ugVjwdsws37zXIlH195wGfXPuKoiixNmLu9mlqbcrxKnJKH+QSI9RqVeZnJ0ntIHE+vNRvaCjIKGItNm1AOkWhnkxNKBbMqCGj0bhBAnps/RJOJxGTg23j1SKaHLzx0P9yqCkwGmRaE7NOarcCT5QRg9Xj1TgDiQrqPT6pYvJZSNI42GUPfF49bs1640Me3pgkmZylbZKQlKrHiz+gqdLT71n6/F1lrFOCtFippmAzjNqdrDYJnUivDlFYeXiPxr3bzF28MDAqetoiGR6m22Ph67sdtNuNQOMg+Q5GY47xomCi2cYUPpygJ7i0RASrUOY1kqkFTLI3Fa1kt4ivKmDnIKmjnQ5GR8xN0oREzCrMTUBebfJff/Mp5xZmefv1nFpa3fFOSi90u/Bwu8Pnt5d5/9OvuXlniZXlFTqdLh4Yq+XMTtS5cGaWly+f4cLcONVqRpLEdoKaILElhuX1Tf7uvevcvr/EG897avVs5GLvo1aUJmtgbAOvPk61J3tC9vb+OTgMxuTo/CKmNo6uLg3FcX3qznOA8QOUx6BMWWVaTN/oRW24DuP1QP7I6kJVWc3gVbo0l2+R3TxNcr6Oy2s4Oo8k349JMXQoajwtq1IlW9/i4upt0rTbDywHCbfeB9Q1tYazlZIzVQESRA1CiTeB4+m99CQ19xWsrBi0PoOZPRfso49YYq1ezbm8eJpanrDZLGK5dOQR9BtJy36+ii78wz/+lksXzvLd114gSffK3xT2MhYrCEYtD1bX+dW7H7O0uoG1JkzWizxRwenEulg6GNQRDAtzs5yamcSK32OBtv84pBr8MNV4TDJOUj9LsZ5iSvZBcznG4ytKeCkG8R2suQlMg57GqUF9kKPbFffbxz0pBo3mTwld8uQeqdnoh89AuRmtAkJFwYVBXV+ZJKsugkmCgoyPbnYih7iOFC8BJZa8QT57mlZWxRRbEbE9YqWFeGY7wDjIfEndK4V42hWLs4/EFQkOmeqCitHW5iaffPQ+WaPKxOxCRKv2UF/tlVYhQrdss7W2hmsFIyph0Fk1CpVOQa25TVJ2B12qE0ZQVZVsfIZ0egHs3s6TZLeHoM4j6RxiG8DykUyHHsZqMgbqmXBh3vDBZ6v8p394n1ot5/mz81TzUCW0OyWbrQ5f3X7I+1/e4pOv7nL99kM6RZgqz7McVc/9zU2+vLvGx18v8fnX93nl3CyXLpxhbmacsWqGQSgcbLe3+eDadf7uwy+pZF3OzxpMsreD7rjPKC+QxHaRZLNgw7SmatTd3HFMHQz5C1SE2HauTcPEHHrnGt71RkB6iYg+MQnQIb92USHIoXuw4b9DWzYeGnKwo19EA2FGDZlX0nYHf/M6aX0WP7+IyyDxsa0vBu+TJztHPSEx9rHdK0Yw7Sbp8h1qzXXEWJxqfAcHuAcFEYeasl/Aipbx/YbWmvcm0F32ATf12tDGGJg+hWnM4rGByiRHl7Baazh7eo5arcJms4xqq0cM4EVTAYkKAqLl3oq5IVy22erw63c/4NSpac6dngtt/h1n0z6Uc0QGWsUR+2l1Cj679jVffX2P0u+kCOzgHA8fdsG7FeOLsIeIpjlHHKd6z05VSA2cmptlenI8AAvG7OF37z8OGUzUepbQuaotYm2OL9s4UQwjOG4Wk1HxitF1lPsIUzitgCaIdGP5ZFG1fb7wvn6+9t6GDTQE7ZLaNdJkBWuKiHj5mMSMiuNX7/KVQj05FlOZx1TmQUygPPVkwQ51HUmfXEVWIZk5g6lWcFvr0VEw4TjsJn0MSUaVvCiYaAlG2jQrOWpS1IdJDQ+o+Ghe5UmscOfeA77+4iteqNSp1BuRDvrkBHV3nWPp95zCDKRna3WdzeUVTNlFbZD5tCHMYJxjrNmh0i1AHSr2xPecqgRr9NkF7PhMpHQdJDkGvDGY6lmSygJ+88ZeGszHD40CDqGSCy+et/xD3fH+tZtsNLe5euEsc9NjYCxLD1e5u7TK3eV1Hq5v0SnDQ5udmebq1aucOnUK7zxff32Djz/5hPXtLX775T2+vPWQyQ+uszA9weKpGerVjFbXcefBKl/cusfD9TY/fhXOLySkNiabOjpTi9KTplHAGqR+DkkaWOzQNjSH+Bs94gwYIa1P4OYv4j97B3XlkBj3LnzgyH4b5jDt+JcIfcohDvWYHmJiArdMH96h8+WHmNRSzMxSmgRLGYPjLvH2Cchx6gVnFNtcJ//6Otm9W0hZBCPvAyb3wCDpjetOhixJew/N7HdbSUjqjQfyjPTcc5j6xL6S62e+HxHOnFpgbm6GB8vbkbyrR5bZaH9ZBXk707fd3p+ToLWGT69dp/q3Ff7wZ2+zeHo2YEC7ajXrE5Nj3/szqpRe+eTzG7zz7kesb27t3DH6eJtt7Z92Huu7QAmS9x32QoF5tNFZVchSw8WzCzTGxhCT7n897jWRMqGDIgiYDFs7j2Rz+O4tMBHh0lHUEOptYkW4i+oYRi+BuJjw9+SP9mvHof34rhqSHCOKtZsk6S0Sae+IoTJiA3mh/2UprIKmpLULmHw6vMcjWrgBVU/Ck7BKOn8OOzZOsXI//D9/vCrUwcQHqoVDmi2sL9mu1CltAmKxGubBwrcasiTkIV98eo00zbnyyivYSrU/wGiMjXby+sQwNJzlacSGA2/fs7qyzI3PviD120zUk1BwaUias7JgfLtLtdPGegVGh2Zq8pzq4kVsfXzPfybZNdgbxSfT2GyO0ljE+9GUJ/OQZnDmtHD+nOfGQ8unN5e4cfshaWIRaylKR7dbxC6D4DzU62N8//tv8e//+3/HwsICAB988AF/+Zd/yXvv/ZbCeVZanrV2k5tLW7x37S6JVTCWTtdROGEsM7xyEaYn7CBhG6HwEnjFinceTetUK2cwSbDFjPpZh3rJ4QCKMbfawMycxSc5dEt8dGdLny1MHE80RjFFF3/vS6hmpLU3oFHDGcG5DhVpoiT9wYynnbVB6N+g5Qb5vevUbn+FtLd5qin9s17+swIojz5vBWsSPA6fjWFPXUSqdYwqTo7WLVNEmJue5vTcHB989FXI8uVYXv7gne4zibImqDK0WgXvvfcpU+MTzP3B71KrpKjrsFuq/TjOcZhrMJReQSx3llb4x3c/5P6DtYCRSphR3/ceintT5Wjn7iWq/3jvaNRqXDp/OlpHy/G8RzEktXm0uojZvstoCms+sg5UUDbxeg3rc6ycxWsCxuClCH12tY/CYk/ZxwKagxqslCSySZbeI8lW4sDp6H6FoVFLagq8TTFjl1BTOQ6dlWiGAsnUHDIxB+aLUGa44zV86CXI4pVa25N3lbQ0rNVzimwnLVIBmyRU85R7Kxtc++RzpianOXvxIt4ITpXSlbt2/R7tKIkESot4T3t7mxufXWNt+QGn5+pxADYooKRlSaPZZqLdQj2Dwn4U1pEq1KapnnmBpFLf8+tLdi/7BW/qJPXnaSU50mmO1LSv1x4FSPEuDOW9+XKXT75scXcjoeWUtivx3kUoPSExAZkSPEmaUHQ7vPvuuyRJgoiwtraGiJCmCZ1OJ3qBG0o1FIXHdx1KgTUJifVcWmzx2qWMWs4erCxPpvy2PdCtNoutLOJJ8epI1ByBAVkkggtoWsWcOo9Mz8H2Vt+pZpQPKiWYjiTtFu7ra6Si6LkrmJl51CTBWGboge2kqurjf2J7lfTedZLbX1F2tzH4PUq2nSBkoxFdtAmycB6mL6A2iw6VRxwE1FOrpDy3eI6/Sd6hox6jhqPnVsRA+gyawF775sVsbnX4+1/+hjTLefPbLzE/3cBaecJgzJOoWEG+rtUpuX77Af/4Tx/y1ddLfeWUfVMfddgmXI5c0bbHYxRVLiye4fzZUyTmmG0mkgnS8edxy++CK3B2lLCsx287ox50BfgIT4k3C6BV0PTxVC7ZTaVfBhJopkmSrFJJ7pNl97Hq+0DRKKfHpZZYJ9j6aUztQlD3OM43UpvCnn0e+/E7SFGiUsZy9vieW1DRUhKCisVks03qPJs1RzPPEJP0Ma7EGurVjNwIGw8f8tt33qXVKjhz/izZWPXxlsG7DOR5FF902Fpb5/ZX17l/6zYTVUuWGVQ8qbPk3Q5jzRb1bhd3TI6m+3qLBtL5i9jZC6gke35zu3KOUYuRFKk/h83H8d3mgLwtI4CRapDvMWJQUcYS+N6VjI9fLvj/3vG0XLAPtcbEQTqP90qcn2Rrc5O///u/55e//GWUJwnthrIs6Xa78WeHSdDegZLECVBQZqcKfufNjAtnUlI7mtE2yDgLYjxJ5RQmPQUkATUyR0OUFxtpCpKSLJzHLj5Hefcmtiyj1ujoJoZBFickYqa5jf/iI3R7G7l8FTt3CUmyEDJkGInr8aSHEpE4iJQ210i/vkZ6/za20xxKoEe7QOhxcTTPSC5eJZtdjC25gHAd6eYXIc9Srl65yNzMJF8vrRy9PUEvpqmClvt+P6r01RCMtaxtbPNXf/1fePhgmd/50Xe4cGHhCUZKT6JVWDZbBe99/BX/+O4H3L2/QqlhbapX9tukkl7SH7n6Yez1CJ9oLDCSxPLii88zNzN57GemmJzK+GVa+STaao+e0PFjoo/pKVi4DbDXEG2jeg6V8ZjY+CfEeX387Jl4jHRIkntk2V1ys4WJiXFwFBxl9DjMYxipkTQukeTzx34FtlKldv4FuvVxZG31CGyz9lSzoyYawBtAHWOdLplzpN2S7WqFMjGoBE3Tap5Sr6SURYcH9+6x1Wqysf0Cl156ifr4ZJB/k2+ee31iTfybEUFdyfL9B3x57UtWHyxhvGOsVsWYMMtSbbeZaLVJim7wg5AkzGyc6PkWqaKRCiKppXLuCsnkHGr2HgOS3XNPwZDi8zPYbBrl3oCroiefHUufrzlwgp+bSPi973serJR88FVCuxvVDHwRVQoHlZP3nna7vTsK2vvJkUssGMQKU/UuP37F89aVlGrdoupjYS8jFl56dGODqS5i0nmMNYMZpEO+3kD7k8Fox/g85uxV/Ie/xmxuHol17OEH5F5CAdIp8Pdu4fMcbcyj1QbYHpdb+wZqA87nYKRQnGBX7pHdu07S6Qw4g6N8PveDY+BnmvoE9vzLyNhESMyO5d0JiUk4d3qG5y6c5ub91SMuqHRQRAqEY8jv95KjWVBYOCLK9naHd979BBHDv5z8ITNTY31HKe27/z3+vrwK127c4+9+9QEPHq4EHnSPSmGe5Yl6jPex2yYIZcSi5Mhis6A0GlWuvnCZeiWBY5YLMyrYfBGpLEL7PmbEc2ONyLCoRcQhbhXjOzgpUHsKp9MgyWC2If6zF1H9MA4czV+M3Sa1W9ST26SyPtTdlEGBP8LFglWBrI7ULiNJ9djfoVhDNn8OM79IsbYSo/txXkBEhP3OvMShmLJkwjnqRclGJaOZZxQJmNSS13NMy+G6SntlnWsffEi1UuP5F8eRrO8SFPO5nSPDGoc4RaC1uc2NT79k+e5dUKVSSahULFlZUG8XjG+3yUo/KLJGgqoTk/Ne8VcfJz13haRSD5/tMXfdNcz2pEtMNkHaeAkxZiDEJ3709pIJrmGvXk75H/8o50/fFM7PGqwX1Pjg1rYv8EOj0E6O+AzBkuTKSxc3+Yvf9/y3P8s5s5AGGoE3h26re5gojuTTpI2XMEmN48rPBJAsp3LxZZg5R3kEPNtjqUOLgu7mFr7VRhMHEgcafHy2CEYMVmx/wE4QKLv41jaUxSNBY8SzYxGcDYVgtnCRdPEyYmz8SI4pvCkz05N89/VXSa3yRK2ywy4klZDl6oEfIc4p7W6HW3fusLm1FeKJV3y8lwGFQx75s4Lzyp07d1leCai58we8IPUBRSFKeh35GjSIWK5cPMeLl8/Fbswx7n2FUgtMWsNOvEBpK0eqT3s08dOR+DUq/lMq+hHWb/W7m9o7n4Y8GKSXnMSER1RJzAa17DpZssbIVwePOT9ULK6yQDZ2CTHm2E8PUUM6tUDt/+fuzb7suK4zz9/eJyLumDdnJOaJIAGCJDhJIkVqlqxSeZBdcle7e1XXU/8j/jP6tR+6Vq/l1bW6Xe2abFW1u2XLLmswJYvzCBBIIJHzdIeIc3Y/nIibN0EQQDITYFKXC4uLROa9cSPO2Wfvb3/7+x57jpDWCIfk+LJhAWikA8/Y9oDpjS4TG11aeaCT1tFEyUUwUvx2QW9lDV/0gRiDQgi71lOli+MrdZMAvV6Pza0NIJA5GG/UmAiB6dUuk2uR3nHoiiyJdFFV8Jrg5s5RP3465n9BH/goSe51OAV8lNFybZKxL0HyfyP9UNKR5dBtMzOggJYIl84oY2Nw/KjnJ7/wvH1T2R4ogfDg6JcWJXAsZK5gajLw5PnAd55NefZ8nWYDKAJOo/xTnP4+XHclAKkq6dg5tPk0Jun9xNjYr87x7p926OxjpKefpLj5LvS6X6gAXbU60xAQZxRqiDfEdFh5j07/mkHwAZWAk0BivkR3Khcv7qI/fdiOpICEgLQ6uJNPoJ2juxILGaK4D+85eu9Jk4QnL57nxNFprt1Yfoi1QBTSh1Jf2/afOpqBSxSKUgLJB8xbOTUulWcTVn5eSdPfiU0h4NTFoiT4A2hTBiSULl+iCO6hquqYQKOe8ezTTzA13o7IxZ4Kq/3FocqGF2ngxi4g9SnYuvGFSo6tojaGAYF1zAY73adhNhPXlNkn/d8UI5UuNTZxQcj1ixV5DRB1aOccWjsaExuXI2QHeF7dbx0pmrWpP36F5Fd/jb/x0Y6G9yF4eSCIp54HJC9oyIB8MCBDCUlgoxYgeNJaQqsuBA0UFnbYNGUhFalaRiUbHcr/78SYzjydmqeuwkySM70dqOcR8CkSjYpGh0jD1kxwYjgzfGOMxpnLuMkjgCegpTTsPpJjqSKcAZJC6wKudYaQv0MRIBzCOtxFA6lomyjCsRnHd74knDlZ8NpbBe/d8Fy71WZx3dju9UqtwLtUZGUQd5LRadaYm4IzxwdcPiNcOZdxbNbRSOP9cVVCxFCN53ClOma4rEE68QxWP/kABpj71Y385EL1zQ71C1fovvX3MPgoDnrtCkyHcZBRqrMHIWrvUjkyVcmt7QxxVV0GLOoCGwFTK21HA0XZ6knssKNXNrTblemjyOkn0KxRtmPlM6+DPeOOqqjAmeNH+dIzF7m1+Pf0B0VJfXgICJJoPGokahzvPxmVOKRnRtEdsPLWDZqL3Tggq45CS+kxb3Hw13skBLwPBAv4IrC9sIYEKcuzsO/nipXUsqEttj2UfRNCnAM5fnSOZy5doJ65z7Bc9huH4kEfLMU1T5J1zhO2byIWSvTPDn2maAheogqSD0Iobclj18pGkuNPp6pJNViLizHpkI/gEbSU3YuOqiEbo955Akvb0SHS/B3PTR7qOgqlpXR6/Dz1C5fZXprH9/qIBVSiXNnneXoJROrJUHQNskHOpDjGVChqgncecUI7VZKhTqqVBVXYSZCHs2QxdnkRWonyRENJciUNkAx6iEYONAZJUZJ5DtGikvLQ9mqkk0donn8KaYwN54DYb3JsCElIQCPfVuozZBMv09v8AOvn5RDS4YsvVur6CtFWd6whXDmX8sSxhKWNjDc+foz/9pvABzcWWF7tsdXrUXg/TNEUIXHCWKPGzOQYl84c5flLfR4/9RGzrYJays5gzcjEuFbFxCHEAX02hY5dAdccCso/ugsISKokp59Ej18krMxjg0FMNO1wHlDVZVUJsAHeIq/K2eiE984g3qgsc3Q4MjLVsk6NHDGTEimEQ34wG6opevIi6cmLSJo88gvWUtlgot3gay9e4Sc//w0Lt1fiPQ/Gp0y3ffZdMpQ4Mxw5sl92tQmigjhPf3WLD/7LL1jVBOcUpxoNYTRBVfDBx6Q4eIqw0+5cKfpYYaOXt8/kuIg0vFBqsevBB5tgAVSoZQlPXXyMx04dQwl4sygJ9cjinqIkeAXJJknHnqK7+BouX0NwZSGrh5MeWO2BChVWhhzjoUmHSpkM2ZBKISPxdDhgZY5CBWdhyCM9vC8Z+VN2URpnSJuPYSUlMuHRutCqAOqR1jTti1+mePNnDHoLkUFp9tAN8x60hAy7BPgNNcjUqEmpU4yQVgO5lWueGRbiOopLqDISkvLMCjgzUuKfRJXCAsFkZ30dwvWkSDxvFcZOPx6H8ZJkxIDswV73RI5NKo0Gh9MGYewyRTpDGNwklfIS7PDuNhEpDRKMTssxNlZjbvYUly6c4v1rt/jNO/O8ee0WS8vL5YHrSJ1jbqLBk2eO8sSZOY5NjXNk8iqd1sekFIeWVvypR6I6pHUSSeZQSx95YqZ4VJR8/Dj62GXso18wWFpECZVmxqEL0DvUB4sDVCF6EanzDGSASBbRPIvolI4cSKHE+FJRstzQAiiEpBz22rHtPsyTQaDNDjxxBZs8Cnw+tuhmhlPl8QuPcfH8KRYXV6OVtBRlgXdw97ACxiVQco73l44KlO6H0enO9XLEcjxQUB2sskslp9qcDhiUnQcLAa/EIdp9bBYNI5QRGS3jDriotKjwMz5W55lLjzEx3omDnSqPfBGr5qV/TEraukCvfYrB6jJZBaIEDnWyWI33IIZWiYvIcG9I5Rz6Ke5mUk4Lm3wBhDqqdFhylOgc6mvK2PRlNJvBiFS1uO8fYffNhIBDcDROPE7/6Dm4vUhfwHyC84KpP2RJ4ojUaBAyAcSRiYJXfDJMkHZcBss/O7hD/G8ngrMEcBRiDBy4cLiXUhDFpCBptGk8fhk37PW8AAAgAElEQVQ3NvmZ6K7JvdGb6kY7hBqu/RS18St0+4tIXiB6uMervA+IComLwzF4o+lSTs+Oc2Q64/L5OVY2CzY2t+j1+hRFQS1NGaslTDQT2vWEVB21NLZbvX2xOFsYaG2MdOJLSO1EdP0S94gvIXImtZaRXXiOwXs/wzb+Dit8mZTYIQssNqyIY3HlKOpNrD2JlwZCWqKa5cEUdicHMeaEKG+MMmg3qU20Sba7JHleHliHfN0kDrn4JZJzL6Bpk1Cifp9LoAuB8U6bb3zlBV5/52MW1zZxJgc+2yWUeUbVst5nMiEBklpKvZGRbudoHhGNqqsVRAhV0qKCmOIktjaDGYkINRXGx8fZ9jnbva19pQRi0UNCgj2wfeped00ENAWVgsuPn+Xpi+dIklKlInhQ92izUdP4nR1o4wT1mVdZ37pK6G/E/atfgOHgYeKid/yvkhZjUXc8mq7cbV3HWBXP8r26Pj76yBtEUIsZWtK5TG3iRdTV4997Rznx/GhjEEqi4CbnSC69RPHRe8jaAkGrGabDvX6COookwZKETHVYHAvEIceSZzy0ILBhboypY5BkOHUk+AjyHPa0xwoSTWg88WUa555BkuSzHYMPWj0JDkunSCefZrD299hg9VCWorYLtYwnkYXSBjcBcznBIE1qzI7Xme14hDEG/ZxudxtCKA+xiOiEUv4oqGA+GmpUp2nV7drlZCz2+dErbMcwNLHIC5LGHOnYZUiawACoP9LnZmWHwQnI7Bn8uaeR916D9c3YCrLwCFDU3e/vSy/4YSQY4bCKGcEppDVotqDRwqaO4GaPE2ptlBQTz64x8ZF1V/GUgwihkZIeP0aoQbG8CmvruP4A8h74qKVbtUJD3GYx8RMZXsuuN36I9yd+fomENyZwT71IMnkcMSWo4T7HvZ4ljqcuneeJ82dY+uXrBNEDl2e1EjoWfFlEPkAJNTqXWEldVNQBMY60O7z08pfZ+vXbJB8vEMfqwtDuWao1WHIG8zue9Wxa48SVZ7jd2+Rn//jLYdfBiHndqFPh/W5HHDL0pUGPK/nwB7vDTBWzgmYt5UtXnuTY9GS5H6SUj3vE6JnF3pRIwNI2WecKtfpPCb3XozX6I05rKgfVyp3QzIZzTDKamGhEtoNmaHMOlzQYdHNcSPEyuv6itOIoohzzIRnaBZs1IDuDNDKsuwCDtVi8hx2zgopCZMQOA07iMyuHzB9lHYBJBKFck/rYs2j9NKZanrXuc5GQFYkbLWiD5LErJMd/il9fImilPPOoV7aVj0/LdRVGfCesTOgFcw5pNMlbHdLJKZK5OULidp23FT2isgWSoTdCVOqgXic5eRxt13HrG7C9jRRFpPtUC3fXWRpKqcoRdz972PuqXMuq5aBzQFvjNC9/hXTyWGkrv3e0I3ngyAeoZGjnKdLmScLW+iPSPN1bgFbbfVh4KVGZYPgQA7i6FJNuvJmhqqwNIcFT7Eg6CajKcHPKSBSrhvCqtilINAH4PGFQodTwM1wQiiRFJy4i9TMEcSjFo5Yajexml0RpleYE7sKXcf/0d9jqLyNvTtnh0T1kNDg+N8HQKFdjgooh4sidIFlK2mxBawrGpwhTc4SxSUhrhMRBGj3k7VPSkV3ty3KwKzSm2D46hk71cNubJN0usraCbq7iuptov4sLOZWblbe4nkRiv+bRjCsaRXkoa5KSnH6S7NQlJEnL+/Xo13RFOaiwm6Mz43zlypO8/sb7rGxvlbboB5cYW5mVqOUoeakUcB8kVpRQdj5ShcyUBkrDlKbCGd/gko6znLTYEi3l1OQO8FRGivnqaQhBjCPmOFbvMJl7utpgK3g2JbBFwFtgyzxONFJ57AFm8qUPGh0/5YCLeBu59ifOn+W5y49Tr6WoVKf25+CSpNUaisOdNI9Qn3yBbu8DtL/1OazqyPkMquBLqotWjmJC4QObRY21ME6hLY4fv8DUsVdw6STh5nvY0mrkjRPVVazUIzc0skSF4VDWUO4te5zs6DO0ZifYWnqNWx//gtWlW4wlm3TSLRpJeaapL5PkJNrDSCApg5k9wtujJVqZtM5Qm3wKSRrDlrg6HnlirGVRF5exozZ9kvbjz7N67S1sYz2SoB4hb72actFSFjXWCoEkKMEl+FoN1+ogzRa0WmTTM6STU6TNNlar40fi0K7kf7h7qwQ59hx8vQmnH4O54/Q3NijWV0k2tpD+NtbfgkEPzQvwYTjwpuV7eXk0Z5dZQMUhpvhQYEmKnrtM/bEn0axWprkHTKv45ELJSNOzFOMvsbn+Nm6QHyrsWEJE3gqFQsrqyhvilMIp6DiqTUz90NAjlOElVk07B7KMLBqzBt63cRKQkJMEMDVyVRKJockMzAvyeYsRaHS2Kczw7Rna46/idBYfPk/v1GrDKenxJ2l8+ffYXvgYVhcegUvTToIZSrkaJ47cObxzuLRONj5J0pnET81QTM5AcxxNEsxpue51x4XqE6oBstsZ7y5JuUgdag1CfYwBhh0/h/R6pBtr6OYabnMZt7aM29gA8njY+bLSewTrSSTgLEVy0Jlj1F75XeT4E8T0vChFa7LPca8LzUaDV7/yLD977XX+5pe/Kq2iDg7Rq5zNJYQH0jl2VqoyWGAqJBx1GROijAfHmCnOPMkgkOSeWlqjV6LzD1zkB4GshqowvrzJs0VCj5RcoS/GNXLelC7eRtCre3VgKrpIiPHhoRxbwXNspsMPf/e7nDp1YjhU+bkjJuVeDC7FHfkS2dY/EpZ+RREe8UCexlgXrMDUETRBfKDfV64POnzUm+b9zWMsbM3x/BMXOX/qErVO1KVva4eV8I/kK0s4wKlR+GgIM2ogHUKIlAuXYmlC8/QFmieeJnUpjePH2R68yL/91c8QbnKmc5OzrUXO15aYqvXACSEBrIhHhbod069H9LBcAE2bJNNfwprnPuVZfj5LSICkMUb7yjfY+ODX+F//DY4op/bo6ofqLArRydOApEHoTMGRo7i542QTcySNJkFTxAkaJxgIIjgVPiFuco/BeDHFLCHU6oRGB39kjmCBNB+QbG8RVlex5Zuwvo50B7jCl/MbRlIOlHqRh0inEkIa1XB0UOBQ3NQRJr/8HWpTp6qe6MNPjr0WuCRDO1ew5nEs/zAilYfklSsMMNQLoWewFbCtgJueoJg4icgpjOnoj+5LuSq1TxWFtlLuJ/hp8v5FLNwkrH2I9gckY0JoR+1IV1a0QT/H/LPMxYatOiek4y+grWcQzSIvzZSHrQt5PzTQak3Siy9j7/wc/9r/E2kGDxk1tnITqSqmCokjSRu4iQmYPYKfPo62JpDmGEVSQ21QJqUBCwVBa9EZ0e7UMLijTVE5V30CLKpaqCUKqwb1OnlWRyePIL0e2cYS6dINWLuN9PqR0x9ykqob8BDvkQUjwSjqDbjwPHruOdB67JaYlkNcdz73R9eCMOKgyNx0h2+98jxvfvAeSytbHGTlIOxMcD8IobmIsy10AjxGyilLSIkKA0qB4Rnk22zcmCdp1CBxkPsH/sZqwkRrHL/ZY3NlBU+BqFI3aBism5CIkJfP4UGE2aRUNHgoIduMLBWee+oCzz91kbRy4dx3t+eg/r6M99ksbvLL5BvXobf8aMNziPckmLDpE7aKBkvbHd7ZPMI7G0dZ7HXY8hlTnToXLpyh3W5hmgOKq0+STZyiv91n0N2gLpF+6+94BipELqxmtCaP0pw+h7qU4ApU4NjRGeZOneDv3zCubc/yq2STU81Fnhhb4FRzhU59k3baoyGBMBz4ezQJ8pCa07lEMnkF0cYDhJmHd159WjdCZ47RvvJ1lm58SLF0/ZGK2qqBI6FIU6xZRzsdbPYY4cgM6fgUWdpAtFRHYoCIEiwptbADhE+hgdxxlI0+lEr+0RWCk4RCB/h6A5+NEdpHSKaP49aXCSu3yVdXSPoDLM/xYRBRbnvISyhEHXknyqDWIr3wPOnZpwmaRv76Z3Sf2FNybF4wqZO0nqI9+zX63RvQz6MOI1Hb8kAPcWN3MlLyVypdvcouUyNoAQNItoHlwGA+Z+t2wWCroP3kCWovXEHqs0Pvb0xLpPiO97+zwrEA1iHv1/G3lf5rV2GzT3NScMcybMYhEyAtICv5oiXyJGVbxsoDKchDBgLLRMph0D5GY+a7SG0mIoOiYO6R6xzfJbYgU3O0nvsdBgs3CNdeJ4RQmjfZvkNZld9oGUmqXEdUyespYbKDmzoGnWkYm4axDr5eR8q2jJovnZg0ajRbhoQqOVR0qDm7k7Bq+U8Id7SryrSl0EpuSaI+ZogIkpcCcx6adYrGcfzEOLJ5gmRzhbC5AOsrNDcHuFBl2dWm2C/vTnbxY80cph45fZb6s1/Djc3ggkSOvk9igPlE5f+IeXaiNGrCyy8+zRvvvc9f/Pin9AclX938PhNlKbnfEQnWB7BQGgZ8Yyh1RKmJWnHtMl/Qu73ExFOPM378KEsffIg6hws7saDSv3amFICKEQhIvc344+fZ3thgsL2FEpGYHaEJG6nJHoB+I1FzW4JFt9ADeX7x3gcEVeHcmRN87xsvMTveOgDK3cHr1zoP4hJk8lkGm28Rbv438IN4PyrgQPZ7YJV8XQllzNeoq2JC32Cl3+CDjVk+2JxhYdBicTDGcn+SPK8P87jZRodT4x0SHBqSuMYdjE2cgn6X9Zvv4RnAruS1Mj2JU/L19jTTJ56kNXYEJ4pZDRXPeBY4OznBL7lNdxC4PahzuzfF25snmMlWmU03Od5c50LnJidaK7Q1oObwGl0qhxrZYjsSLwfQ14vUxITQHiebe5mkeSL6ON73Ix7ueXW3fU/maF3+Mvm199n4+7/Aer3YSRI/ovC1TzigHGrwYsOwLyrQbOGnjpHOzKJTU9DuoI0xbMgljjJmJcYcu6UW5dtKpvsnr07uKFB2/ZVhasOxQ0FxlkaJSQLqDGu1sWYTpmfw21uEzU3C1iqs3iZdX0fyHCTObrmQDCUzD+6ZlLxmZ7ijp2g99y2yzizqIkf9s9IC95Qcu6AEZ0g2QTb1Mn75ZxSD9yK6JrE9+7CR5CDRgUw0ni7mgS2wZfArnmLZE9ZgsJjTXykAT2+sS3YxpSRYIeXJNMQUh/KKn7RxxUNIAh7wywP6N7dhbYBbcmSrKTIBg0nBzQluSqBlaAa4Hb/76t9VC/5hpxUuaaLTL+Haz+Ckvqsv9HnPmgoKSY36+ecJj/+G3u0P0O7WMLjv+/6U07QVJ8+F2HbZ6CjL00I4qtQm67gEUtdHdYOk6EY+PRlO0xI4jCotUYKqGKoZexmW0ztJiuQgES0cakhWSDkBCXFowpcUBS9ZyU8uYkUnm/RsgM8GhIkB1oHBQNFVZWoho7MWSPt5ieDuV1uyvD82uhqFIqlRu/gS2dlncWk2pAeJ+xz7mSMBW8sG2fRkhx98/SXeeucj3nh/PkoPUZTr57NdZzUwFulWBWrF3VGUUZBFAqklBFM8MjyYqjVcGDQReqsriCrts2dZuLmA9gsCVQJecgbNkGC4NMFCgbqExvGj1OemWfnwQ3yvF4P8yNorzKKRSHmR/n5PSaU0NwmIeEySfeEYo+12l0C9nvDS80/x9BMX4lDrYdPBt1LtIDWoHSOb/DLby29D92YseO0gSOwlHcdKRQApCL6OmtA1eGtrmtcWz/Lm8lmW+mOYFsPDRySPyYY6apmjnrrSeGiH3pc02jSnT9Bbv0Gx3S8T4WrFlZq7ZrgkYebYOcZmTpGk2bAIlhBNIJq1BJdKORQc19NGv8Fmv8aHNke6qJxuL/DM1DWen/qIY/UNJKQgOWLFME0SCfufR7AA5uK1S4qOP0U2fhnTBubLdz9EvkmhVJSRyVnaV15lcPV1+lffLr9HZUCxP3hHgKTcP5XTY3A1dGqW9Ox53NGzJO02PnVRd3inxCgR4504H9ePvyP63x01/tQE2UbPgJ3333XeikLWjH86s+B7yPoU4cYN9PYi5FtY8A9lnlIMSASf1Wk/9TJjj10hyer7pnLskXMsmBjBlCS5Qn3qe2z0l2DzNu4R2EtU7JHEQDYDoQt+Dfq3A24pQTYF348C92pCLQUbCL3bK+jGEhyZBEtG86h7rhKPYUlEflPrka8vEfr9iHA60CKQrXj6K0K45ZAJIR83kumAmwFrKkUK6qxMkB7+YRHUoeOP0Zz4HqptOGRWLQMp6fFjbZKnnsNd/Tm88xqYx8RFrqV89kuWMqDkKOoc2+PCxrixPBtYafaQdAvpr6BFgtOMhIwaDVJNcZqh6sCycsAlQVVLXWMZsU0eje1GkRfkISeEsMtGs6IzBgqsdMozQkQYrCBYLN4G2qVgQAieYAVBcvJ6gZsRNpsZkyvK1GpKe7lAi2qgy3/2AxyJ7VezKP+UJbizF8kufZXQmh4OoRymV5WMOVEeO3eWr730AvMLf8XiygbitESQ9/UBpZKE3TMx3nXIlEO5eak2Mhr7UhO8Qr+/zY1/+CWTTzzBqSvPs/H++yytLpB6GcopJ+IYOE/ic0KzTefEScZPn+Da3/2MrZu3UBGC08iHZkQhp9S4fdC4IqNfbJ954HAeA8URuHz+FC+/+AxjzVaJxB9CDeHSwlQlJWs9QzHzZbaW/iPajVbvquxLIrDS/FdHLD6C0PMJ17sd3lme45erp7jhp8hJcElAgyu7UCMgDZAkSRw+u0vapPUxmrNn2J7Psd7mLiExMY9LEhpzZ6gfOQlpVipj7Bg8iChpLd1ZCzLado6ITi8x3h3MMr8wxodbHZ6evs7Z8SXm0pwsYZhom9coeruPxWTVYGGmSPM4rcnvkri5siusB2z2s+/SJyr6YDgceuYxWs99ibB8A7+xCEmC5rIvL0stC6tCPHjBuQZhYpxs5gR65gI6c4REBSvlQlU+uWj3Y0Z5INmCgNaaMH0GrR/BdRYobl/Hba1Ab5tQ+AMF6YwCnCLnr9C4/DJpq3MgwWdvtIoSeXRiSDqOm/4W2fY/UWz/JKJgDxk1dh6kb7Bk5POGXzRsw+P7hseTomTicE4oEqHIPb1+gNVt+h9+QG3uKNKa+NTFIZ+ooGwob2NLK9itG5AXaKKkdUeSCEKgZgVhWwldR1iA7atCOi3UZgPJEYfrGFaL0ksPe3zTZW3S2ZeQ9lOI1UoZk8PzkhAbP14Ed+opai/+M7q3F5HFGwQNByD5FKIvfOZYnYb54wVrnRyPUVRZhN+MuWVpjx6bECN84lIHVohJl5LcMd27K6cagjdDG9dhH0yG6IiV9p7xb8IQZRomqCJDOR6pkm4R1lue7UbC5oRjpi5M3jKy/j7PjGoKXYzgwB07RfOVPyI5dQlxh1fHUjUar7SbNb711Rf44No8P/7Jz/B+f3QcuTNJvo9zo4zEw2AWl9IdVyAI3mJr09ZW2Xr7XWaffJyjLz1H7YPrbNy8ifV6+P4Ac4KkLTpTU9RPHiMd67Dw3rsUN+fBF9HONcTB3+oConHIHndGZRNb/iP7JDBFxR7lyOQ0f/g73+LSuVO4pBxiHeJZh2Q1DWeCSlWh+iTNo/+MQTFPPvjHOKcS2E2z+wwIlkhUGukHZanb4WdL5/jlylmWei36RQYSSJISsZXkrteZpilaFXwjt2+rX/DBwja1ZI6pGfA338L89khcctQmjsHcZV5fMmb9Nicn2ySqI4PmRi2roU7v+mjECYnkEIStvM0/+sd4a+s4Z8cW+erUuzw5cZNWmpNq7BLv11zExIEzinSC9ty3ScefRlyKI9LbDpUtMbGFD0nsPrcmaD77TfL5eXo/+yuC98SRsP0UCzuKFEW7Se3YYzTPX4SZSbzLcCIU5Rk3NPPZb14x8gwPIkWxSqZQldBqUzRq6MwULM7jr32AbKwh4eCQQlOlNneeyW/9kObJCxyU8Oje1JGdIeZAPN4VhMZJauOvwNIbFL2FHRm1qhVke4QoKt6pRakatSj1ZQLSA1YCxU0jv2nYipHkRmJlC6JUuY/0DoeYkGQOkkA2MLbevwonz1A710aTWvz50hLYSs5WrPnCzvFmRiLgBp7BjVvI8gqpgcuUWtma8ljU0zRQ8ySFkeaK9QS/KNiiIHMeOarYePm9RiW69kuwHVa00eXdtU6Sdr6MJc2S/3a4EJzE4gHkRKAxhV36KsmHV/E//0sYLA3bfCMd//vAObIjN1AlAYmyPgXXjw1YmYjifGrRTjIAaZCRQCClFJYNJdpEKoSu0gMdfCIpljtAuB0kzUZsxWWEumAjlzvq8SpVXhwHQ0ueWSi7iYZRuJy87SlOJiDCxALUeyOpzZ5tuCMvEidoe5zsya+TXnoV6k0UX23gw1VUVYd7+e8Tc1N85+sv8fZ7H/Hh9YU7tDb32IeVqsJR9oL7WCnNVdyFYVsheipCMM/m6gK8mTN+5ixHLzzO2MwMqoG120uYCuNTs7hmg63eJiu/eZ3u/A2S0nZZyuE7KzXBPUZuezcqUQJKgTfduwTVyBqzKqgItGop33zlRV585kna9TRyrj8xDn9IXi6U2scer4FQO05z+nt0N25j3WsEiwmfU+J0NUSE7kGLD1EkGAWw0Kvz0/nH+IeVC6wVLcRXCK1guYtnjvjdgEy5ttM0jSmW+aFpU3dQ8Juri/zVz9+i02nx3ctzTLRmsPUbQF4OG7bwnVP80y3jb379OhdPTfPd5x/j6GSLZMReOEsTXJV42p0rOsRp03K6giJh24/x9lqDfi8OyF2evMF4Ugxjm+1pq2nJy/dxj4ghUqc+9gLZ+Ev4NEHxOFwpOXjICnSL8yiq5bObOkPjhe/S/fg9ZP5dRGU4hFbNGu2lCA1Eox5fT3GnzpA+8QRhcgZzCRoUC4apoBKBggNxQ7qTTrrP3RsECEXkjCsEJ/THWiT1kxG4fP89ahtr5exFPL/38pitvEINUYM/tDo0nv4azXNXsCzDDqhb7v70T//0T/dSOYnEwKoogRRJG2j+Ifnmx4wK2gd2pKUfHNkgDrSVM21O4iHut5Tiw4B/I2AfG7JpJIWhTiKcrtFBSMo/VVYlGvnFVni63S6+GJBMTeBa4wSXoCEmw0FACk/o51jwZUojFGKY78H7H9J/481o4qBCs5GRNRWTOEgjQxm4Ug1B45exAoo1KBY9xabDtIZmhqZVDij73/yltrIJuFqL5PgPyTqv4rSFlxBpAYeo/I5mTy4WMKpIs4VOTOM3bmLL1wm5L+VmRmWn7pPoVYmICUGVlVnl2smCjU6gUCs1qqVUA5URjjkj5i2V89TO7HE1UFlJ/En1+3f7pxywqn5Gy+FRHXpUjXz+6MePgEPVV1WiiJqWP6QGQY2+8/jUSHxKbUtIvH2mXprFSTusXid9/js0vv4/4GZOIKJRL1KUw/YaTY6jc6FyZGqcRqPOG+98yHa/H++bODx+j9+hLIZEqXdXSPKteOTLvQN0RAoDE6bMke4y76rWiwwTU6XoddlYXGRrYZ4iz/GaoEEw78nDgPl33mDjw2v0lqNc1zCdkirZjvvBA9coWK2Gvh6gHSoiJBZRw0E6EXGRPaCksQC0Er2PPMckc3zjK5f51z/6AUdmJ3GaxpirgsjnIEr7ACdYXEdRQdxcQZLO4PwA636IhEHJoZTyHNsbD9knguUpH29N8ZfXn+Pvlx9j2zeGNs47G77qTMkn1qGIcPH4EV44N41KTK62ewU/eeMj/s+fvsHbN9aYX1xlaWuDyZkpOppDb5vCB4qxE/xiucaPf3WDa8vbfLy0wurWJrPjbSZb9fj+QVjq9vjFu9fZ7uV3CR6j1xqGiYsFYTUf4/rWJKn1mWpsUdOwNwqc7dAGqs6FAFnnMo3jP0TGTiJOSSQtz/ND2L6SHYdCEUVU4wBzmtGff5fQ36QoTaYyBK97O32dKtsB/k4FO/8MR46diDbyVp0MVG3KA/1aeX9A8P5AHFxjzCpzMYkqT84MUce6S/nZrVtYb4NZqp/ZK5YRJXNVBGoN2s+9ysTX/gCdOIUzRZ0ciLHYnpLjOzeRM1BXQ5IU332XQb6KiaFoOdVqe7/IUm4g1fi7xULAvW7IuxDWC8TiAaGJi4LhdyQ5u5aiiyicH3iKvMA2NtFBF+ukWD0j0wzDEZyjCEY+8FG+RiJPVLrb6Acfkv/q1/jF2xQWaDYS2p3a0IV5NEGiSookVnbiYoIjAwgbYKuCEwhtYVAz0gPYqN5FfjVpSnLkG7Rm/yWudgyT6Amvhy3IyCez5Xy8g6vVCfPXKDZuDzWmpaqYHoBDoAhBoddWPj4Bq+OBoKHkrskurcpPLfzYrWkpn/J3n/a7dzlm9n97yj9eSqnCRMAljPWErBsI5WCq7OETvHpMA8n5F0i/8SdkZy6VBYs8ArfC/SfIEGknqSpHjx9jZXWdj65+RFFE7lk5bbvnVy0UtLpLmN/eUYW4V4Am6p1P4JgjIZF7HBbsdBM2tzbZXlpkc/46W/M32L69wOb1G+hmlzDIy2E22zWHVBXSYjE5vokfJscPYqKoFt09j0mNImuwWWp4y17uvVWT70rihCcvnOZ//KN/zpMXzkbuo+qht5Yd/T4KSKih9UlssI5tfxxn/U3JnUeSmEw++JcyNnzCjxcv8Xe3LlOo3GNAXe5aoqXqePLELE+fnsapsLY94CdvfsSf//R1rq/0ACU34ebKgH4yzmS7RSussE2dX2/P8Ndvr3FzvUBV6ecDbixtsNHrcWRqjHaa4hRWuzk/f/s6m73BA0bFnf/eGIwx3xtnZmKdudp6VEZ60PujkKcBH0JMYgRcbZba6T8mnXgOp2kJ5rgvyiqKPSIHycxR3NY24eZVJO8RMBIyCDLsJj7QChLjN3nOv1ndYD4E5sbHmWqMU5NSecE9BG6mGXme73CBD3gTO4s6t2ve81/ff5d/9/abDDAuJAmZDErzmgf/UFcCBV4KamcvMvGd/47amcs4EpABolYW5480Of5k61DMIckUhfUI/ZsUgw1ULUqH7baLUykAACAASURBVPUZEZPdVEBzobgNxbsQrhlZ33AKzmlEL2QEWRlJTndV8gRcqhGB9oYMAqyuw8YazueR6+cADYSiz6DXRfwAt71OWLyJffAe/o136C0vkojRbCTU2wlJzY3Iouz+XFXZhQIagdQJiRgyyPGb8b65uuKyAwBXgiFJio5fonniX+Eal8tERxGNaM+hdkM3icNxtXHMB2zpGkVvM6LGKruh1bvu653UwDvYHFduznm6tbCTVMAX5tC+R/zCRPAJWAqtntDcECzYHr+fgHPY9CkaL/8LsideRustVO9MjB+xfuge40TsTHlqqWO8M8bi0ioLy0sM8gLda2A0AQm0fZ9W9zZF6I+0FD494Y0tRGPclGMkZev60297hbomoqSqJJTIk8qw46Wi0Wr9Hp9bYNyyvSXHmOAQTprScimLrhEnzPcG2RDMo+o4eWyOH37/67zy4tPU06xM3gX5wmw0AdNoyZ00kKTNoL+E5Yu4AIVFyca9pPuGcm2rw9/OP8FanqFesT0NByiZc1w+NcXF09MsbPT4mzev8Ve/fpebqzliseMjCN7V2bRx+mT40OX9NeGnN5Tb275UJvHRYhzH7c0t1rs92o0a4+06vSLwy7fnWdvu77HlZKjkDBSaIXCutUDTFXtI/KAwIQ0pqkZem6J29HfIpl8hpK1yCNrd0ea3Qx29Q0mBc24MxsbprS3hFxcg9Mi1KmrtQVckfTP+pl/wD+sDFtbW2Oz3aLQ6tBtNamnykASDjXyQE7y/b9z7LPts4D3Xtjf4/z58jx//+p9YXN/E4biUZky6iga3h32mIJqic2cZ//oPaV58CZe04vpycX988gzY+zraV3LspdSYcxmuPocreuSb70IYxGGjsDfk2Eqf90TA1oT+OwG77uNQtovcYJHYtrPSh13uXahGEwUVXBrR4X5/wGBljcG1efzCIvnKCra4ALcX8PM3CTduwAcfYG++S/HRNcLmOokI9VZKs5OS1lxp33h3jDDcMaFQOUqbxoa7DoRiw0hUYFKH3c2Kfyz3X8cxOZBKbExw7WM0jv+IbPzbSJqB+lKVI5TSTe5QH1Iqhq/VcVPTaNjCL17Ful3UdqgF98daozPixrSwNFHgNZQyQPqFT44rE8HEoqdjkEAjT2ltKq7v4/iB3KuIHUl8RdAjp2l881/iXvwW0pmIJKlPuJk9Wv3Qz1IsKAEnxuTEODOzs1ybn+fmwhIEN6IJbdwXBi6DxXS+Ra27wqCyj75PbIn7GsbMcZyE9B6/M0SPrEQscQRTRFx5gOpQiqlylPpkihD/CcANK3Ylx/d7GlGBRJk1zxHJWEibbFeJSEnLkk8pPiut9tgCFdpjdf7o97/PD77xFSaa9R26ncoXaJ8ZZh6v4DRBah20NkPozkPvFkqUndI96Ih5n/DG2jF+tXKWrjSG6hh7iYU1hSvnZjky1eI/vfY2P37tfZZXCggxyYpgR45qgqVNVvqOD1cC797usbLVR8hx4ssNEq/dD4zb69vc3lpneqxOu9Hk1+/d5Pb61oPtjdE9L0m5pRynxm4xU9uKPQ69h+Ka7ABG0eoYLGuRHv0eteO/Q5JNRTc+KYsRkUMTZ+6bHIcYoEXj/IZMjJOv3ESWb1IpClXdg3uNclg5W7MW4L9sdXkvL+iHguurq7w/fwMRYXp8nLpG+la1X53d0bX8TO3KneRY95wcSzQst+g0XHXvpYw3/aLg9YV5/v2vf8lP3nmLxfUNgnlyEY4njrO17IGok0ND65K2m0wdZfJ3/oTmlW+SNSciB1sFvMPh7iJE8JAd8j4JbwviBEhJ6meQue+Qrf0Gv/6PSCj2fkGxS0EIil8BXRBcIUPExCRygS086DtHuSTUyGqKSEriYNDzhM1N+u+9R3j/fdLMoUkCIRAGBQMfB7ESFZxLqDUctZbDpSWDdEj5kU9FlEYDQzVTJmUVmWwHdD7Bn0hIavkOgdxsKL3z6aecYWGkvZy1SSdfIZt4FZJGeQUuogckHMrBmDvjplNSE2z6JPqlHzHY6CK/+EtY3ygTu3um1kjwFC460K03PYNsR2pL7HB//weMXcNkTy0OwGw1lX5TyLaGkfXT04AgFInHYdj4cdIXf5f6iz+gGJ8pBza/WKWDQCwuyQCj5uDpJ07yox98m/n5BeZvbwwTRhWJDkGa3EO3WKgFYabfZdMCJhqNOO6RGElZoDoizaF4IKRyRzHBCMN1Pco5d1SOVJ8sBoaauCgDAV/a1u9eKPdYQ0AhxnjeZdr3WEpcHCLDDYfsdq5ltCuxQwvJspRvv/I8v//NFzgy2SkP5C9i6SmoOtLqu2kLm3yK0Psevf4t6C8OjYmEeC/ud8Z6M272x+mFtFwgfs8Hs3PCRl7wX399lZ+8dpWVrWKImggMtc5DGQ8GXujmNYoiKe0flDCsdKxCUOgPAm99tMpfhPf4+jMOSXypwy57jEUBM8dKXme+O8aTY4vxMynQytJd7iItVlKFMEeRCunE89SPfJu0dgyVqgTZG4J4GF6u7NAa4LRG5+wzuFd+l6W1RZi/hpbSb6HUNP+Ez6jGAbx47hurPnCj1JJWE/JBj3dvfMzi5gbXV1b59pPPcP7IDPVaggVfKuWUAJBVeZLtOl/vewTeR+f47j9uO7M2w+HDuO4sgPeB1X6XX1z9kP/6zpu8v3CTEAwnUd1nqxDezQu+HjIy5Z5j0JHSFUEhyND2BPUXvk77ua+jrZkhYJrEB3Jwz3Y/yPGdXmDi2lgmWPcqbK3uWfS44uS5HgyuBvxtj4YRCZ79iN8CLlGy1OESwSUalSgMNBiWFwTvIzrthKymNBoprVZK1kzQVHYrDXyWSzDDKBAVgnfQTJAJzw6we+9E0EoUMBVIgUQz3JGXqB/9Y2idppCASHJHK/CLEWwqEwWpj5HMngbLsdXr+HxwH+ymLMfV2G46lo4Y3UbYtcvli86puAuaVyiMbSrtzfvTKhTBh4DMHaX+0u/R+Mr30ak5RB1JEPQBed2HN1UGVcfMkVkmJiZYuLXAytpq7JgYI9Qc+dQCre1zjndXWfPbDAj3hWGqA0SBekmraIgcCM5+L0pFRau4SsGG2IN/iEIhwqTBKRw9qbGQZuTihnF1F6e7mhkZ2gsExidafPcbX+Ff/eEPOH1ktpQa+yJvrjtnEQZoOou6JvRWsf5qBGNK9PxegUiA5UGTny+d4WZvIqKpYW/DRiIppgmrGz3e/OgWq1v9cgD+jvkHsWiNW2ujkkIYYIPt6Ih1j3UbgrG8ts2N5S0WN3J6vkK2HxxAUDXMUszXmHA9zk8skiW+NMEYGXYeucNDLeMAjozakRepH/89XPtEHMweHoBfvLU0WuAK0YlVJ2dJJqdg5Ta2soIPkepSeofvBiMs3iGnUOD4p0HB32126VlFBwyIKtvdHh/dusU7C/N8uL5Mr1+QqSNJMzRxO4NtI/f/gUEP2U2reJBfG83FUlMKp3QFNvsD3l2+zd9+8C7/+c1/4q/ffZMbS0ux0C4Xh5pSWFRreapWY+Y+xlZicXKoUE82PkXnxe8z8dXfj0PkJYQhdz6IA3glB7lQTJuk419DjizT6/4Z1r+959gZHPhtQVfj0A1lu5FRXb/PEgIryZAMMpdQsxhLfBEIPpSfFSsPVcUlinOxItGSOzRED/ZzkFvpetQ3wkIgnBYkiS2JB7GRt9J9KqRCMn6JxrE/wo1dIoigOD77SMx+OaYHww2TRNFjZ0lf+RFh0EVe+2tkc30osL/7s0orBI2DDN220K/fwcH8LUuMy3hKLyvoth1Fqrh+uGeK5QW0MU39+e+TfuX7uNmzUULHfCnNuH+708/3Rsc2XrtR49tffQErcv7Nv/3PXL+5RGFF1Eu9R2ktGGMhZ6wYEIYYsNz3GcSBruif6B/yPYjqJ5USkLFnsbRSeKEAnHnm8j6t4NmqJsrv+N7VQUaIdtaNRo1Xv/wc//J3v8fZY0dKZ8LDSKP4rM9BUMmgVqc2803wgSKsI701Qigwd/+7vTJosNAbo8CVrULHXsx6zDyDfsH1QRc08m/tHkjfnoenTMiBq8sr0f5X3B6F2MqiyQXywjHfm2R5UKOZ9VA/ssh2I0IxbzaNw/uTl6gf/QN07AlQt/f5gENzht39Z4MJljWpP/0qDAzf/9/Jb7wPFkhF8RJ2oaQVqu6CZyMIV31gM8iwSxDdOw1xSi/kvHHtKu/c+JhfTr7FUydP8+LZ81w8epSpTodalpU4wOi62PsA3/2Q5uH7lz/YtYK1jS5Xl1d5ff5jfnPzOleXb7PZ7+MkKZUrSiMaBFPFgmc+Nz4MnnOlxbp9evDDzFPLOrSe+xadr/0eydzZiJhbeGgF+oEmx4Li3DTMfota2CS/8R/xvSVC8LtEpu9VhVkQ/Aa4rchjq+gLlY3ifoT+q4E/TUo8JIlJpob4cEQquykZPkwrdZflIFIAiVQHsxBb3GsDbDuFWkE1hbPrM8rVEmSHk5yIIoliU6dIj/8QHXsWoYF6ibqZGvau8/pAVfvD56DGNp8i6pEjp8le/hcISvHr/xc2o3C4DaknMnQ1CwhBhV7TGGTh7g/+t+klgtPARtvo1xxZmRxXqcqoBK4kDpk+SvrkV8m+8kPczBlEkth9sgJTG0pL7Re9/ZzhdBQYq2d846UX2Ooa/+4//5iPPr4Z5RUrO7o7OI2xTW10/IBaGET3wuDuP/gisXg3oJBoF129a3god8WGa9kTB4H2srQ1lPqpKAMJdMKATvDcThjxEahMQsr4YdFsoNNu8dILT/OH3/0Gjx2biVbpkh7SwvOzX5RUvMn6GOnRr2K6SnHzp+TbC6XDZYX0haFAo5XWvAbc6ndYGbQJpWtgfLcHT46VaO8dNL6vmNyd+z6k5tieYpuUusJeBCdh6Eq6p2Eo4jlj6lksUhZ6TU60V4ZSmZgQlb9leF/MwKUN0s4TuFN/iLYvodRLnwF9hM/+IM8w+bQGTeSDuzGaT79M6G3A3/4FvY8/oLBiF7Q56nUQzNj0gRuFL4GLKN4oJW/cWUm3EsGCcGNphYW1NX750bucmZnh4qnTnJs9ynSzxVijSbvRoJlkZEkSB/NHSGImOybQUV6vkhjV0vp9R1IXE5LyIXqMPAR6vmCz32Oz36ObD7i2usx7C7e4urjEwto6/bzAYzhN0FCF5xA75sGiEY4o/QBXvadrCe1RcLCUQQ2yY1mdtTvUn/s2nVd/RHLkNCgk5suZoi9AcgyGagL184ST/xOo4j/+c2R7GQh45J7eJWYgfXCbgaJboLZTTxzIDbBSgql86JTDf1H+6Q6Hq0pX0EbDwv4RtmFAE3A9Ib+VkXQK0sQY3MWCe4gQiZRubIIbO0vr2P8Mk99BNENMd5CeL3zip1HjN02w88+STh+nOzFD/rf/DlZu473HSo3DyAA3gjeKuqPIPH0XdgMYv22JcfmUXRDWajn9utDciAimG3Z+BY8nUYfOnca98iNqL3wLm5rDwk4bHUn35Qh2mF6qrpQZE2Ynx/njH7zC7FST/+V//TOuL6yXepulrjlEPWcVNA9oEpgsBvjgKZKAiOK5ZxcdCTsmi16MgVW/EZmfYgdKfyvNgyIA4S2i1XtheBUWBbIGGF0c46FgJh/wQebBoEBwFJjpzuAzgWazyfe/+RL/+o9/wIm56ZFuzG9hS0aS4VdL6sdwJ/+EQTKL//jPKbbn47kRyuI9RLEu0yJybn3g/c2j9EOzTGQUyPd4OggmbjhTE/Reluh737dWUdd8WQDt9TlWPx/i568OxvhwY5Znpj7GqeCKODQVNGAWDYuCGGhCOv0M9RN/TNJ5ciT+uN++JaRKUhUiY1N0vvoHpONzrP6n/43eR79BJVpKCUbNoNC4s42EpVBwIx/gLexk2jtZA5U0brS5h9x7FtZy5ldW+enb75BkKc16jaPjE5ybPc6ZqVnOHJlldqJNK63Rymo0k4zUuRIjKJPiECJ3esRYxDAKbwx8QZ57ukWf5e0t5leXuba8wbWVZa6tLrLa38YKHwG/stDZJTCl5Vq1HYYbVgA1AsZ7vT6rWY2xcrIwMaEvgcQcFgQRj+tM03z1nzHxrT9Bx46UBQgjb/hwXslDWB6oJGSuQzH9Awa9G4TbP4F+L/IY7nPgSB/CZqngIHagyc1wUxp3Sbg/qVQrB4yO2ch1BAzzgbA6wBVKSEunvjts2AJGiqDloBDNY9RnfoRrv1pOh4/+zhf/wBqOX0apCXRihtrLPyQURvEP/x63chsrBogPoClBFCcFRc3oNx7AUO+3IQCX28I5yNuKrQraL7BQjZFJHB49cpTk5d+n9tx3SManKexuAy+/PUmOjCANjVrKK195jq3ugD/7v/4D8wtL9AehHOKPTlOEeHi3fE7LD8glDgw9UJkpO8MvFiI+6LHSaNwOPIGsHEcDhi9Nkva6r0wirSKUh3Pb5zSsiKoVZlBqXWs59DXWGecbLz3Pf//D73HiyMRnprV9oaLPjqgLSIt06mvUbIDN/wdk+2ZZdSfk6QCKQRxGAtYHTZb77TgMNxx2YO/cFz7ZObzPafYZGhD7fIYl3BlMud3rsDWoM54NMAn03YBEXJSxI6DO4aaepXbsD3Ctx75ww7/7OcMANGtQf+pLTGjB5l/+HwyuvUkotmOJXjgSHw0JxTluhwGbRdiV8+323hwhwZR7URHUKT54rAhsbXV5d3ubD27eIkkck60xpuoNxpoNJsc6TLRaTNYb1NKUNElJsxSHMOj36Q8GhCLgLdDPB2x3e2z0utzqb7HW3Waj12V9e4t+vyAEI4wk7DrSAbBdYCAjG6raYmUSHgJLA8+C95xKIlBTuVSaE2rBYWPTtL70/7d3ZjF2HOfZfqqqu882+wxnhjMc7ruonaQki7Zo2ZZteIuVOPmR2E6cqwBBkMsAAQI7MZDkIglyEeQiXgDnwnEgOZKsWL/1y3S0WbE2a6O4ijs5JGffztrdVf9FL+ecIWWREinOUq9hiMPDOedUd/VXb331fu/3CTp2fx7RtiLSbEsB18GP+bqSY5Gm7DRCeMjMGvIDv0tF5qmOPIOoTP7GB14YEGWDno26YwdpHeYSemjqsz7qODWjCYsKsiHyMlWbRkRd/rRSyNa1ZPs+i9N1H6HXEhn7L8HdN/PCgensQ33kS8iWdoLXfoF/5iiqMosUOuqkKKGaMRSzLLh22dcLEREzlPIG7YBbjUmPIzGZAmLdVtzb7iez9WOIjt7IlcAs3aTf5VbwQtbj/j27aCtk2PfcS/zq129SqgaxXVGUsdFS0BL4tIRVxgBjoucp2oxeOVcIjSYUOjr14NofWAiTlMVFutHwKj9BxqS4JgxhrDBpC6u0hAFFJxt7GEdSJUcJBlf184k9O/nER+5kdX8HJgxTK7flgxCTyZNZ8TGU00pl5H8Ip44j/TLgJRUPCGMYq7YwUW1NGyqnEqfrcXRlmjjqjXvCjORCuZPRWoEOr0oo4665oYwclVr6yHTvIrNiD6KwFiMTS8DlM4eEEUjVQnbL3aAUsy//D7W3X0EWx6kpg9ACicTXgmE/oKiv1j8kmnFSylQ2JogKkf1ayMXaJKNmMnJzkAqlFK6SKBWdNkulcKVCa02oQ3Ro0DqSU4U6JNCaMAgJTFQYmDhuSCWjE5JY/nF13ziKv0LAbGgYDkNuNhkcEaIFOFpiHA+5eh353Z+gcNMeZNdgtH8XH96Uv8aZ47hjjDFRD3udQeZuw+tvQYqA4OIv8MvF1D5KNFgbJSk/UwJdMukChlnCD5IxqAoEsyC6SGUCScJBR7E3KqhqHcAb/D3c7vsRThdCiOjvlzDXibJlCocQ1dOLvvtLqI5+zIs/wT/2CqI4i5QeGqg6mopjLpGlLGHuhzaGoqvxlcQlLtrK52HzLnJ7fgtv3R0ItyXyfxTJdTHv6mm79BYmTUchw3133U7vil6E6/H0Cy+h/cQ6EYyS5HVAQQcMC8AoEOGVhbpY82RMlDlOnGykENecEjWSLGPqx6xX9Q4iKrsLjUFITUtYI2d8hBbxwidQaAYH+njwc5/ik3fvoKc9H0k5UKlzwvKBROAgvE6c3o/huX0EPIEZfxVPVwiMQDvRCcREUGA6jKqB63625rrKusQND0GCyVorE7UCmHGEAE8bXK3R2ZW4vZ/EXflxVKaT1GtleU2g+k3KFMhsvQfTtRKda6P60lNQmiTu1EU1NIwGAb65uuOGxFUmqaUwpl74JlOrxyhT64caP9RUGtpPm/SoNfbCj+10hahTr6gbqIrimzGRxWEs9hBX6eXdeLIrBFQRjAaGamzooQgxnsBZv532+3+P7NbbkJl87OmsY4b04cx959pPhLo1i3EFEodMfg1q4HcRQqHP/w9heRZtIr1vJLyOCGCowZmVSF8ToFFL/Xwc0H6ANxd5pWoTbQqUgFBrQilxpMS0DJIb/B3c7k+D2562VpbLIrhIlMpE86klh7ppLzLfQbmtleDQK8ipWQJq1PKgCNAq8l0US3TqGCAwBi+AWibaFFRdhZNxybR04Wz/CM6eL+MMbEV6mVie9O5ioaW6IknppGtGxvPYsWk1f/y7X0BqzatvHWF2tkwYawzyYRXXaKrxohJi3tPZLjG3EXHzmao2OEbFnDv2Mb7md15ENRLGEApzdc3N4gZLWktqaIQJyWpo1RWUCBHGxSs4bBhawVe++Ck+uvt2WnKZNHnhsPwgZOT/Ex0du8jObXjKJRAeweSvkX4RbQxV7XC21kbVT0WiDZ07rx/hutEhTqKphYrzlW6q4TAtrkArD53pxev9BE7fXpxMV8OzJJbhHIq0/gqBkTnEys04D/wek1lF+dfPo6fHCLXPVKAYC0SDR/UVZ5Au86Opb6cFXNYxpdEgoUGOFt/YprllZPNW3DTcz6s9GYmtwyMXHBFpri8GIdMypFUInGwHYstNdH7sdyls3I1x4n4aN+DUyrm+D7DGhBJhsjjuRuj/A4SzkuqFn2JmzyKIill0JKZD+gbK0TFVo8vm0s5uGSiCqAh0S1QsFBmKQ0YpnO5NuL1fQXbei3BzSGGWYZCpq7hkVuGs30Ghu4dg6FaqLz1FOHqIcr6MLw2uWYr2FM1XQgkRGc8b0FkD/a3k3Y14t34aZ9NunLZepOvVHQiuc+HCgs/aYJD4rB/s5k//6Cu8+tZhnvzFL3njyDuENU1PLQQdEMYmae/nSoWNtVOp7eR12ByZqGg3fF+/HEtAgFAIHCPorhnoDFnR0cYDH93FfffuZvOalXjO0qljuBYTSQCeBlrXoDb+HnJ8A/75Z3GKx5nQGc5Ot2F89SEeW5kFcV1C4XGu1MZckCWbc8h07sbr34NoW4eShTjPJ+0USmM3qPZ+Vnz8a1TW76T04s+Yeeclzs/NMu6DFsHSf+aEABU9U1przgdVxmSO9au3Udj5ANmbdpLrHkAoiQ4FxuGGMMHrmhCouyiAMTlUdh1mxWfwpSQYfhzKFyH0McZEX6QGYTFE6riifMmT46h4R8+BKAlUS9TRz1cg3AJexxZy/V9GtN9LoLrQGqQUy3q9EkiEm0OsWIuTa8O0r6B6+P8RilcQchSjw/pxUFPO7dI/L3Q0uzk3zxqtIpLstnbjDXyczKr7UIO3oLLxyYKwpKaZFEaxpL+7g0/eu5MV3W207XuGd14/TPeMIEDjx7aAjbTQXOF9CjD4RHHseogP4jI/NOBjIheAK2hS0kxvo0LggKi7nhKCds9h+8Yh7vvI3Txw7y56ujtji69F3Bfmek0j6SBwkJk8bl8rOt+LHv4Z5eFxpmrt0SJuLkdexbUPDDckjl06oySCYtBFJb8Ob2AbXu/9uLl+NBIj5BKrGroWV1BghES1dZLfvhvV1kXY2UP5xafx585ApcZVtABelCu4iW0whQBHOsiWTuSmXbR8/LfIb7oDJ9+KMDJSE8i4UdsNuB4fqEPee2c5Yu2KDNOooVQLTnYtqmUQpQJkMA1+GULQkwLOGWQl6qizlMlx3Zol8h6V3RLTrpHKxWtfh9f3abJ9v4Nq241yCkgkUoapi8PyhQahCYVBeBncrj6c/nV47X1IGVDTs2i/RqM3eMIjTKOOaqGPMs4+JjqwpNTCGIOUgny+g76uOxka+gIr1n4Wr38r0svhGBl18xL14pdlT5RFZJGlY/sq13Ho6+li89q1rO7qpiOoMTk1xtlSkZIwsZVZc/GHeI+MUBuCftxI9iCufdwScZmXxjCJ5rzwCd+DHNddN+r2kRLoNpIOlaNjzXq2PHA/9372M9x9x210drZF9ptCgVCpNZNFclF1vD03GOUhMr2o3Dpq7hDnSx1MFmv4QeJlbxDS1O+FuDZayaRDnpEeMlNACheja+gr6JD3/meeiPzAZVIJGDUOUsIw0Am3b17H9o230tF7ByLTj5CgkNH6LRdDtP0w1/3o7EYJHel423rwVm2E3iG0l2GmOMt0aSaWHySx29Q9XRfLKWBK/qINgUwLwkXqaNyaa2XnLbv47P0Pctd9X6Rn462obA4R13xooZDCxLKKD3/MwlxHcZQxCQFs2HPWze4IS8eoXfwxteH/iy5OUn4H5EGNKIeR/pillSVNNECNx69IAa7G3eYR3KTIdK4mP/g7OJ2fRYiu6PhBmMuEyGWcBowPvyOyGPtnhzVmZ/Zz6uRPGb2wj+m58cgvMumIIQVBbH7uLPBNlzb17ZOINayaiBQrFB35QYYG76N/1RfItW7C8TINlvvJSU3y+3ZhuiSXlxjqA4Qwfuo0Lz3x3zz6f3/CqdFhMDomIZFNUmRbNO8ZNM0q7lVacq9siRSqIrzm+TJhZOSfLDTHdcBrskL1SohUvKE0GrSUKA2bvDb27ribWx/8MqvuvRO3JR/Ju0TSiIcl2Xb9WmzMG6V+URMYQU1rhscnePr1w7x8eIyxkibQAiGDyEMWhVEOvvb5zb0ar2jBRghNqPK46nD5cgAAIABJREFUrX0olUP7cwRzoxBW42l5bW6cMVGDIFcodOijVezDYRRZGbKhL8/9dw5xy6b1tGfyMYGOGliko1w+9jhXmRYjrQdJznkmpsb5xa/28V+/+E8OvfMO5UoVpEm7VwoTF9gt8CMdIQRa67T3QlQgKKMGMcaglGBlTz+fuOcBvvzp32bj0EYc5aTFrMQ+8UZEm7J0IfyQcV0zx2nmK9l9NnWnEoSqHZNdSehKqM0Rnq8hRqoQhgTE1fdLKfFA7N3ckI8yxqAyHqqvD7nxJnJDX8Lt/Ag4K9IFut6wXthAQ30+RT+GCBEgjIvrddJSWEUmP4iQLoIAEVtsmbiDWtSu1Czcq2gSy1mBMFFAcaRDNlOgLb+S/q7drBn6EisHHyDfsg4p3ZTUNB2g24zxu5NF0aDF1ppsWzvd61bR0teNH4Q40sEPNVXf/w0FJ83kuIBgEDdat4SZ71h7TfJ3Jo4f40ZzXoTo98wwJsWBEtfL0dnZw5r1G7j943v5yP95kJW334rKZaIjTkQk2Wr4XYvLZ1HrMSieR0LQVsgz2NtGe0FiRIDGoENFaJyopTBhXEj9QXtRxm5G0sPJFBDKxYTXKXMs6httIxRKubTmFCu7Xe7Y1MUDd2xgx/o15L0sIi4mT+JO87plcdn1q6HTKwaymRxrB9ayaXADGScDKjJv9GshYaijzhcL/MFMOwmLxifF4EhBodDCwOAAd26/kwc//SU+f//nWdO7Gidew5JcaP3apCTyxozFmBtnCaG1T0gVgln01BGKrz6L/tVLmJEz+NUKDmrJPVuJVjCNYRkPsWYrubs/jnPzbmRhLcppQaIQJkRIZQPMe7BJozXGyOi40dQIgyqVygSlmSOMjb3O2NirzJVOU6nOpB2EF3JiQRuDUmC0JOO20Nm1gRU9t9PRdgeFlg1k8t0oJxcdWYowdodx7FS4ityN1hG1lPGxVmg0tUqFsdERTp88zmsvv8Qbr7zM+eEzBNVyfEzYQDzmZY5XGME9okAWgRQ67VR4rSCRBMYQiJCjOuAtWf2NRXkibvWBdOha0cf6TdvYuetutu64iZ6BlRTa23GlGxVFx0b+jhA20lzNPNKmoXuZwDfRhmp6rszJ0UnePjHKkTOTXJydpaYlOvzgm3JhonOk0CngtvainBy6dp0yx9HEwxGGVk+xekUnO9b3sG1oBT2teQr5HJ6jInegtPmNtBurq7nGxjQ7mwhBEAZMz4wzPHKat468yS9ffZED7xxgYnYSP6ymyY+FPCYZy/oQUMi3snZwDbt27GL3rbtZO7CR7o4u8l4h9oFWcWOPBUb0byQ5Dk0l8s3THpgalcmT1PY/g//aL6icPoxbijw4TSLNiK2WInlCTDIXmg9yeiY5r1ubqBfUSGHQUiILrYgtd5Db+Wkym+9C5HtQgEgakovIW9TiNz+IEGnaTexBI2K9cWCq+JVZZkcPcH70KUbGf0WpPIrWIWHcIS3pHFbvNm2iOTVP0VN3k4z8B838opgrqL8RsQm+MY077PgLiChlnCgTPS9DPjNAf89d9K7cS3vPNpTXjkGlPqoKUW9zblek9zFv4nufKG8CYgedkOmJMQ6+9SbPPb2PN197ldnJSYKgFsUgU5dIJc5JXUZyNy20iogcpza34oN47pg0X6mQ1IyhKjRHTcABWYmcbRrapIsGzi4E5AutrF6/kXs/dj+7P7KH3sFVuJkMQkct9oSKOgQaQBmx7It93/c8ioOD1iZqUS40oZBMFWscOnuRF46c5Mi5SebKIWFoiPZlMtWTJr7/mDrpMcnf0+hj20yOvdZe5HuR40aNTHJUTSTTMbFMxzTV2UU2hBIQSuAq6O/KsHPDIHeuG2JVdzu5TOS7aoQLMioMTp8HG4feVxxK/ywMGh2dcGoo14qcuXCCX/36Vzz38vMcPH6ImfI0WmtMWliTbMVNSkiTmZNkbg3E/pOi3t2z0YdbcJkFrIFjpadtDTKHWFecnqCkHmNR3YtyXAb6B7j75ru5b9detm+8ha7WLoRU6alX1HZaoOTC4zk3lBzXRSbRDdXGxy9O4J85RHDweYJjbxAOn8EUZ0FHurnIdVLGGTMQZqG1fEimXUyFTVQMlLb2cF2c1gJm9WbcrffgbLuHbNcAKtdGoBVKRrsurnHmaWnnAethYD6xMIAOfIrF08zOvEO5fJa56QPMzQ1TnBumXJ4mMAHGRBqpUJuYazZkBuOYYATpDre+eMF8y1kTZ+KSE7OITAuUjLy8jTYoJeu6LClRysGTBbrb1pAvrKalbR35wgba27aQL/QjHLfhiF/Y2XEN54+Jdymi4fIaY9BhyOjoCIcPHuT0O8c5duQgp945yOT4KJVqldBolIi66bVrl9tlC/2xU3JSgKUbFpCrst8y9TZoUgikEARaUxKSI9Q4qCsgo8pvTeTt7SiXfGs7K1evZv3mLazbsJlNW7ayZu1acrkCwhF1n1EzrwTc2Al1zcJQSkYN1TDkwswcJ8+PcmZsmlNj05y9MMNU0VALRNQuNwoBcYtLGXcrDOtv1UBckwqEUF1Z5lg0zfH6PjzpopYkmUIdxSwlIe8aertyrF7ZwequFtb0dbOur4cW15lHYsSl88jiqslx84YimUgyXUswAeVKhTPnznLo6NscPX+UQ8cPceLscSamJ6lWI8P2aP+j4w25jJzWDQihI6qlNVImmyKZktNLWzHLdC4b09isjYZzkkauHbV9dhyHQr7A6t4htm7YyprBdWxZv5Vt67fR2dqDlKo50DRkDxfipupDJMfvFX0NRkcenFoH6Llx/LOvUzvwS8IjryNGLxJUSphAR2b7LOBOD3FU0wJCQ0SEEFGmeNV6spt2ktl2N87AZlQmCyiEdCLXiqaJ8t7X7IO9vlhXoSsfc6TaMkhjIAzRgU+tPEW5dorxyTeZmDxIdfYUxfI4fjCLr2uEDebmJu4IlGioiLuhJfJ5kRYNiHoWKe5MJERMtI2Jm0bE/5Mm7kXv4bk5Wgv95AuDtBS20tt7D7l8P262FZQX2f4I1dS73uLDWbQaF65arcrIhWEO7X+Dt996g1NHj3Hx7DlmZ6cJ/Rp5rblF5FkjFBBiRGT9L+M5Y8RVHqnHp2RR0sAQedpAFcl+U+Gg8VHCBSnJtxTo6O5icN06tt10MzfdcivrNmykpRDZ+qUt1d+3c8D1jkMLMY598O9sTBR7TCjQWuCHAaMzs7xzfpJDZyc4NTLBRLFEuRpSCwWhDhFSp1X9mIb+p+kxkwaj0U5ckHcl5LiBtMffKD5pA4zCUxJPGVrzGVZ2trChv5stgz2s7u2gLZdDSomUBkEYExxxg675coxDOk7cRD/rUFOslTh78Sz7j+zn7cNv8s7pI5y9eI7p4gy1oIbx/eg6ShkVd8eb67opgklPKsxlfAFF0j003c6HDa8kcono9MlxHVoKLfR29bK2fz3bNm7n1m23sH71BjpaOnGVh5RygZDfq3umb3DmuBk61NHNdATC+Bi/SDg5RvXUQYKjLxCcOkA4Ooqam40WHLPw2oRIYfCNQQuBUJEWVLXnMf2rcDbehrt+J9lVNyFaehBKRUpRQ6zVsoHhuswr4sYyxkQKDAkGHz8o4VcmKU0dZnrmBMXqOcq1CYLyBcKggh/4+GENLaroIAA/BK3xiQsrRUMnIhOZPIFAxj6OUgikcpCuh3IzCOGghIuXaSOX7SLj9FHI9tPRsZlC2xoctwuVaY/aPcdHoGAicmwXjRtCjJPsfiJlqVYqzM5MMXpmmGNHj3Ds6BHOD5+lMj3BpjlDX6lGuTJHLYgkYdLo2HXHXFXXNBkn5UKiDqJSCJRy8d0Mp3OK4dYM2UIbPSt6WLdhPes3b2Zo/Xq6e/rI5vNIoS7x9rbx5cNeiuN7biIigYn4rq9DpudKXJya5NToFKcuznJh2me2GlKtVan4IRU/JPA1aWIvObky0YmkdvJ4rX1XJKtoLByUCjxHknUVGc8h52XozktW9eRY09fO0IoOelo7yHoZpIkiWmw0gEbjSIVVpn/45FhKGf1ZR4XaRhiqQZWpuUnOjZ7i6Kl3OHbqGGfOn2VsYpxSpUTNr1GplKhWq/i+T2B0dFKBiTLG5lJLmuQwIS2Kk1FDMiUdMm6WnJfHy+bJZ3O0F1rpXbGCtUPr2LphG2tXrmNFex/5XD6KNTp6RyHlgtQUL6DM8ZUEE40xYZrm0MZExUmhj5kbwx89SuXIq+hD+zHjZwlnJhHVWmpDpEn8kZv2QKmvXuot3GjH0xjKLmlz2XCQbUR6bBFtvGXaBVAIWbetw6CFxBTyOF1dyL7NuJt24266FdXZh8wWkMrF4GBMMgHj7xkfe1hce7IT3alI76cabNIEGh0GaB2iCQn8En51mDCsEIQ1grBMZfY4xamzlIojoOeoUCYkwOiQUPuRZZxQKOEghYMjPITJ4Dmt5DId5Lo30dq+CqUKCK1wvRayuQ4cpw1hXFAK6WRiiVAyS2XkwkH03h9i6y0LSElx8t802Me68TDUBDqgVi1RKRaZm5pGjE9TPHWGqeMnqV68QHFygtLYBKZcxYQ+2oToMMRoHWeGL5O3EBKpJFI4oBQm65JtayXf2YPT209+aIDsmlVkBnvp7O4iV8jjZTJ4mSyedCP2ZURMaKL4KRMHAXtbb0iuKiREo9M1QhJtXEwYUguh5gdUgpBi2WdipsL5yRnOTowzMlNhci6kXK1RLtcIdPQexhi0yqHyPUg3Isd+cRwRVuLmLbGvLCCFJuN5ZLMerXmX7oKiv6OV1V1drOhopb3Vo5Bx8FwHVwmUAiFUnHGMC+yMRqKWnHvUYplBWofxeiWTLVe0YxESbaKTBD8ICGpVypUKs9USM3NTTE6OMXzhDOdGzzI6PsrE9BTTpVlK1SLVcplqrUqoIxlG6jBhBBnlkc3myOVy5HM5Olo66O7sYahviIG+Qbo6e+ns6KQ1nyfnZcm5eTw3g5TxvJY6FpVGfEgJd1FuqBrI8UI4+tKk4qhYs2cajhdNWKE2Ow7jw4Qnfk352K8Jzp+GiXFErUyoQ9Dg6mQKxcUHUmOEg9Yi8iA1olnPlUw5EblJNJJnHVffCCNimybQum6tJNDx8YUAJZHZLKpnELFmM9nNO3BW3Y1s60UVWhBSxjZPJj0yS/ufW1/aK1hm3t/8u9z2TzS1EDP1JhuXeZdaeQy/Ok0QzKLDEmHUoyzWa2mC1BdXAgpFFiE8lHBRKku20IfrtUX3v+n71g+tBIlJemPBw7y92jV/JpfmcfZ1eT3R6YoG9bCob7YThLUqwVyZ0sQ4s2NjzA2PUhmdoDYzQa04S3muSGW2iKnFm/o4Q20QIBVeS45coYDKtpDt7CTT1UGut4v2gZV4XV1kWgt4+QJK1TWJSWGNbG77US8Kfq9pZOVX13NnnurCE59GIZrbW0XZYJOeIPpBSKlaY6Jc4eJMiamZIhPTReZKPsVaQLEaUAsl2s2jlYf2q4SVGdBVHKXJuhlasjmySpHLSNpaM3R3tNLTlqevJUchmyXnuEgVyzSSsi0x//o0z52kMGvxPdOLcf7V+6NqXecGiTFBspFO+NJl6+nQ+H6VUqVMqVJiamaG2eIss3OTzBZnKZfLBGFIEEttIjtHSd7N01JooaW1hdZCK13tXRRyBXLZArlMrvnTzCVnJZcssHVTt8U1DxZU5vhKAo3WOiKspUnC6WH80fMEw8dg/BT++DBMTUGpiK7MRtobbcCEURWxjrsbiXqVeqKjkWn1VH3yJTdZikg/Gs1RBUqiHYlxoy5FoqUd0dmD6u6D3gGcVZtR3Rvwsj04uUJEiNN2bTYzvOiWWa2pa9xNo7UF6Zln06Mp52m4rJvEckOgNegQE2p0EBD4NUzNx6/5hLUaRod1J4GYYiMl0nNxPBelHNxMBuk40abbcVBJZiaWfdhTpqUed0K0DiMLv1DghyF+WMUPDDUNhsjNyOgQEwYYHSAcg6cUnuPiSgflOFGbeQVKSqR0bAJmueaV4lOHQIdpxrmJ/Zm6P76QkXuNEHLZ1rssMnLso3WIETLS3egQHQYIU8WUp6lOjCLmxjBzw5HjxYVziJkiulyCWhHhV8GPM34mmiAaiTQGqU1KXo0Q8emkiYuqHJSTQbgZRCZHWGjBdHSR6VuD7N2Eau1GdfbhdPVhvBaQHkZGDhVKRubvMqbgliQtxuDSQGAiT5xLN6jxfY20zbIhH2O98JcjQhPpBaW5/HTRQjRbeVG3fTNAKDRSyLigL5qDQoq4wM5YgrMMoE3kQqCpJ3HqfhUgtWhyQtFx4adsqOEzabaaeA2y5Hj5LV+maSkzOsrRyaZzpTqJrp+KNS5vy2/OLLrMcVS3HZFaYaJCq0CKqOglMLETThE9NYY/NYqoVRHVKrWZc1THTmDGzqDLRUxpDlGtIv0a1AII4oMvz0M4DsYR4GUQXhu6tQuvfx3eiiFMSydk8phsgUxHD6J1BVI6kRuFUJEWWRuQmkDoiBILiUwWSJvtWYQbbz/mxwptJFLopqBh6gqJelE5zTKZtMp3GQeb5bAAJfdVk7hMRL7bMraerLuB1tuEpBIuwkhZbuKsYJNEQtQlN3b+LI85pU3a5jyJH6ZJKqPrxl9Cxpt30aDIMkhNk22tUHbeLG+CHO3WRSqkME1ymijmqLTVM9StSZdbzFlc5DhZOESDUirq5UBEXZo3QQlrEYBfnSMojiHmLmJqVcKaD7UaMnYgSE37nGhnLZRAS0WYyaCybbjtPchCN8LNRV7LiZWlSDwJm70KRRy4km+V2IDZzPGizOGkocOk2Zv5k63pqWr+0aaNl+2CpElsAN87zDb9G9OgH26yBbW1Cctwd944AS7zYqOes2GypButZENlL6VFQ7urJv/idILFrks0Wb3ZzPF1vykfrtg6On40aZWwTgpg5rVTEI0y0qbYouMzCIUWCoTCuaaTZDkWKtzoeWZhYeeXjVNLb72zsLC4drF78WWOr/piNJj5xzuhRocKnXboEw3/XqTH5aahklcArt1+W1hYWFhYWFgsWdTz5+9JMq/n69eZIhsdO1CYtEdQ5E8tUk9IiYy8jE3kaCGMrldTieRAXV8lMb9RG4Kley8X5piNHbMd8wJOECzGMS/hnI2dvzaO2TEv+DEvMJ/j63NTTKN1bPo1Y32NEZdewLiqqrGPeEObqUUw5qW6cCy3Y0rbtteOeamOeaFfUwsbu+0zvZzHvMRlFRYWFhYWFhYWFhZXDusrZmFhYWFhYWFhYWHJsYWFhYWFhYWFhUUzHHsJLCwsFjq01k0tk7WO+4Yl7U6ti8wHuqZJS+rkZ3tNLSwsLDn+UGALIBb3NV0uBS4f5jjtM3E1CIIA3/ejwOU4OI6TNsVQSlkydzUzL+l+ZQxhGOL7Po7jpERZXFXhsZ3HizueLpf7Z+epxYIkx3ZSLu5rKpbJ/f0wx2mfiSslcuPj47z55pucO3eOMAzp7+9n69atAEgpWbVqFUope7GudOaJqD1spVLh+PHjjIyMcNttt9HV1bWMn/2lGmdsHLLz1OJ9kuOlahV0I3eKC3XMS9FWx9rmLOUxT05O8oMf/ICnn36aVatW4Xkeo6OjtLe3I4Tgs5/9LCtXrrwCcmznfoIgCDh37hz79u3joYcewvM8vv3tb9PZ2ZlKVxZ3HLOx28YxO2Y75vc/Zqe+o/pNv3wtXl+KO8XFOObr/fqNutYf5F4s1GtyvZ/JhfhMR5+ZaIprtRqPPfYYP/zhD3nwwQf5xje+QaFQ4MCBA3znO9/h4YcfZu/evQgR/Y7WGqVUqp9NMqR1bTLpa0AqH6g7WpomWUGjJjf6WTfpcedLEOa/b/N7X/p58z+r8feS7w5cogtu/ncGrc0lspKI5NbvY/JelUqFAwcO8NBDD/Hv//7vXLx4kY997GPvot9erHHMxu6lE8ds7F5MsXupjNlZ/KTpRsIe0yydxXIpjnkxPtOiiTieOnWK//zP/2RiYoJ169bR2dlJNptl586dFAoFKpUKQRA0EVBjTEqU5xO+RmKcFKQlrzeS6YScJv8mIcnJezZmV5PfS15LdLx1glonugnpn/93xpiU1Dd+7+Szk/dr/Pv653PJ5zVnf8Ul1yabzdLb24vrunietww12zZ229htY7cd8xWRYwsLC4sFsKw0ENWxsTHeeecdRkZG2LdvHzt37mTdunVIKdm8eTO/9Vu/1VSYJ6WkVqsxPj7OxMQEmUyG/v5+crlcSgCNMfi+z9TUFBMTEyil6OzspK2tjcnJSTzPo62tjbm5OcrlchQoHYf29nbCMGRqaioly21tbeRyOcIwxBhDEARMTU0xPj6eEtB8Po8QglKpxMzMTPod2traKJfLXLx4EcdxWL16NZ7npYRYKUWlUmF8fJypqSkymQzd3d20tbXhum5KdMvlMiMjI5RKJTo7O+np6SGTyTTndBqyztlslg0bNrB79246Ozu5ePGinXQWFhYWlhxbWFgsBpLc2trKihUrOHv2LI888ggAe/fu5ZZbbmHTpk3s2bOHWq2Wyg4mJibYt28fb7zxBkopZmZm2LBhA5/+9KfZuHEjQggmJyd55plnePnllwnDkPb2dpRS9PT0cPToUT760Y/ywAMPcPz4cX7yk59w7tw5ent7+frXv45SikcffZSjR4+ilOL3f//3ueeeewAolUo8+eST7N+/HyEEs7OzDA0N8ZnPfIaNGzdy5swZHnnkEU6ePInrutxxxx1cvHiRF154ASklX/jCF/jt3/5tOjo60Fpz4cIFnnrqKY4ePYrv+5w+fZrNmzfz+c9/njvuuANjDCdOnOCpp57i+PHjKWG+8847+dSnPkVHR8cl8o7kOrmue0n2O7nmFhYWFssdtgmIhYXFgkOS5dy4cSNf/vKX6e7uZmpqih/96Ef85V/+JX/1V3/Fj3/849SpQkpJEAT89Kc/5Vvf+hajo6N89atfZceOHfzLv/wLDz/8MLOzs1SrVR5//HH+5m/+hjfeeIM//uM/5itf+Qr79+/nm9/8Jg899BDj4+MIIVi7di2Tk5N873vf45FHHmFkZISenh7m5ub40Y9+xHe/+11OnjyZyh6ee+45/uEf/oGJiQm+9rWvsX37dv72b/+W//iP/6BYLLJmzRrOnz/P9773Pb773e/y+OOPk8vlAHjyySf5u7/7Ow4ePIgQglqtxn/913/x93//9yil+MY3voHWmn/+53/m+9//PhMTE4yNjfGDH/yA73znO2zfvp2vfe1rXLhwgW9/+9s899xz+L6ffrf5/sWJNORSiYaxk8/CwsKSY3sJLCwsFhoxTv7reR4PPvggX/ziF1m9ejXVapVz587x1FNP8e1vf5t/+7d/49y5cwBcvHiRxx57jAsXLrBx40ba29tZvXo1Qgief/55zp8/z8WLF/nRj37EsWPH2LRpE+vXr2dgYICNGzcyPT3dpEHOZDLk8/kmsu55Hvl8PiWWCZL3PXXqFKtWraJQKLBhwwaUUjz//PMMDw+nv6uUQinFRz/6Ub761a9y11134bouU1NTjIyMoLXm1KlT/OQnP2F2dpYtW7YwODjI9u3b6e3tpVqt4vs+Bw8e5MknnyQIArZu3UpXVxd9fX0cP36cJ554gunpaeDSRimXyw5bUmxhYWFRh5VVWFhYLCjML44bGhriL/7iL/jkJz/Jww8/zM9//vNUi/xP//RPAPzpn/4px48f5+2330ZrzdGjR3nssccYHh4mCAIuXLjA8PAwxWKRZ555hmw2y5o1a3AchyAIaGlpSWUG70YU301yYIzh9OnTPPbYY0gpOXr0KI8++ihjY2O4rsvIyAjnz59n06ZN6Wfk83nWrl1LoVAgl8ulY61Wq4RhyOuvv86hQ4dwHIdsNks+n+erX/0qe/bsoaenh87OTl577TXeeusthoaGeOaZZ3jjjTc4deoUAMeOHWN6epru7u6rvvYWFhYWlhxH4R3rc7xUPtv6HC+Pa7L0x2yM4cKFC8zOzrJhwwY+//nPs2vXLh577DEeeughXn31VWZmZnjiiSf43Oc+x8jICHNzc2nR3NTUFIVCgT/5kz+htbWVgYEB9u3bR7VapVAoUCgUUjI4nxj/Jku2JGucFL0FQcD58+cplUrkcjkmJyeZnp4mm83yZ3/2Z7S0tDA4OJgW2TUWBl7uM+a/X7VaRQjBunXrWLt2bVqod+HCBWq1GuVymYmJCVzXZdeuXdx55510dXVRKBQu0+3u8te5cfxX1x1voc7vxQgbu23stmNeKGO2PsfX7YZbn+OFc62tV+a1f2av35iNIbVNO3HiBE8++SR//ud/TmdnJ6tWreIb3/gGmzZt4l//9V954oknGB4eZnZ2NrVCA1izZg1f//rX045vWmuklOzbty/9uVwup7ZpCRrlEpd6/tbJpDGGcrmcvp40IBFCsHHjRv7wD/+Qjo4OlFIEQZCOJ/l+YRhe1lc40QIn9mpTU1McOnSISqWS6pMTlwrXdQHIZDLce++9PPDAAzhOFNJ9309fT95//lgbx9xoWddoJbd0fY4XIqxHvY3di5mPLa0xy8X/4C3kYGZhr7VdLK92zI2kMQxD9u3bx5tvvkkYhmityefz7NmzhwcffBDP81i5cmWqt+3q6qJSqfDKK68wPDycEsTTp08zPj7OwMAAhUIB3/cZHR1Ni9USn+D5koqEbCa+yUEQUKlUMMakZFVKSX9/P4ODg5TLZX79619z5swZXNdFa83p06eZmJhIiWqSnU2cI+Z7H0spWbt2La2trRSLRZ599lmOHDlCGIZN33toaIj29nZmZmZ49tlnmZubQylFsVjk4MGDFIvFy/orN3orN35uowe01SBb2I3OYo7d1uf4g8IW5FlYWCzM5SUmyCMjI/z4xz/m8OHDzMzM4Pt+WpQG8KlPfYrBwUHWr1/Pjh070Fpz4MABHn74YQ4dOsQrr7zCCy+n9P6PAAAG3UlEQVS8QLlcZuvWrWzZsoVSqcSBAwc4duwYJ0+e5OzZswRBkBJDIQSO49DS0gJAsVjk7NmzHDhwgJdffpm5uTlKpRLlcjnVRX/iE58gDENeffVVfvjDH7J//35efvllfvnLXzI3N0cQBBSLRbTWhGFIqVSiWq2m75FojoUQ3Hzzzdx2220AHDhwgO9///u8/PLLvPDCC/z3f/83U1NT3HzzzWzZsoXJyUkef/xxHnnkEfbv38/PfvYzXnzxxXdtHJJsBubm5vB9n1qtRq1Wo1QqpdfAwsLCYjlDfetb3/qWvQwWFhYLkRyfOXOGZ599FsdxOHToEGfOnGF4eJjnnnuOX/3qV3zpS1/ij/7oj+jv7yefzzM4OMj4+DjHjh3jwIEDHDhwgNHRUe666y62bdtGa2srnZ2dnDp1iuPHj3P48GEOHz7M8PAwR48epaWlhb1797Jjxw48zwOirPPJkycZHh5OHSBGRkYAWLVqFbfeeisDAwOsXbuW8fFxTpw4wZtvvsnhw4cZHR1l9+7d7Nixg4MHD/Loo48yPDyc/m5nZyf79u3jxIkTeJ7H6tWr2b59OytXrmTlypVcuHCB48eP88orr3DixAlmZma4/fbb2bZtGz09PbS1tXH69GlOnDjBSy+9xJkzZ8jlcnzuc5+jv78/lYk0ehrPzMzw+uuv8/Of/5zXXnstJeo9PT10dHTQ1dXVZPtmYWFhsezWH2PPzywsLBYYkkzq0aNH2b9/P9u3b+fEiRO8/fbbFItFWlpa2LZtG/fcc09Ts4sgCDh8+DBPP/00586do6uri71793LTTTelMojZ2VlefPFFXnjhBcIw5NZbb+Wtt97iH//xH+nu7uab3/wmf/AHf4DjOFQqFf73f/+X5557Dtd1ue+++ygUChw9epRqtUp7ezu7du2ir68PYwwHDhzgmWee4ezZs3R1dXHfffdxyy234LouR44c4a233kqzs+3t7QwMDHDq1ClKpRLGGLq7u7n99ttZsWIFtVqNgwcP8vzzz3P27FlWrVrFnj172LZtG9lsFoDp6WlefPFFXnzxRarVKps2bWLv3r2sXr26qd11o7xicnKSt99+m9HRUarVKhDJRnK5HBs2bGDbtm1kMhlLjC0sLCw5trCwsFhI5DgMw1RmkM1mUylAtVolk8lQKBTS1tFJQVxjsVylUsHzvKbW0Ql832dubg6INMPf+c53+Ou//usmcpxohhM5hFKqyeEi0e0qpZr0w+VyOf2OiSdyY7Eb0FT0N1/nO79zXaVSoVwuk8vlyGazCCHQWqdjb5Rr5HK5tJhvvgtGIhdJ9NON3yN5XUpps8YWFhbLHtbn2MLCYkGSYyEEuVwuJY2O49DZ2Zm6PzQ27Eh3+/HPhUKBfD7/roVlruvS0dGRks/GgrX5ZNHzvFRi0Uhg59ufJf8+l8uRz+cv+70aie8lmYoGopy4awCp7VzjZzX+TjKWxu93uX+X/Dch8/M/93LX08LCwmI54goL8sx1fv26LbHLkVYs0Xu5kMds7JivE0FuJHbJz0lWdH7W9b3bIJvLvv/c3ByVSoW2tjZaW1up1WoEQXDZ95tvi9boOtFIguf/ufHn+d+18ftfjkRfzl2iMRvd+P9Lia25hCBfbiMw/98s/Ni9FGO7jd02dtsxL5QxX2Hm2PocLx4sT/uvpXlNFrKP8fUdc5LhnE/Y5pPQ+TZojWNutE2rv0f0evJ7xhh832fnzp0MDQ0hhGDDhg2XeALPb708n4w2Et9Gicf8f3850vxuG4LGLHWjJOLdiSyXef/6NbnSz29+zfoc29htY7eN3dfiPi8un2OrObawsFh2aCS3tVotJcONNm5We2thYWGxPGHJsYWFxbJDoyxifnFaU4C0xNjCwsJi2cEW5FlYWCy/rECDDOI3yRMsLCwsLJYfbIc8CwsLS5bnEWFLjC0sLCyW8ZpgZRUWFhYWFhYWFhYWEWzm2MLCwsLCwsLCwuLqyPFS9FdcqrD+oAvvdTtmO2YbLyzsOmufaRvHFsuYrazCwsLCwsLCwsLCIoaVVVhYWFhYWFhYWFhYcmxhYWFhYWFhYWFhybGFhYWFhYWFhYWFJccWFhYWFhYWFhYWlhxbWFhYWFhYWFhYWHJsYWFhYWFhYWFhYcmxhYWFhYWFhYWFhSXHFhYWFhYWFhYWFpYcW1hYWFhYWFhYWFhybGFhYWFhYWFhYWHJ8XXEculxb97jO3/Q1xfiNTOL6Josxfluu9VbLOa5vBCfWRu7bey2sftaQxhj7GplYWFhYWFhYWFhgc0cW1hYWFhYWFhYWFhybGFhYWFhYWFhYWHJsYWFhYWFhYWFhcW74P8DsXaWDJJ8GLEAAAAASUVORK5CYII=;" vertex="1" parent="1">
          <mxGeometry x="-270" y="507.5" width="322.9" height="104" as="geometry" />
        </mxCell>
        <mxCell id="CXREXDa2TVlpKWCIqBTj-19" value="$$\overrightarrow{R_{t,u}}$$" style="text;html=1;align=center;verticalAlign=middle;resizable=0;points=[];autosize=1;strokeColor=none;fillColor=none;fontSize=25;" vertex="1" parent="1">
          <mxGeometry x="270" y="619" width="340" height="40" as="geometry" />
        </mxCell>
      </root>
    </mxGraphModel>
  </diagram>
</mxfile>
